<svg xmlns="http://www.w3.org/2000/svg" width="840" height="375" viewBox="0 0 222.25 99.219" font-family="&quot;SF Pro Text&quot;,Inter,&quot;Segoe UI&quot;,Roboto,&quot;Noto Sans&quot;,&quot;Droid Sans&quot;,&quot;Liberation Sans&quot;,Arimo,Arial,Oxygen,Ubuntu,Cantarell,sans-serif">
  <path fill="#eef2ff" stroke="#e0e0e0" stroke-width=".265" stroke-linejoin="round" d="M.132.133h221.985V10.45H.132z"/>
  <path fill="#fff" stroke="#e0e0e0" stroke-width=".265" stroke-linejoin="round" d="M.132 37.439h221.985v10.318H.132z"/>
  <path fill="#f6f8fa" stroke="#e0e0e0" stroke-width=".265" stroke-linejoin="round" d="M.132 47.493h221.985V57.81H.132z"/>
  <path fill="#fff" stroke="#e0e0e0" stroke-width=".265" stroke-linejoin="round" d="M.132 57.812h221.985V68.13H.132z"/>
  <path fill="#f6f8fa" stroke="#e0e0e0" stroke-width=".265" stroke-linejoin="round" d="M.132 68.148h221.985v10.318H.132z"/>
  <path fill="#fff" stroke="#e0e0e0" stroke-width=".265" stroke-linejoin="round" d="M.132 78.449h221.985v10.318H.132z"/>
  <path fill="#f6f8fa" stroke="#e0e0e0" stroke-width=".265" stroke-linejoin="round" d="M.132 88.768h221.986v10.319H.132z"/>
  <path fill="#fff" stroke="#e0e0e0" stroke-width=".263" stroke-linejoin="round" d="M.132 10.45h221.987v17.2H.132z"/>
  <path fill="#f6f8fa" stroke="#e0e0e0" stroke-width=".265" stroke-linejoin="round" d="M.132 27.385h221.985v10.318H.132z"/>
  <text y="204.877" x="4.494" style="line-height:23.99999946%" transform="matrix(1.0001 0 0 .9999 0 -197.781)" font-weight="700" font-size="4.938" letter-spacing="0" word-spacing="0" fill="#333" stroke-width=".265">
    <tspan y="204.877" x="4.494" font-size="4.233">EncOptions</tspan>
  </text>
  <text y="218.271" x="4.574" style="line-height:23.99999946%" transform="matrix(1.0001 0 0 .9999 0 -197.781)" font-weight="600" font-size="4.938" letter-spacing="0" word-spacing="0" fill="#333" stroke-width=".265">
    <tspan y="218.271" x="4.574" font-size="4.145" fill="#4d4d4d">Sort</tspan>
  </text>
  <text style="line-height:23.99999946%" x="43.551" y="204.877" transform="matrix(1.0001 0 0 .9999 0 -197.781)" font-weight="700" font-size="4.938" letter-spacing="0" word-spacing="0" fill="#333" stroke-width=".265">
    <tspan x="43.551" y="204.877" font-size="4.233">Available Settings (defaults in bold+green)</tspan>
  </text>
  <path fill="#e0e0e0" stroke="#e0e0e0" stroke-width=".04" stroke-linejoin="round" d="M38.914.119h.225V99.15h-.225z"/>
  <text transform="matrix(1.0001 0 0 .9999 0 -197.781)" style="line-height:23.99999946%" x="43.487" y="214.567" font-weight="400" font-size="4.938" letter-spacing="0" word-spacing="0" fill="#333" stroke-width=".265">
    <tspan x="43.487" y="214.567" font-weight="700" font-size="4.145"><tspan fill="green">SortNone</tspan><tspan font-weight="400">, SortLengthFirst, SortBytewiseLexical</tspan></tspan>
  </text>
  <text transform="matrix(1.0001 0 0 .9999 0 -197.781)" style="line-height:23.99999946%" x="4.597" y="231.521" font-weight="600" font-size="4.938" letter-spacing="0" word-spacing="0" fill="#333" stroke-width=".265">
    <tspan x="4.597" y="231.521" font-size="4.145" fill="#4d4d4d">Time</tspan>
  </text>
  <text y="231.521" x="43.505" style="line-height:23.99999946%" transform="matrix(1.0001 0 0 .9999 0 -197.781)" font-weight="700" font-size="4.938" letter-spacing="0" word-spacing="0" fill="#333" stroke-width=".265">
    <tspan y="231.521" x="43.505" font-size="4.145"><tspan fill="green">TimeUnix</tspan><tspan font-weight="400">, TimeUnixMicro, TimeUnixDynamic, TimeRFC3339, TimeRFC3339Nano</tspan></tspan>
  </text>
  <text y="241.536" x="4.597" style="line-height:23.99999946%" transform="matrix(1.0001 0 0 .9999 0 -197.781)" font-weight="600" font-size="4.938" letter-spacing="0" word-spacing="0" fill="#333" stroke-width=".265">
    <tspan y="241.536" x="4.597" font-size="4.145" fill="#4d4d4d">TimeTag</tspan>
  </text>
  <text transform="matrix(1.0001 0 0 .9999 0 -197.781)" style="line-height:23.99999946%" x="43.39" y="241.536" font-weight="400" font-size="4.938" letter-spacing="0" word-spacing="0" fill="#333" stroke-width=".265">
    <tspan x="43.39" y="241.536" font-size="4.145"><tspan font-weight="700" fill="green">EncTagNone</tspan><tspan>, EncTagRequired</tspan></tspan>
  </text>
  <text transform="matrix(1.0001 0 0 .9999 0 -197.781)" style="line-height:23.99999946%" x="4.465" y="261.988" font-weight="600" font-size="4.938" letter-spacing="0" word-spacing="0" fill="#333" stroke-width=".265">
    <tspan x="4.465" y="261.988" font-size="4.145" fill="#4d4d4d">InfConvert</tspan>
  </text>
  <text y="261.988" x="43.39" style="line-height:23.99999946%" transform="matrix(1.0001 0 0 .9999 0 -197.781)" font-weight="400" font-size="4.938" letter-spacing="0" word-spacing="0" fill="#333" stroke-width=".265">
    <tspan y="261.988" x="43.39" font-size="4.145"><tspan font-weight="700" fill="green">InfConvertFloat16</tspan><tspan>, InfConvertNone</tspan></tspan>
  </text>
  <text y="272.223" x="4.465" style="line-height:23.99999946%" transform="matrix(1.0001 0 0 .9999 0 -197.781)" font-weight="600" font-size="4.938" letter-spacing="0" word-spacing="0" fill="#4d4d4d" stroke-width=".265">
    <tspan y="272.223" x="4.465" font-size="4.145">NaNConvert</tspan>
  </text>
  <text transform="matrix(1.0001 0 0 .9999 0 -197.781)" style="line-height:23.99999946%" x="43.39" y="272.223" font-weight="400" font-size="4.938" letter-spacing="0" word-spacing="0" fill="#333" stroke-width=".265">
    <tspan x="43.39" y="272.223" font-size="4.145"><tspan font-weight="700" fill="green">NaNConvert7e00</tspan><tspan>, NaNConvertNone, NaNConvertQuiet, NaNConvertPreserveSignal</tspan></tspan>
  </text>
  <text transform="matrix(1.0001 0 0 .9999 0 -197.781)" style="line-height:23.99999946%" x="4.465" y="282.548" font-weight="600" font-size="4.938" letter-spacing="0" word-spacing="0" fill="#4d4d4d" stroke-width=".265">
    <tspan x="4.465" y="282.548" font-size="4.145">IndefLength</tspan>
  </text>
  <text y="282.548" x="43.39" style="line-height:23.99999946%" transform="matrix(1.0001 0 0 .9999 0 -197.781)" font-weight="400" font-size="4.938" letter-spacing="0" word-spacing="0" fill="#333" stroke-width=".265">
    <tspan y="282.548" x="43.39" font-size="4.145"><tspan font-weight="700" fill="green">IndefLengthAllowed</tspan><tspan>, IndefLengthForbidden</tspan></tspan>
  </text>
  <text y="292.845" x="4.597" style="line-height:23.99999946%" transform="matrix(1.0001 0 0 .9999 0 -197.781)" font-weight="600" font-size="4.938" letter-spacing="0" word-spacing="0" fill="#4d4d4d" stroke-width=".265">
    <tspan y="292.845" x="4.597" font-size="4.145">TagsMd</tspan>
  </text>
  <text transform="matrix(1.0001 0 0 .9999 0 -197.781)" style="line-height:23.99999946%" x="43.24" y="292.845" font-weight="400" font-size="4.938" letter-spacing="0" word-spacing="0" fill="#333" stroke-width=".265">
    <tspan x="43.24" y="292.845" font-size="4.145"><tspan font-weight="700" fill="green">TagsAllowed</tspan><tspan>, TagsForbidden</tspan></tspan>
  </text>
  <text y="251.621" x="4.574" style="line-height:23.99999946%" transform="matrix(1.0001 0 0 .9999 0 -197.781)" font-weight="600" font-size="4.938" letter-spacing="0" word-spacing="0" fill="#333" stroke-width=".265">
    <tspan y="251.621" x="4.574" font-size="4.145" fill="#4d4d4d">ShortestFloat</tspan>
  </text>
  <text transform="matrix(1.0001 0 0 .9999 0 -197.781)" style="line-height:23.99999946%" x="43.487" y="251.621" font-weight="400" font-size="4.938" letter-spacing="0" word-spacing="0" fill="#333" stroke-width=".265">
    <tspan x="43.487" y="251.621" font-size="4.145"><tspan font-weight="700" fill="green">ShortestFloatNone</tspan><tspan>, ShortestFloat16</tspan></tspan>
  </text>
  <text y="221.71" x="43.652" style="line-height:23.99999946%" transform="matrix(1.0001 0 0 .9999 0 -197.781)" font-weight="400" font-size="4.938" letter-spacing="0" word-spacing="0" fill="#333" stroke-width=".265">
    <tspan y="221.71" x="43.652" font-size="4.145">Aliases: SortCanonical, SortCTAP2, SortCoreDeterministic</tspan>
  </text>
</svg>
