<svg xmlns="http://www.w3.org/2000/svg" width="880" height="352" viewBox="0 0 232.833 93.133" font-family="&quot;SF Pro Text&quot;,Inter,&quot;Segoe UI&quot;,Roboto,&quot;Noto Sans&quot;,&quot;Droid Sans&quot;,&quot;Liberation Sans&quot;,Arimo,Arial,Oxygen,Ubuntu,Cantarell,sans-serif">
  <path fill="#eef2ff" stroke="#e0e0e0" stroke-width=".265" stroke-linejoin="round" d="M.144.132h232.563V10.45H.144z"/>
  <path fill="#fff" stroke="#e0e0e0" stroke-width=".265" stroke-linejoin="round" d="M.144 31.088h232.563v10.318H.144z"/>
  <path fill="#f6f8fa" stroke="#e0e0e0" stroke-width=".265" stroke-linejoin="round" d="M.144 41.407h232.563v10.318H.144z"/>
  <path fill="#fff" stroke="#e0e0e0" stroke-width=".265" stroke-linejoin="round" d="M.144 51.726h232.567v10.318H.144z"/>
  <path fill="#f6f8fa" stroke="#e0e0e0" stroke-width=".265" stroke-linejoin="round" d="M.144 62.045h232.567v10.318H.144zM.143 82.682h232.569V93H.143z"/>
  <path fill="#fff" stroke="#e0e0e0" stroke-width=".265" stroke-linejoin="round" d="M.144 10.451h232.563V20.77H.144z"/>
  <path fill="#f6f8fa" stroke="#e0e0e0" stroke-width=".265" stroke-linejoin="round" d="M.144 20.77h232.568v10.318H.144z"/>
  <g font-weight="700" font-size="4.938" letter-spacing="0" word-spacing="0" fill="#333" stroke-width=".265">
    <text style="line-height:23.99999946%" x="10.92" y="223.83" transform="matrix(.99992 0 0 1.00008 0 -217.361)">
      <tspan x="10.92" y="223.83" font-size="4.233">CBOR Feature</tspan>
    </text>
    <text y="223.83" x="68.055" style="line-height:23.99999946%" transform="matrix(.99992 0 0 1.00008 0 -217.361)">
      <tspan y="223.83" x="68.055" font-size="4.233">Description</tspan>
    </text>
  </g>
  <path fill="#fff" stroke="#e0e0e0" stroke-width=".265" stroke-linejoin="round" d="M.144 72.363h232.567v10.318H.144z"/>
  <path fill="#e0e0e0" stroke="#e0e0e0" stroke-width=".039" stroke-linejoin="round" d="M7.955.256h.229v92.86h-.229zM64.312.223h.229V93.05h-.229z"/>
  <g font-size="4.938" letter-spacing="0" word-spacing="0" fill="#333" stroke-width=".265">
    <text style="line-height:23.99999946%" x="10.948" y="221.36" font-weight="600" transform="matrix(.99992 0 0 1.00008 0 -204.66)">
      <tspan x="10.948" y="221.36" font-size="4.057" fill="#4d4d4d">CBOR tags</tspan>
    </text>
    <text y="221.36" x="67.37" style="line-height:23.99999946%" font-weight="400" transform="matrix(.99992 0 0 1.00008 0 -204.66)">
      <tspan y="221.36" x="67.37" font-size="4.057">API supports built-in and user-defined tags.</tspan>
    </text>
  </g>
  <g font-size="4.938" letter-spacing="0" word-spacing="0" fill="#333" stroke-width=".265">
    <text y="231.68" x="10.853" style="line-height:23.99999946%" font-weight="600" transform="matrix(.99992 0 0 1.00008 0 -204.66)">
      <tspan y="231.68" x="10.853" font-size="4.057" fill="#4d4d4d">Preferred serialization</tspan>
    </text>
    <text style="line-height:23.99999946%" x="67.37" y="231.68" font-weight="400" transform="matrix(.99992 0 0 1.00008 0 -204.66)">
      <tspan x="67.37" y="231.68" font-size="4.057">Integers encode to fewest bytes. Optional float64 <tspan fill="#00a000">→ </tspan>float32 <tspan fill="#00a000">→ </tspan>float16 if value fits.</tspan>
    </text>
  </g>
  <g font-size="4.938" letter-spacing="0" word-spacing="0" fill="#333" stroke-width=".265">
    <text style="line-height:23.99999946%" x="10.853" y="242.111" font-weight="600" transform="matrix(.99992 0 0 1.00008 0 -204.66)">
      <tspan x="10.853" y="242.111" font-size="4.057" fill="#4d4d4d">Map key sorting</tspan>
    </text>
    <text y="242.111" x="67.37" style="line-height:23.99999946%" font-weight="400" transform="matrix(.99992 0 0 1.00008 0 -204.66)">
      <tspan y="242.111" x="67.37" font-size="4.057">Unsorted, length-first (Canonical CBOR), and bytewise-lexicographic (CTAP2).</tspan>
    </text>
  </g>
  <g font-size="4.938" letter-spacing="0" word-spacing="0" fill="#333" stroke-width=".265">
    <text y="262.634" x="10.822" style="line-height:23.99999946%" font-weight="600" transform="matrix(.99992 0 0 1.00008 0 -204.66)">
      <tspan y="262.634" x="10.822" font-size="4.057" fill="#4d4d4d">Indefinite length data</tspan>
    </text>
    <text style="line-height:23.99999946%" x="67.37" y="262.634" font-weight="400" transform="matrix(.99992 0 0 1.00008 0 -204.66)">
      <tspan x="67.37" y="262.634" font-size="4.057">Option to allow/forbid for encoding and decoding.</tspan>
    </text>
  </g>
  <g font-size="4.938" letter-spacing="0" word-spacing="0" stroke-width=".265">
    <text style="line-height:23.99999946%" x="11.055" y="272.976" font-weight="600" fill="#4d4d4d" transform="matrix(.99992 0 0 1.00008 0 -204.66)">
      <tspan x="11.055" y="272.976" font-size="4.057">Well-formedness checks</tspan>
    </text>
    <text y="272.976" x="67.37" style="line-height:23.99999946%" font-weight="400" fill="#333" transform="matrix(.99992 0 0 1.00008 0 -204.66)">
      <tspan y="272.976" x="67.37" font-size="4.057">Always checked and enforced.</tspan>
    </text>
  </g>
  <g font-size="4.938" letter-spacing="0" word-spacing="0" stroke-width=".265">
    <text y="283.293" x="10.853" style="line-height:23.99999946%" font-weight="600" fill="#4d4d4d" transform="matrix(.99992 0 0 1.00008 0 -204.66)">
      <tspan y="283.293" x="10.853" font-size="4.057">Basic validity checks</tspan>
    </text>
    <text style="line-height:23.99999946%" x="67.37" y="283.293" font-weight="400" fill="#333" transform="matrix(.99992 0 0 1.00008 0 -204.66)">
      <tspan x="67.37" y="283.293" font-size="4.057">Check UTF-8 validity and optionally check duplicate map keys.</tspan>
    </text>
  </g>
  <g font-size="4.938" letter-spacing="0" word-spacing="0" stroke-width=".265">
    <text style="line-height:23.99999946%" x="11.005" y="293.701" font-weight="600" fill="#4d4d4d" transform="matrix(.99992 0 0 1.00008 0 -204.66)">
      <tspan x="11.005" y="293.701" font-size="4.057">Security considerations</tspan>
    </text>
    <text y="293.701" x="67.37" style="line-height:23.99999946%" font-weight="400" fill="#333" transform="matrix(.99992 0 0 1.00008 0 -204.66)">
      <tspan y="293.701" x="67.37" font-size="4.057">Prevent integer overflow and resource exhaustion (RFC 7049 Section 8).</tspan>
    </text>
  </g>
  <g font-size="4.938" letter-spacing="0" word-spacing="0" fill="#333" stroke-width=".265">
    <text style="line-height:23.99999946%" x="10.853" y="252.316" font-weight="600" transform="matrix(.99992 0 0 1.00008 0 -204.66)">
      <tspan x="10.853" y="252.316" font-size="4.057" fill="#4d4d4d">Duplicate map keys</tspan>
    </text>
    <text y="252.316" x="67.37" style="line-height:23.99999946%" font-weight="400" transform="matrix(.99992 0 0 1.00008 0 -204.66)">
      <tspan y="252.316" x="67.37" font-size="4.057">Always forbid for encoding and option to allow/forbid for decoding.</tspan>
    </text>
  </g>
  <path d="M3.238 15.448q.108 0 .163.176.11.33.157.33.036 0 .075-.054.774-1.138 1.432-1.62.279-.205.543-.205.35 0 .422.022.03.008.03.07 0 .049-.063.123-1.772 2.034-2.11 2.646-.117.21-.536.21-.137 0-.289-.072-.063-.033-.22-.422-.199-.49-.199-.86 0-.135.193-.223.265-.121.397-.121zm0 10.319q.108 0 .163.176.11.33.157.33.036 0 .075-.054.774-1.139 1.432-1.621.279-.204.543-.204.35 0 .422.022.03.008.03.069 0 .05-.063.124-1.772 2.034-2.11 2.646-.117.21-.536.21-.137 0-.289-.072-.063-.034-.22-.422-.199-.49-.199-.86 0-.135.193-.223.265-.121.397-.121zm0 10.318q.108 0 .163.177.11.33.157.33.036 0 .075-.055.774-1.138 1.432-1.62.279-.204.543-.204.35 0 .422.022.03.008.03.069 0 .05-.063.124-1.772 2.034-2.11 2.646-.117.209-.536.209-.137 0-.289-.072-.063-.033-.22-.421-.199-.49-.199-.86 0-.135.193-.223.265-.122.397-.122zm0 10.319q.108 0 .163.176.11.331.157.331.036 0 .075-.055.774-1.138 1.432-1.62.279-.204.543-.204.35 0 .422.022.03.008.03.068 0 .05-.063.124-1.772 2.034-2.11 2.646-.117.21-.536.21-.137 0-.289-.072-.063-.033-.22-.422-.199-.49-.199-.86 0-.135.193-.223.265-.121.397-.121zm0 10.319q.108 0 .163.176.11.33.157.33.036 0 .075-.054.774-1.138 1.432-1.62.279-.205.543-.205.35 0 .422.022.03.008.03.07 0 .049-.063.123-1.772 2.034-2.11 2.646-.117.21-.536.21-.137 0-.289-.072-.063-.033-.22-.422-.199-.49-.199-.86 0-.135.193-.223.265-.121.397-.121zm0 10.319q.108 0 .163.176.11.33.157.33.036 0 .075-.054.774-1.139 1.432-1.621.279-.204.543-.204.35 0 .422.022.03.008.03.069 0 .05-.063.124-1.772 2.034-2.11 2.646-.117.21-.536.21-.137 0-.289-.072-.063-.034-.22-.422-.199-.49-.199-.86 0-.135.193-.223.265-.122.397-.122zm0 10.318q.108 0 .163.177.11.33.157.33.036 0 .075-.055.774-1.138 1.432-1.62.279-.204.543-.204.35 0 .422.022.03.008.03.069 0 .05-.063.124-1.772 2.034-2.11 2.646-.117.209-.536.209-.137 0-.289-.072-.063-.033-.22-.421-.199-.49-.199-.86 0-.135.193-.223.265-.122.397-.122zm0 10.319q.108 0 .163.176.11.331.157.331.036 0 .075-.055.774-1.138 1.432-1.62.279-.204.543-.204.35 0 .422.022.03.008.03.068 0 .05-.063.124-1.772 2.034-2.11 2.646-.117.21-.536.21-.137 0-.289-.072-.063-.033-.22-.422-.199-.49-.199-.86 0-.135.193-.223.265-.121.397-.121z" font-size="5.644" fill="green" aria-label="✔" font-weight="400" letter-spacing="0" word-spacing="0" stroke-width=".265"/>
</svg>
