<svg xmlns="http://www.w3.org/2000/svg" width="638" height="177" viewBox="0 0 168.804 46.831" font-family="Roboto,Arial,Liberation Sans,Arimo,Oxygen,Cantarell,Helvetica,sans-serif">
  <path fill="#fffffc" d="M.02 30.956h168.804v15.875H.02z"/>
  <path fill="#eef2ff" stroke="#e0e0e0" stroke-width=".264" stroke-linejoin="round" d="M.132 2.25h168.54v10.318H.132z"/>
  <path fill="#fff" stroke="#e0e0e0" stroke-width=".264" stroke-linejoin="round" d="M.132 12.567h168.54v10.32H.132z"/>
  <path fill="#f6f8fa" stroke="#e0e0e0" stroke-width=".264" stroke-linejoin="round" d="M.132 22.886h168.539v10.32H.132z"/>
  <path fill="#e0e0e0" stroke="#e0e0e0" stroke-width=".023" stroke-linejoin="round" d="M87.079 2.467h.242V33.4h-.242z"/>
  <text y="259.02" x="19.791" style="line-height:23.99999946%" transform="translate(0 -250.169)" font-weight="700" font-size="4.939" letter-spacing="0" word-spacing="0" stroke-width=".265">
    <tspan y="259.02" x="19.791" font-size="4.233" fill="#333">fxamacker/cbor 2.2</tspan>
  </text>
  <text style="line-height:23.99999946%" x="89.986" y="259.02" transform="translate(0 -250.169)" font-weight="700" font-size="4.939" letter-spacing="0" word-spacing="0" stroke-width=".265">
    <tspan x="89.986" y="259.02" font-size="4.233" fill="#333">ugorji/go (all versions 1.1.0 - 1.1.7)</tspan>
  </text>
  <path fill="#e0e0e0" stroke="#e0e0e0" stroke-width=".023" stroke-linejoin="round" d="M16.171 2.466h.242V33.4h-.242z"/>
  <text y="269.318" x="83.364" style="line-height:23.99999946%;text-align:end" transform="translate(0 -250.169)" font-weight="400" font-size="3.881" letter-spacing="0" word-spacing="0" text-anchor="end" fill="#333" stroke-width=".265">
    <tspan style="text-align:end" y="269.318" x="83.364">1 allocs/op</tspan>
  </text>
  <text style="line-height:23.99999946%" x="97.708" y="269.318" transform="translate(0 -250.169)" font-weight="700" font-size="3.881" letter-spacing="0" word-spacing="0" fill="#333" stroke-width=".265">
    <tspan x="97.708" y="269.318" fill="maroon">fatal error: out of memory</tspan>
  </text>
  <text transform="translate(0 -250.169)" style="line-height:23.99999946%" x="2.357" y="269.318" font-weight="600" font-size="3.881" letter-spacing="0" word-spacing="0" fill="#333" stroke-width=".265">
    <tspan x="2.357" y="269.318" font-weight="700">Bad A</tspan>
  </text>
  <text transform="translate(0 -250.169)" style="line-height:23.99999946%;text-align:end" x="38.956" y="269.318" font-weight="400" font-size="3.881" letter-spacing="0" word-spacing="0" text-anchor="end" fill="#333" stroke-width=".265">
    <tspan x="38.956" y="269.318" style="text-align:end">59.8 ns/op</tspan>
  </text>
  <text transform="translate(0 -250.169)" style="line-height:23.99999946%;text-align:end" x="59.621" y="269.318" font-weight="400" font-size="3.881" letter-spacing="0" word-spacing="0" text-anchor="end" fill="#333" stroke-width=".265">
    <tspan x="59.621" y="269.318" style="text-align:end">32 B/op</tspan>
  </text>
  <text y="279.651" x="97.708" style="line-height:23.99999946%" transform="translate(0 -250.169)" font-weight="700" font-size="3.881" letter-spacing="0" word-spacing="0" fill="#333" stroke-width=".265">
    <tspan y="279.651" x="97.708" fill="maroon">fatal error: out of memory</tspan>
  </text>
  <text transform="translate(0 -250.169)" y="279.651" x="2.357" style="line-height:23.99999946%" font-weight="600" font-size="3.881" letter-spacing="0" word-spacing="0" fill="#333" stroke-width=".265">
    <tspan y="279.651" x="2.357" font-weight="700">Bad B</tspan>
  </text>
  <text transform="translate(0 -250.169)" style="line-height:23.99999946%;text-align:end" x="83.364" y="279.651" font-weight="400" font-size="3.881" letter-spacing="0" word-spacing="0" text-anchor="end" fill="#333" stroke-width=".265">
    <tspan x="83.364" y="279.651" style="text-align:end">3 allocs/op</tspan>
  </text>
  <text y="279.651" x="38.956" style="line-height:23.99999946%;text-align:end" transform="translate(0 -250.169)" font-weight="400" font-size="3.881" letter-spacing="0" word-spacing="0" text-anchor="end" fill="#333" stroke-width=".265">
    <tspan style="text-align:end" y="279.651" x="38.956">149.0 ns/op</tspan>
  </text>
  <text y="279.651" x="59.621" style="line-height:23.99999946%;text-align:end" transform="translate(0 -250.169)" font-weight="400" font-size="3.881" letter-spacing="0" word-spacing="0" text-anchor="end" fill="#333" stroke-width=".265">
    <tspan style="text-align:end" y="279.651" x="59.621">128 B/op</tspan>
  </text>
  <path d="M92.653 15.376c-.005 0-.01 0-.014.002a.303.303 0 00-.261.15l-1.048 1.815-1.048 1.816a.308.308 0 00.263.456h4.193c.23 0 .378-.258.263-.456l-1.048-1.816-1.048-1.815a.304.304 0 00-.234-.15l-.015-.002a.06.06 0 00-.003 0z" style="solid-color:#000" color="#000"/>
  <path style="solid-color:#000" d="M92.653 15.443a.238.238 0 00-.217.118l-1.048 1.816-1.048 1.815a.24.24 0 00.205.356h4.193c.18 0 .295-.2.205-.356l-1.048-1.815-1.048-1.816a.237.237 0 00-.194-.118z" color="#000" fill="#fff"/>
  <path style="solid-color:#000" d="M92.65 15.51a.17.17 0 00-.156.085l-1.048 1.815-1.048 1.815a.17.17 0 00.147.256h4.193a.17.17 0 00.147-.256l-1.048-1.815-1.048-1.815a.17.17 0 00-.14-.085z" color="#000"/>
  <path d="M94.738 19.31h-4.193l1.048-1.815 1.049-1.815 1.048 1.815z" fill="#fc0"/>
  <g transform="translate(90.007 15.133) scale(.03354)">
    <circle r="8.817" cy="111.117" cx="78.564"/>
    <path d="M78.564 42.955a8.817 8.817 0 00-8.818 8.816l3.156 37.461a5.662 5.662 0 0011.325 0l3.154-37.46a8.817 8.817 0 00-8.817-8.817z"/>
  </g>
  <path style="solid-color:#000" d="M92.653 25.662c-.005 0-.01 0-.014.002a.303.303 0 00-.261.15l-1.048 1.815-1.048 1.816a.308.308 0 00.263.456h4.193c.23 0 .378-.258.263-.456l-1.048-1.816-1.048-1.815a.304.304 0 00-.234-.15l-.015-.002a.06.06 0 00-.003 0z" color="#000"/>
  <path d="M92.653 25.729a.238.238 0 00-.217.118l-1.048 1.816-1.048 1.815a.24.24 0 00.205.356h4.193c.18 0 .295-.2.205-.356l-1.048-1.815-1.048-1.816a.237.237 0 00-.194-.118z" style="solid-color:#000" color="#000" fill="#fff"/>
  <path d="M92.65 25.796a.17.17 0 00-.156.085l-1.048 1.815-1.048 1.815a.17.17 0 00.147.256h4.193a.17.17 0 00.147-.256l-1.048-1.815-1.048-1.815a.17.17 0 00-.14-.085z" style="solid-color:#000" color="#000"/>
  <path d="M94.738 29.597h-4.193l1.048-1.816 1.049-1.815 1.048 1.815z" fill="#fc0"/>
  <g transform="translate(90.007 25.42) scale(.03354)">
    <circle cx="78.564" cy="111.117" r="8.817"/>
    <path d="M78.564 42.955a8.817 8.817 0 00-8.818 8.816l3.156 37.461a5.662 5.662 0 0011.325 0l3.154-37.46a8.817 8.817 0 00-8.817-8.817z"/>
  </g>
  <path d="M6.102 38.367v-1.99l-.481.48-.248-.247.812-.813h.186l.813.813-.249.248-.481-.482v1.64h1.15v.35z" aria-label="↴" font-weight="400" font-size="4.233" letter-spacing="0" word-spacing="0" fill="green"/>
  <text y="289.58" x="8.947" style="line-height:100%" font-weight="400" font-size="4.233" letter-spacing="0" word-spacing="0" stroke-width=".265" transform="translate(0 -250.169)">
    <tspan y="289.58" x="8.947" font-size="3.881" fill="#4d4d4d">Only 1 decode of &lt; 10 bytes was needed to exhaust memory and produce fatal error.</tspan>
  </text>
  <text style="line-height:100%" x="8.947" y="295.93" font-weight="400" font-size="4.233" letter-spacing="0" word-spacing="0" stroke-width=".265" transform="translate(0 -250.169)">
    <tspan x="8.947" y="295.93" font-size="3.881" fill="#4d4d4d">More info at https://github.com/fxamacker/cbor/issues/208</tspan>
  </text>
</svg>
