<svg xmlns="http://www.w3.org/2000/svg" width="840" height="375" viewBox="0 0 222.25 99.219">
  <path fill="#eef2ff" stroke="#e0e0e0" stroke-width=".265" stroke-linejoin="round" d="M.132.133h221.985V10.45H.132z"/>
  <path fill="#fff" stroke="#e0e0e0" stroke-width=".265" stroke-linejoin="round" d="M.132 37.439h221.985v10.318H.132z"/>
  <path fill="#f6f8fa" stroke="#e0e0e0" stroke-width=".265" stroke-linejoin="round" d="M.132 47.493h221.985V57.81H.132z"/>
  <path fill="#fff" stroke="#e0e0e0" stroke-width=".265" stroke-linejoin="round" d="M.132 57.812h221.985V68.13H.132z"/>
  <path fill="#f6f8fa" stroke="#e0e0e0" stroke-width=".265" stroke-linejoin="round" d="M.132 68.148h221.985v10.318H.132z"/>
  <path fill="#fff" stroke="#e0e0e0" stroke-width=".265" stroke-linejoin="round" d="M.132 78.449h221.985v10.318H.132z"/>
  <path fill="#f6f8fa" stroke="#e0e0e0" stroke-width=".265" stroke-linejoin="round" d="M.132 88.768h221.986v10.319H.132z"/>
  <path fill="#fff" stroke="#e0e0e0" stroke-width=".263" stroke-linejoin="round" d="M.132 10.45h221.987v17.2H.132z"/>
  <path fill="#f6f8fa" stroke="#e0e0e0" stroke-width=".265" stroke-linejoin="round" d="M.132 27.385h221.985v10.318H.132z"/>
  <text y="204.877" x="6.763" style="line-height:23.99999946%" transform="matrix(1.0001 0 0 .9999 0 -197.781)" font-weight="700" font-size="4.938" font-family="SF Pro Text,Helvetica Neue,Segoe UI,Roboto,Noto Sans,Droid Sans,Liberation Sans,Arial,sans-serif" letter-spacing="0" word-spacing="0" fill="#333" stroke-width=".265">
    <tspan y="204.877" x="6.763" font-size="4.233">EncOptions</tspan>
  </text>
  <text y="218.271" x="4.005" style="line-height:23.99999946%" transform="matrix(1.0001 0 0 .9999 0 -197.781)" font-weight="600" font-size="4.938" font-family="SF Pro Text,Helvetica Neue,Segoe UI,Roboto,Noto Sans,Droid Sans,Liberation Sans,Arial,sans-serif" letter-spacing="0" word-spacing="0" fill="#333" stroke-width=".265">
    <tspan y="218.271" x="4.005" font-size="4.145" fill="#4d4d4d">Sort</tspan>
  </text>
  <text style="line-height:23.99999946%" x="80.69" y="204.877" transform="matrix(1.0001 0 0 .9999 0 -197.781)" font-weight="700" font-size="4.938" font-family="SF Pro Text,Helvetica Neue,Segoe UI,Roboto,Noto Sans,Droid Sans,Liberation Sans,Arial,sans-serif" letter-spacing="0" word-spacing="0" fill="#333" stroke-width=".265">
    <tspan x="80.69" y="204.877" font-size="4.233">Available Settings (defaults in bold+green)</tspan>
  </text>
  <path fill="#e0e0e0" stroke="#e0e0e0" stroke-width=".04" stroke-linejoin="round" d="M37.856.119h.224V99.15h-.224z"/>
  <text transform="matrix(1.0001 0 0 .9999 0 -197.781)" style="line-height:23.99999946%" x="42.594" y="214.567" font-weight="400" font-size="4.938" font-family="SF Pro Text,Helvetica Neue,Segoe UI,Roboto,Noto Sans,Droid Sans,Liberation Sans,Arial,sans-serif" letter-spacing="0" word-spacing="0" fill="#333" stroke-width=".265">
    <tspan x="42.594" y="214.567" font-weight="700" font-size="4.145"><tspan fill="green">SortNone</tspan><tspan font-weight="400">, SortLengthFirst, SortBytewiseLexical</tspan></tspan>
  </text>
  <g font-size="4.938" font-family="SF Pro Text,Helvetica Neue,Segoe UI,Roboto,Noto Sans,Droid Sans,Liberation Sans,Arial,sans-serif" letter-spacing="0" word-spacing="0" fill="#333" stroke-width=".265">
    <text y="231.901" x="3.91" style="line-height:23.99999946%" font-weight="600" transform="matrix(1.0001 0 0 .9999 0 -198.258)">
      <tspan y="231.901" x="3.91" font-size="4.145" fill="#4d4d4d">Time</tspan>
    </text>
    <text style="line-height:23.99999946%" x="42.594" y="231.901" font-weight="700" transform="matrix(1.0001 0 0 .9999 0 -198.258)">
      <tspan x="42.594" y="231.901" font-size="4.145"><tspan fill="green">TimeUnix</tspan><tspan font-weight="400">, TimeUnixMicro, TimeUnixDynamic, TimeRFC3339, TimeRFC3339Nano</tspan></tspan>
    </text>
  </g>
  <g font-size="4.938" font-family="SF Pro Text,Helvetica Neue,Segoe UI,Roboto,Noto Sans,Droid Sans,Liberation Sans,Arial,sans-serif" letter-spacing="0" word-spacing="0" fill="#333" stroke-width=".265">
    <text style="line-height:23.99999946%" x="3.91" y="241.477" font-weight="600" transform="matrix(1.0001 0 0 .9999 0 -197.778)">
      <tspan x="3.91" y="241.477" font-size="4.145" fill="#4d4d4d">TimeTag</tspan>
    </text>
    <text y="241.477" x="42.594" style="line-height:23.99999946%" font-weight="400" transform="matrix(1.0001 0 0 .9999 0 -197.778)">
      <tspan y="241.477" x="42.594" font-size="4.145"><tspan font-weight="700" fill="green">EncTagNone</tspan>, EncTagRequired</tspan>
    </text>
  </g>
  <g font-size="4.938" font-family="SF Pro Text,Helvetica Neue,Segoe UI,Roboto,Noto Sans,Droid Sans,Liberation Sans,Arial,sans-serif" letter-spacing="0" word-spacing="0" fill="#333" stroke-width=".265">
    <text y="262.363" x="3.88" style="line-height:23.99999946%" font-weight="600" transform="matrix(1.0001 0 0 .9999 0 -198.048)">
      <tspan y="262.363" x="3.88" font-size="4.145" fill="#4d4d4d">InfConvert</tspan>
    </text>
    <text style="line-height:23.99999946%" x="42.594" y="262.363" font-weight="400" transform="matrix(1.0001 0 0 .9999 0 -198.048)">
      <tspan x="42.594" y="262.363" font-size="4.145"><tspan font-weight="700" fill="green">InfConvertFloat16</tspan>, InfConvertNone</tspan>
    </text>
  </g>
  <g font-size="4.938" font-family="SF Pro Text,Helvetica Neue,Segoe UI,Roboto,Noto Sans,Droid Sans,Liberation Sans,Arial,sans-serif" letter-spacing="0" word-spacing="0" stroke-width=".265">
    <text style="line-height:23.99999946%" x="4.112" y="272.596" font-weight="600" fill="#4d4d4d" transform="matrix(1.0001 0 0 .9999 0 -198.185)">
      <tspan x="4.112" y="272.596" font-size="4.145">NaNConvert</tspan>
    </text>
    <text y="272.596" x="42.594" style="line-height:23.99999946%" font-weight="400" fill="#333" transform="matrix(1.0001 0 0 .9999 0 -198.185)">
      <tspan y="272.596" x="42.594" font-size="4.145"><tspan font-weight="700" fill="green">NaNConvert7e00</tspan>, NaNConvertNone, NaNConvertQuiet, NaNConvertPreserveSignal</tspan>
    </text>
  </g>
  <g font-size="4.938" font-family="SF Pro Text,Helvetica Neue,Segoe UI,Roboto,Noto Sans,Droid Sans,Liberation Sans,Arial,sans-serif" letter-spacing="0" word-spacing="0" stroke-width=".265">
    <text y="282.521" x="3.91" style="line-height:23.99999946%" font-weight="600" fill="#4d4d4d" transform="matrix(1.0001 0 0 .9999 0 -197.797)">
      <tspan y="282.521" x="3.91" font-size="4.145">IndefLength</tspan>
    </text>
    <text style="line-height:23.99999946%" x="42.594" y="282.521" font-weight="400" fill="#333" transform="matrix(1.0001 0 0 .9999 0 -197.797)">
      <tspan x="42.594" y="282.521" font-size="4.145"><tspan font-weight="700" fill="green">IndefLengthAllowed</tspan>, IndefLengthForbidden</tspan>
    </text>
  </g>
  <g font-size="4.938" font-family="SF Pro Text,Helvetica Neue,Segoe UI,Roboto,Noto Sans,Droid Sans,Liberation Sans,Arial,sans-serif" letter-spacing="0" word-spacing="0" stroke-width=".265">
    <text style="line-height:23.99999946%" x="4.062" y="293.164" font-weight="600" fill="#4d4d4d" transform="matrix(1.0001 0 0 .9999 0 -198.131)">
      <tspan x="4.062" y="293.164" font-size="4.145">TagsMd</tspan>
    </text>
    <text y="293.164" x="42.594" style="line-height:23.99999946%" font-weight="400" fill="#333" transform="matrix(1.0001 0 0 .9999 0 -198.131)">
      <tspan y="293.164" x="42.594" font-size="4.145"><tspan font-weight="700" fill="green">TagsAllowed</tspan>, TagsForbidden</tspan>
    </text>
  </g>
  <g font-size="4.938" font-family="SF Pro Text,Helvetica Neue,Segoe UI,Roboto,Noto Sans,Droid Sans,Liberation Sans,Arial,sans-serif" letter-spacing="0" word-spacing="0" fill="#333" stroke-width=".265">
    <text style="line-height:23.99999946%" x="3.91" y="252.034" font-weight="600" transform="matrix(1.0001 0 0 .9999 0 -198.05)">
      <tspan x="3.91" y="252.034" font-size="4.145" fill="#4d4d4d">ShortestFloat</tspan>
    </text>
    <text y="252.034" x="42.594" style="line-height:23.99999946%" font-weight="400" transform="matrix(1.0001 0 0 .9999 0 -198.05)">
      <tspan y="252.034" x="42.594" font-size="4.145"><tspan font-weight="700" fill="green">ShortestFloatNone</tspan>, ShortestFloat16</tspan>
    </text>
  </g>
  <text y="221.71" x="42.594" style="line-height:23.99999946%" transform="matrix(1.0001 0 0 .9999 0 -197.781)" font-weight="400" font-size="4.938" font-family="SF Pro Text,Helvetica Neue,Segoe UI,Roboto,Noto Sans,Droid Sans,Liberation Sans,Arial,sans-serif" letter-spacing="0" word-spacing="0" fill="#333" stroke-width=".265">
    <tspan y="221.71" x="42.594" font-size="4.145">Aliases: SortCanonical, SortCTAP2, SortCoreDeterministic</tspan>
  </text>
</svg>
