<svg xmlns="http://www.w3.org/2000/svg" width="746" height="320" viewBox="0 0 197.379 84.667">
  <defs>
    <marker orient="auto" refY="0" refX="0" id="c" overflow="visible">
      <path d="M10 0l4-4L0 0l14 4-4-4z" fill-rule="evenodd" stroke="green" stroke-width=".8pt" fill="green"/>
    </marker>
    <marker id="b" refX="0" refY="0" orient="auto" overflow="visible">
      <path d="M10 0l4-4L0 0l14 4-4-4z" fill-rule="evenodd" stroke="green" stroke-width=".8pt" fill="green"/>
    </marker>
    <marker orient="auto" refY="0" refX="0" id="a" overflow="visible">
      <path d="M10 0l4-4L0 0l14 4-4-4z" fill-rule="evenodd" stroke="green" stroke-width=".8pt" fill="green"/>
    </marker>
    <style>
      .sans{font-family:&quot;SF Pro Text&quot;,Inter,&quot;Segoe UI&quot;,Roboto,&quot;Noto Sans&quot;,&quot;Droid Sans&quot;,&quot;Liberation Sans&quot;,Arimo,Arial,Oxygen,Ubuntu,Cantarell,sans-serif}.mono{font-family:&quot;SF Mono&quot;,SFMono-Regular,Consolas,&quot;Liberation Mono&quot;,&quot;Source Code Pro&quot;,&quot;DejaVu Sans Mono&quot;,&quot;Roboto Mono&quot;,Menlo,monospace}
    </style>
  </defs>
  <text style="line-height:125%" y="216.093" font-weight="400" font-size="4.939" class="sans" letter-spacing="0" word-spacing="0" stroke-width=".265" transform="translate(0 -212.333)">
    <tspan x="0" y="216.093" style="line-height:100%" font-size="3.881" class="mono" fill="green">// Example: CBOR Web Token (RFC 8392)</tspan>
  </text>
  <text y="221.384" style="line-height:125%" font-weight="400" font-size="4.939" class="sans" letter-spacing="0" word-spacing="0" stroke-width=".265" transform="translate(0 -212.333)">
    <tspan style="line-height:100%" y="221.384" x="0" font-size="3.881" class="mono"><tspan fill="#00f">type</tspan> <tspan fill="#333">coseHeader</tspan> <tspan fill="#00f">struct</tspan> {</tspan>
  </text>
  <text style="line-height:125%" x="32.279" y="226.676" font-weight="400" font-size="4.939" class="sans" letter-spacing="0" word-spacing="0" stroke-width=".265" transform="translate(0 -212.333)">
    <tspan x="32.279" y="226.676" style="line-height:100%" font-size="3.881" class="mono"><tspan fill="maroon">`cbor:&quot;1,keyasint,omitempty&quot;`</tspan></tspan>
  </text>
  <text y="231.968" x="32.279" style="line-height:125%" font-weight="400" font-size="4.939" class="sans" letter-spacing="0" word-spacing="0" stroke-width=".265" transform="translate(0 -212.333)">
    <tspan style="line-height:100%" y="231.968" x="32.279" font-size="3.881" class="mono"><tspan fill="maroon">`cbor:&quot;4,keyasint,omitempty&quot;`</tspan></tspan>
  </text>
  <text style="line-height:125%" y="237.259" font-weight="400" font-size="4.939" class="sans" letter-spacing="0" word-spacing="0" stroke-width=".265" transform="translate(0 -212.333)">
    <tspan x="0" y="237.259" style="line-height:100%" font-size="3.881" class="mono">}</tspan>
  </text>
  <text y="245.197" style="line-height:125%" font-weight="400" font-size="4.939" class="sans" letter-spacing="0" word-spacing="0" stroke-width=".265" transform="translate(0 -212.333)">
    <tspan style="line-height:100%" y="245.197" x="0" font-size="3.881" class="mono"><tspan fill="#00f">type</tspan> <tspan fill="#333">signedCWT</tspan> <tspan fill="#00f">struct</tspan> {</tspan>
  </text>
  <text style="line-height:125%" x="34.925" y="250.488" font-weight="400" font-size="4.939" class="sans" letter-spacing="0" word-spacing="0" stroke-width=".265" transform="translate(0 -212.333)">
    <tspan x="34.925" y="250.488" style="line-height:100%" font-size="3.881" class="mono"><tspan fill="#00f">struct</tspan>{} <tspan fill="maroon">`cbor:&quot;,toarray&quot;`</tspan></tspan>
  </text>
  <text y="255.78" x="34.925" style="line-height:125%" font-weight="400" font-size="4.939" class="sans" letter-spacing="0" word-spacing="0" stroke-width=".265" transform="translate(0 -212.333)">
    <tspan style="line-height:100%" y="255.78" x="34.925" font-size="3.881" class="mono">[]<tspan fill="#00f">byte</tspan></tspan>
  </text>
  <text style="line-height:125%" x="6.879" y="261.071" font-weight="400" font-size="4.939" class="sans" letter-spacing="0" word-spacing="0" stroke-width=".265" transform="translate(0 -212.333)">
    <tspan x="6.879" y="261.071" style="line-height:100%" font-size="3.881" class="mono" fill="#333">Unprotected coseHeader</tspan>
  </text>
  <text y="266.363" x="34.925" style="line-height:125%" font-weight="400" font-size="4.939" class="sans" letter-spacing="0" word-spacing="0" stroke-width=".265" transform="translate(0 -212.333)">
    <tspan style="line-height:100%" y="266.363" x="34.925" font-size="3.881" class="mono">[]<tspan fill="#00f">byte</tspan></tspan>
  </text>
  <text style="line-height:125%" y="276.946" font-weight="400" font-size="4.939" class="sans" letter-spacing="0" word-spacing="0" stroke-width=".265" transform="translate(0 -212.333)">
    <tspan x="0" y="276.946" style="line-height:100%" font-size="3.881" class="mono">}</tspan>
  </text>
  <text y="285.413" style="line-height:125%" font-weight="400" font-size="4.939" class="sans" letter-spacing="0" word-spacing="0" stroke-width=".265" transform="translate(0 -212.333)">
    <tspan style="line-height:100%" y="285.413" x="0" font-size="3.881" class="mono" fill="green">// Decode []byte into signedCWT struct</tspan>
  </text>
  <text style="line-height:125%" y="290.704" font-weight="400" font-size="4.939" class="sans" letter-spacing="0" word-spacing="0" stroke-width=".265" transform="translate(0 -212.333)">
    <tspan x="0" y="290.704" style="line-height:100%" font-size="3.881" class="mono" fill="#333"><tspan fill="#00f">var</tspan> v signedCWT</tspan>
  </text>
  <text style="line-height:125%" y="295.996" font-weight="400" font-size="4.939" class="sans" letter-spacing="0" word-spacing="0" stroke-width=".265" transform="translate(0 -212.333)">
    <tspan x="0" y="295.996" style="line-height:100%" font-size="3.881" class="mono" fill="#333">err := cbor.Unmarshal(t, &amp;v)</tspan>
  </text>
  <text y="235.393" x="118.87" style="line-height:23.99999946%" font-weight="400" font-size="4.939" class="sans" letter-spacing="0" word-spacing="0" fill="#4d4d4d" stroke-width=".265" transform="translate(0 -212.333)">
    <tspan y="235.393" x="118.87" font-size="4.233" class="sans">elements of CBOR map with int keys.</tspan>
  </text>
  <text y="250.834" x="119.038" style="line-height:23.99999946%" font-weight="400" font-size="4.939" class="sans" letter-spacing="0" word-spacing="0" fill="#4d4d4d" stroke-width=".265" transform="translate(0 -212.333)">
    <tspan y="250.834" x="119.038"><tspan font-weight="700" class="sans">toarray</tspan><tspan class="sans"> </tspan><tspan font-size="4.233" class="sans">translates struct fields to</tspan></tspan>
  </text>
  <text style="line-height:23.99999946%" x="118.87" y="257.618" font-weight="400" font-size="4.939" class="sans" letter-spacing="0" word-spacing="0" fill="#4d4d4d" stroke-width=".265" transform="translate(0 -212.333)">
    <tspan x="118.87" y="257.618" font-size="4.233" class="sans">elements of CBOR arrays.</tspan>
  </text>
  <text style="line-height:23.99999946%" x="119.043" y="289.368" font-weight="400" font-size="4.939" class="sans" letter-spacing="0" word-spacing="0" fill="#4d4d4d" stroke-width=".265" transform="translate(0 -212.333)">
    <tspan x="119.043" y="289.368"><tspan font-weight="700" class="sans">API</tspan><tspan class="sans"> </tspan><tspan font-size="4.233" class="sans">uses same function signatures</tspan></tspan>
  </text>
  <text y="295.983" x="118.81" style="line-height:23.99999946%" font-weight="400" font-size="4.939" class="sans" letter-spacing="0" word-spacing="0" fill="#4d4d4d" stroke-width=".265" transform="translate(0 -212.333)">
    <tspan y="295.983" x="118.81" font-size="4.233" class="sans">as Go&apos;s json/encoding package.</tspan>
  </text>
  <text style="line-height:125%" x="34.925" y="271.655" font-weight="400" font-size="4.939" class="sans" letter-spacing="0" word-spacing="0" stroke-width=".265" transform="translate(0 -212.333)">
    <tspan x="34.925" y="271.655" style="line-height:100%" font-size="3.881" class="mono">[]<tspan fill="#00f">byte</tspan></tspan>
  </text>
  <text y="216.093" x="118.936" style="line-height:125%" font-weight="400" font-size="4.939" class="sans" letter-spacing="0" word-spacing="0" stroke-width=".265" transform="translate(0 -212.333)">
    <tspan style="line-height:100%" y="216.093" x="118.936" font-size="4.233" class="sans" fill="green">fxamacker/cbor struct tags and API</tspan>
  </text>
  <text y="228.609" x="118.792" style="line-height:23.99999946%" font-weight="400" font-size="4.939" class="sans" letter-spacing="0" word-spacing="0" fill="#4d4d4d" stroke-width=".265" transform="translate(0 -212.333)">
    <tspan y="228.609" x="118.792"><tspan font-weight="700" class="sans">keyasint</tspan><tspan font-size="4.233" class="sans"> translates struct fields to</tspan></tspan>
  </text>
  <text y="226.676" x="6.879" style="line-height:125%" font-weight="400" font-size="4.939" class="sans" letter-spacing="0" word-spacing="0" stroke-width=".265" transform="translate(0 -212.333)">
    <tspan style="line-height:100%" y="226.676" x="6.879" font-size="3.881" class="mono"><tspan fill="#333">Alg</tspan> <tspan fill="#00f">int</tspan></tspan>
  </text>
  <text style="line-height:125%" x="6.879" y="231.968" font-weight="400" font-size="4.939" class="sans" letter-spacing="0" word-spacing="0" stroke-width=".265" transform="translate(0 -212.333)">
    <tspan x="6.879" y="231.968" style="line-height:100%" font-size="3.881" class="mono"><tspan fill="#333">Kid</tspan> []<tspan fill="#00f">byte</tspan></tspan>
  </text>
  <text y="250.488" x="6.879" style="line-height:125%" font-weight="400" font-size="4.939" class="sans" letter-spacing="0" word-spacing="0" stroke-width=".265" transform="translate(0 -212.333)">
    <tspan style="line-height:100%" y="250.488" x="6.879" font-size="3.881" class="mono">_</tspan>
  </text>
  <text style="line-height:125%" x="6.879" y="255.78" font-weight="400" font-size="4.939" class="sans" letter-spacing="0" word-spacing="0" stroke-width=".265" transform="translate(0 -212.333)">
    <tspan x="6.879" y="255.78" style="line-height:100%" font-size="3.881" class="mono"><tspan fill="#333">Protected</tspan></tspan>
  </text>
  <text style="line-height:125%" x="6.879" y="266.363" font-weight="400" font-size="4.939" class="sans" letter-spacing="0" word-spacing="0" stroke-width=".265" transform="translate(0 -212.333)">
    <tspan x="6.879" y="266.363" style="line-height:100%" font-size="3.881" class="mono">Payload</tspan>
  </text>
  <text y="271.655" x="6.879" style="line-height:125%" font-weight="400" font-size="4.939" class="sans" letter-spacing="0" word-spacing="0" stroke-width=".265" transform="translate(0 -212.333)">
    <tspan style="line-height:100%" y="271.655" x="6.879" font-size="3.881" class="mono"><tspan fill="#333">Signature</tspan></tspan>
  </text>
  <path d="M88.257 188.143h-9.071" transform="matrix(-.64243 0 0 1 165.515 -173.553)" fill="green" stroke="green" stroke-width=".33" marker-start="url(#a)"/>
  <path transform="matrix(-.64243 0 0 1 165.515 -151.213)" d="M88.257 188.143h-9.071" fill="green" stroke="green" stroke-width=".33" marker-start="url(#b)"/>
  <path d="M88.257 188.143h-9.071" transform="matrix(-.64243 0 0 1 165.515 -112.825)" fill="green" stroke="green" stroke-width=".33" marker-start="url(#c)"/>
  <text style="line-height:125%" x="118.76" y="269.525" font-weight="400" font-size="4.939" class="sans" letter-spacing="0" word-spacing="0" fill="#4d4d4d" stroke-width=".265" transform="translate(0 -212.333)">
    <tspan x="118.76" y="269.525" style="line-height:100%" font-size="4.233" class="sans">Enable options (if required) like</tspan>
  </text>
  <text y="276.139" x="118.76" style="line-height:125%" font-weight="400" font-size="4.939" class="sans" letter-spacing="0" word-spacing="0" fill="#4d4d4d" stroke-width=".265" transform="translate(0 -212.333)">
    <tspan style="line-height:100%" y="276.139" x="118.76" font-size="4.233" class="sans">detecting duplicate map keys.</tspan>
  </text>
  <g fill="green">
    <path d="M111.143 55.173a2.019 2.019 0 012.019 2.018 2.467 2.467 0 01-.404 1.329c-.089.165-.186.347-.29.565a2.624 2.624 0 00-.154.404c0 .036-.024.085-.036.12h-2.25c0-.035-.028-.084-.036-.12a2.624 2.624 0 00-.153-.404 11.67 11.67 0 00-.29-.565 2.467 2.467 0 01-.425-1.329 2.019 2.019 0 012.019-2.018m0-.404a2.423 2.423 0 00-2.423 2.422c0 .808.311 1.16.76 2.072.173.35.149.755.452.755h2.422c.303 0 .279-.404.457-.755.444-.913.755-1.264.755-2.072a2.423 2.423 0 00-2.423-2.422zm-.759 7.268a.828.828 0 00.759.403.828.828 0 00.76-.403z"/>
    <path d="M109.932 60.018v.238l1.837.165a.202.202 0 01-.02.404h-.02l-1.797-.165v.403l1.837.166a.202.202 0 01-.02.404h-.02l-1.797-.166v.166a.404.404 0 00.403.404h1.616a.404.404 0 00.403-.404v-1.615z"/>
  </g>
</svg>
