<svg xmlns="http://www.w3.org/2000/svg" width="810" height="307" viewBox="0 0 214.313 81.227" font-family="&quot;SF Pro Text&quot;,Inter,&quot;Segoe UI&quot;,Roboto,&quot;Noto Sans&quot;,&quot;Droid Sans&quot;,&quot;Liberation Sans&quot;,Arimo,Arial,Oxygen,Ubuntu,Cantarell,sans-serif">
  <path fill="#eef2ff" stroke="#e0e0e0" stroke-width=".265" stroke-linejoin="round" d="M.132-.003h214.032V10.29H.132z"/>
  <path fill="#f6f8fa" stroke="#e0e0e0" stroke-width=".265" stroke-linejoin="round" d="M.132 20.21h214.032V30.5H.132z"/>
  <path fill="#fff" stroke="#e0e0e0" stroke-width=".265" stroke-linejoin="round" d="M.132 30.488h214.032V40.78H.132z"/>
  <path fill="#f6f8fa" stroke="#e0e0e0" stroke-width=".265" stroke-linejoin="round" d="M.132 40.657h214.032V50.95H.132z"/>
  <path fill="#fff" stroke="#e0e0e0" stroke-width=".265" stroke-linejoin="round" d="M.132 50.653h214.032v10.292H.132z"/>
  <path fill="#f6f8fa" stroke="#e0e0e0" stroke-width=".265" stroke-linejoin="round" d="M.132 60.737h214.032V71.03H.132z"/>
  <path fill="#fff" stroke="#e0e0e0" stroke-width=".265" stroke-linejoin="round" d="M.132 70.718h214.032v10.377H.132zm0-60.512h214.032v10.292H.132z"/>
  <text y="222.041" x="4.495" style="line-height:23.99999946%" transform="matrix(1.00007 0 0 .99993 0 -215.773)" font-weight="700" font-size="4.939" letter-spacing="0" word-spacing="0" fill="#333" stroke-width=".265">
    <tspan y="222.041" x="4.495" font-size="4.233">DecOptions</tspan>
  </text>
  <text style="line-height:23.99999946%" x="56.891" y="222.041" transform="matrix(1.00007 0 0 .99993 0 -215.773)" font-weight="700" font-size="4.939" letter-spacing="0" word-spacing="0" fill="#333" stroke-width=".265">
    <tspan x="56.891" y="222.041" font-size="4.233">Available Settings (defaults in bold+green)</tspan>
  </text>
  <path fill="#e0e0e0" stroke="#e0e0e0" stroke-width=".036" stroke-linejoin="round" d="M52.141-.033h.228v81.191h-.228z"/>
  <g font-size="4.939" letter-spacing="0" word-spacing="0" fill="#333" stroke-width=".265">
    <text y="232.218" x="4.597" style="line-height:23.99999946%" font-weight="600" transform="matrix(1.00007 0 0 .99993 0 -215.717)">
      <tspan y="232.218" x="4.597" font-size="4.145" fill="#4d4d4d">TimeTag</tspan>
    </text>
    <text style="line-height:23.99999946%" x="56.62" y="232.218" font-weight="700" transform="matrix(1.00007 0 0 .99993 0 -215.717)">
      <tspan x="56.62" y="232.218" font-size="4.145"><tspan fill="green">DecTagIgnored</tspan><tspan font-weight="400">, DecTagOptional, DecTagRequired</tspan></tspan>
    </text>
  </g>
  <g font-size="4.939" letter-spacing="0" word-spacing="0" fill="#333" stroke-width=".265">
    <text style="line-height:23.99999946%" x="4.465" y="242.232" font-weight="600" transform="matrix(1.00007 0 0 .99993 0 -215.691)">
      <tspan x="4.465" y="242.232" font-size="4.145" fill="#4d4d4d">DupMapKey</tspan>
    </text>
    <text y="242.232" x="56.62" style="line-height:23.99999946%" font-weight="400" transform="matrix(1.00007 0 0 .99993 0 -215.691)">
      <tspan y="242.232" x="56.62" font-size="4.145"><tspan font-weight="700" fill="green">DupMapKeyQuiet</tspan><tspan>, DupMapKeyEnforcedAPF</tspan></tspan>
    </text>
  </g>
  <g font-size="4.939" letter-spacing="0" word-spacing="0" fill="#333" stroke-width=".265">
    <text y="262.671" x="4.597" style="line-height:23.99999946%" font-weight="600" transform="matrix(1.00007 0 0 .99993 0 -215.743)">
      <tspan y="262.671" x="4.597" font-size="4.145" fill="#4d4d4d">TagsMd</tspan>
    </text>
    <text style="line-height:23.99999946%" x="56.909" y="262.671" font-weight="400" transform="matrix(1.00007 0 0 .99993 0 -215.743)">
      <tspan x="56.909" y="262.671" font-size="4.145"><tspan font-weight="700" fill="green">TagsAllowed</tspan><tspan>, TagsForbidden</tspan></tspan>
    </text>
  </g>
  <g font-size="4.939" letter-spacing="0" word-spacing="0" stroke-width=".265">
    <text style="line-height:23.99999946%" x="4.465" y="273.145" font-weight="600" fill="#4d4d4d" transform="matrix(1.00007 0 0 .99993 0 -215.692)">
      <tspan x="4.465" y="273.145" font-size="4.145">MaxNestedLevels</tspan>
    </text>
    <text y="272.837" x="56.834" style="line-height:23.99999946%" font-weight="400" fill="#333" transform="matrix(1.00007 0 0 .99993 0 -215.692)">
      <tspan y="272.837" x="56.834" font-size="4.145"><tspan font-weight="700" fill="green">32</tspan><tspan>, can be set to [4, 256]</tspan></tspan>
    </text>
  </g>
  <g font-size="4.939" letter-spacing="0" word-spacing="0" stroke-width=".265">
    <text y="282.752" x="4.465" style="line-height:23.99999946%" font-weight="600" fill="#4d4d4d" transform="matrix(1.00007 0 0 .99993 0 -215.692)">
      <tspan y="282.752" x="4.465" font-size="4.145">MaxArrayElements</tspan>
    </text>
    <text style="line-height:23.99999946%" x="56.747" y="282.922" font-weight="400" fill="#333" transform="matrix(1.00007 0 0 .99993 0 -215.692)">
      <tspan x="56.747" y="282.922" font-size="4.145"><tspan font-weight="700" fill="green">131072</tspan><tspan>, can be set to [16, 134217728]</tspan></tspan>
    </text>
  </g>
  <g font-size="4.939" letter-spacing="0" word-spacing="0" stroke-width=".265">
    <text style="line-height:23.99999946%" x="4.465" y="292.776" font-weight="600" fill="#4d4d4d" transform="matrix(1.00007 0 0 .99993 0 -215.578)">
      <tspan x="4.465" y="292.776" font-size="4.145">MaxMapPairs</tspan>
    </text>
    <text y="292.776" x="56.747" style="line-height:23.99999946%" font-weight="400" fill="#333" transform="matrix(1.00007 0 0 .99993 0 -215.578)">
      <tspan y="292.776" x="56.747" font-size="4.145"><tspan font-weight="700" fill="green">131072</tspan><tspan>, can be set to [16, 134217728]</tspan></tspan>
    </text>
  </g>
  <g font-size="4.939" letter-spacing="0" word-spacing="0" fill="#333" stroke-width=".265">
    <text style="line-height:23.99999946%" x="4.465" y="252.512" font-weight="600" transform="matrix(1.00007 0 0 .99993 0 -215.73)">
      <tspan x="4.465" y="252.512" font-size="4.145" fill="#4d4d4d">IndefLength</tspan>
    </text>
    <text y="252.512" x="56.62" style="line-height:23.99999946%" font-weight="400" transform="matrix(1.00007 0 0 .99993 0 -215.73)">
      <tspan y="252.512" x="56.62" font-size="4.145"><tspan font-weight="700" fill="green">IndefLengthAllowed</tspan><tspan>, IndefLengthForbidden</tspan></tspan>
    </text>
  </g>
</svg>
