<svg xmlns="http://www.w3.org/2000/svg" width="880" height="298" viewBox="0 0 232.833 78.846">
  <path fill="#eef2ff" stroke="#e0e0e0" stroke-width=".265" stroke-linejoin="round" d="M.132.132h232.525v8.73H.132z"/>
  <path fill="#fff" stroke="#e0e0e0" stroke-width=".265" stroke-linejoin="round" d="M.132 26.326h232.525v8.73H.132z"/>
  <path fill="#f6f8fa" stroke="#e0e0e0" stroke-width=".265" stroke-linejoin="round" d="M.132 35.057h232.525v8.73H.132z"/>
  <path fill="#fff" stroke="#e0e0e0" stroke-width=".265" stroke-linejoin="round" d="M.132 43.789h232.529v8.73H.132z"/>
  <path fill="#f6f8fa" stroke="#e0e0e0" stroke-width=".265" stroke-linejoin="round" d="M.132 52.52h232.529v8.73H.132z"/>
  <path fill="#f6f8fa" stroke="#e0e0e0" stroke-width=".263" stroke-linejoin="round" d="M.132 69.982h232.53v8.732H.132z"/>
  <path fill="#fff" stroke="#e0e0e0" stroke-width=".265" stroke-linejoin="round" d="M.132 8.864h232.525v8.73H.132z"/>
  <path fill="#f6f8fa" stroke="#e0e0e0" stroke-width=".265" stroke-linejoin="round" d="M.132 17.595h232.529v8.73H.132z"/>
  <g font-weight="700" font-size="4.938" font-family="SF Pro Text,Helvetica Neue,Segoe UI,Roboto,Noto Sans,Droid Sans,Liberation Sans,Arial,sans-serif" letter-spacing="0" word-spacing="0" fill="#333" stroke-width=".265">
    <text style="line-height:23.99999946%" x="23.621" y="223.83" transform="matrix(.99992 0 0 1.00008 0 -218.154)">
      <tspan x="23.621" y="223.83" font-size="4.233">CBOR Feature</tspan>
    </text>
    <text y="223.83" x="133.147" style="line-height:23.99999946%" transform="matrix(.99992 0 0 1.00008 0 -218.154)">
      <tspan y="223.83" x="133.147" font-size="4.233">Description</tspan>
    </text>
  </g>
  <path fill="#fff" stroke="#e0e0e0" stroke-width=".265" stroke-linejoin="round" d="M.132 61.25h232.529v8.732H.132z"/>
  <path fill="#e0e0e0" stroke="#e0e0e0" stroke-width=".036" stroke-linejoin="round" d="M7.93.159h.227v78.669H7.93zM64.253.162h.227v78.6h-.227z"/>
  <g font-size="4.938" font-family="SF Pro Text,Helvetica Neue,Segoe UI,Roboto,Noto Sans,Droid Sans,Liberation Sans,Arial,sans-serif" letter-spacing="0" word-spacing="0" fill="#333" stroke-width=".265">
    <text style="line-height:23.99999946%" x="10.903" y="232.554" font-weight="600" transform="matrix(.99992 0 0 1.00008 0 -218.073)">
      <tspan x="10.903" y="232.554" font-size="4.057" fill="#4d4d4d">CBOR tags</tspan>
    </text>
    <text y="232.554" x="67.538" style="line-height:23.99999946%" font-weight="400" transform="matrix(.99992 0 0 1.00008 0 -218.073)">
      <tspan y="232.554" x="67.538" font-size="4.057">API supports built-in and user-defined tags.</tspan>
    </text>
  </g>
  <g font-size="4.938" font-family="SF Pro Text,Helvetica Neue,Segoe UI,Roboto,Noto Sans,Droid Sans,Liberation Sans,Arial,sans-serif" letter-spacing="0" word-spacing="0" fill="#333" stroke-width=".265">
    <text y="241.812" x="10.808" style="line-height:23.99999946%" font-weight="600" transform="matrix(.99992 0 0 1.00008 0 -218.622)">
      <tspan y="241.812" x="10.808" font-size="4.057" fill="#4d4d4d">Preferred serialization</tspan>
    </text>
    <text style="line-height:23.99999946%" x="67.538" y="241.812" font-weight="400" transform="matrix(.99992 0 0 1.00008 0 -218.622)">
      <tspan x="67.538" y="241.812" font-size="4.057">Integers encode to fewest bytes. Optional float64 <tspan fill="#00a000">→ </tspan>float32 <tspan fill="#00a000">→ </tspan>float16 if value fits.</tspan>
    </text>
  </g>
  <g font-size="4.938" font-family="SF Pro Text,Helvetica Neue,Segoe UI,Roboto,Noto Sans,Droid Sans,Liberation Sans,Arial,sans-serif" letter-spacing="0" word-spacing="0" fill="#333" stroke-width=".265">
    <text style="line-height:23.99999946%" x="10.808" y="250.064" font-weight="600" transform="matrix(.99992 0 0 1.00008 0 -218.143)">
      <tspan x="10.808" y="250.064" font-size="4.057" fill="#4d4d4d">Map key sorting</tspan>
    </text>
    <text y="250.064" x="67.538" style="line-height:23.99999946%" font-weight="400" transform="matrix(.99992 0 0 1.00008 0 -218.143)">
      <tspan y="250.064" x="67.538" font-size="4.057">Unsorted, length-first (Canonical CBOR), and bytewise-lexicographic (CTAP2).</tspan>
    </text>
  </g>
  <g font-size="4.938" font-family="SF Pro Text,Helvetica Neue,Segoe UI,Roboto,Noto Sans,Droid Sans,Liberation Sans,Arial,sans-serif" letter-spacing="0" word-spacing="0" fill="#333" stroke-width=".265">
    <text y="267.536" x="10.777" style="line-height:23.99999946%" font-weight="600" transform="matrix(.99992 0 0 1.00008 0 -218.154)">
      <tspan y="267.536" x="10.777" font-size="4.057" fill="#4d4d4d">Indefinite length data</tspan>
    </text>
    <text style="line-height:23.99999946%" x="67.538" y="267.536" font-weight="400" transform="matrix(.99992 0 0 1.00008 0 -218.154)">
      <tspan x="67.538" y="267.536" font-size="4.057">Option to allow/forbid for encoding and decoding.</tspan>
    </text>
  </g>
  <g font-size="4.938" font-family="SF Pro Text,Helvetica Neue,Segoe UI,Roboto,Noto Sans,Droid Sans,Liberation Sans,Arial,sans-serif" letter-spacing="0" word-spacing="0" stroke-width=".265">
    <text style="line-height:23.99999946%" x="11.01" y="276.734" font-weight="600" fill="#4d4d4d" transform="matrix(.99992 0 0 1.00008 0 -218.622)">
      <tspan x="11.01" y="276.734" font-size="4.057">Well-formedness checks</tspan>
    </text>
    <text y="276.734" x="67.538" style="line-height:23.99999946%" font-weight="400" fill="#333" transform="matrix(.99992 0 0 1.00008 0 -218.622)">
      <tspan y="276.734" x="67.538" font-size="4.057">Always checked and enforced.</tspan>
    </text>
  </g>
  <g font-size="4.938" font-family="SF Pro Text,Helvetica Neue,Segoe UI,Roboto,Noto Sans,Droid Sans,Liberation Sans,Arial,sans-serif" letter-spacing="0" word-spacing="0" stroke-width=".265">
    <text y="284.987" x="10.808" style="line-height:23.99999946%" font-weight="600" fill="#4d4d4d" transform="matrix(.99992 0 0 1.00008 0 -218.154)">
      <tspan y="284.987" x="10.808" font-size="4.057">Basic validity checks</tspan>
    </text>
    <text style="line-height:23.99999946%" x="67.538" y="284.987" font-weight="400" fill="#333" transform="matrix(.99992 0 0 1.00008 0 -218.154)">
      <tspan x="67.538" y="284.987" font-size="4.057">UTF-8 validity and optional duplicate map keys.</tspan>
    </text>
  </g>
  <g font-size="4.938" font-family="SF Pro Text,Helvetica Neue,Segoe UI,Roboto,Noto Sans,Droid Sans,Liberation Sans,Arial,sans-serif" letter-spacing="0" word-spacing="0" stroke-width=".265">
    <text style="line-height:23.99999946%" x="10.96" y="293.453" font-weight="600" fill="#4d4d4d" transform="matrix(.99992 0 0 1.00008 0 -218.143)">
      <tspan x="10.96" y="293.453" font-size="4.057">Security considerations</tspan>
    </text>
    <text y="293.453" x="67.538" style="line-height:23.99999946%" font-weight="400" fill="#333" transform="matrix(.99992 0 0 1.00008 0 -218.143)">
      <tspan y="293.453" x="67.538" font-size="4.057">Prevent integer overflow and resource exhaustion (RFC 7049 Section 8).</tspan>
    </text>
  </g>
  <g font-size="4.938" font-family="SF Pro Text,Helvetica Neue,Segoe UI,Roboto,Noto Sans,Droid Sans,Liberation Sans,Arial,sans-serif" letter-spacing="0" word-spacing="0" fill="#333" stroke-width=".265">
    <text style="line-height:23.99999946%" x="10.808" y="258.795" font-weight="600" transform="matrix(.99992 0 0 1.00008 0 -218.143)">
      <tspan x="10.808" y="258.795" font-size="4.057" fill="#4d4d4d">Duplicate map keys</tspan>
    </text>
    <text y="258.795" x="67.538" style="line-height:23.99999946%" font-weight="400" transform="matrix(.99992 0 0 1.00008 0 -218.143)">
      <tspan y="258.795" x="67.538" font-size="4.057">Always forbid for encoding and option to allow/forbid for decoding.</tspan>
    </text>
  </g>
  <text y="292.638" x="71.779" style="line-height:23.99999946%" transform="matrix(1 0 0 1 0 -218.154)" font-weight="400" font-size="4.939" font-family="SF Pro Text,Helvetica Neue,Segoe UI,Roboto,Noto Sans,Droid Sans,Liberation Sans,Arial,sans-serif" letter-spacing="0" word-spacing="0" fill="#333" stroke-width=".265"/>
  <path d="M3.238 13.272q.108 0 .163.176.11.33.157.33.036 0 .075-.054.774-1.138 1.432-1.62.279-.205.543-.205.35 0 .422.022.03.008.03.07 0 .049-.063.123-1.772 2.034-2.11 2.646-.117.21-.536.21-.137 0-.289-.072-.063-.033-.22-.422-.199-.49-.199-.86 0-.135.193-.223.265-.121.397-.121zM3.238 21.982q.108 0 .163.176.11.33.157.33.036 0 .075-.054.774-1.139 1.432-1.62.279-.205.543-.205.35 0 .422.022.03.008.03.069 0 .05-.063.124-1.772 2.034-2.11 2.646-.117.21-.536.21-.137 0-.289-.072-.063-.033-.22-.422-.199-.49-.199-.86 0-.135.193-.223.265-.121.397-.121zM3.238 30.713q.108 0 .163.176.11.331.157.331.036 0 .075-.055.774-1.138 1.432-1.62.279-.205.543-.205.35 0 .422.022.03.008.03.07 0 .049-.063.123-1.772 2.034-2.11 2.646-.117.21-.536.21-.137 0-.289-.072-.063-.033-.22-.422-.199-.49-.199-.86 0-.135.193-.223.265-.121.397-.121zM3.238 39.444q.108 0 .163.177.11.33.157.33.036 0 .075-.055.774-1.138 1.432-1.62.279-.204.543-.204.35 0 .422.022.03.008.03.069 0 .05-.063.124-1.772 2.034-2.11 2.645-.117.21-.536.21-.137 0-.289-.072-.063-.033-.22-.422-.199-.49-.199-.86 0-.134.193-.223.265-.12.397-.12zM3.238 48.175q.108 0 .163.177.11.33.157.33.036 0 .075-.055.774-1.138 1.432-1.62.279-.204.543-.204.35 0 .422.022.03.008.03.069 0 .05-.063.124-1.772 2.034-2.11 2.646-.117.21-.536.21-.137 0-.289-.073-.063-.033-.22-.421-.199-.49-.199-.86 0-.135.193-.223.265-.122.397-.122zM3.238 56.907q.108 0 .163.176.11.33.157.33.036 0 .075-.054.774-1.139 1.432-1.62.279-.205.543-.205.35 0 .422.022.03.008.03.07 0 .049-.063.123-1.772 2.034-2.11 2.646-.117.21-.536.21-.137 0-.289-.072-.063-.033-.22-.422-.199-.49-.199-.86 0-.135.193-.223.265-.121.397-.121zM3.238 65.638q.108 0 .163.176.11.331.157.331.036 0 .075-.055.774-1.138 1.432-1.62.279-.205.543-.205.35 0 .422.022.03.008.03.07 0 .049-.063.123-1.772 2.034-2.11 2.646-.117.21-.536.21-.137 0-.289-.072-.063-.033-.22-.422-.199-.49-.199-.86 0-.135.193-.223.265-.121.397-.121zM3.238 74.105q.108 0 .163.176.11.33.157.33.036 0 .075-.054.774-1.139 1.432-1.62.279-.205.543-.205.35 0 .422.022.03.008.03.069 0 .05-.063.124-1.772 2.034-2.11 2.646-.117.21-.536.21-.137 0-.289-.072-.063-.033-.22-.422-.199-.49-.199-.86 0-.135.193-.223.265-.121.397-.121z" font-size="5.644" fill="green" aria-label="✔" style="font-size:5.64444494px;fill:#008000;stroke-width:0.26458332" font-weight="400" font-family="SF Pro Text,Helvetica Neue,Segoe UI,Roboto,Noto Sans,Droid Sans,Liberation Sans,Arial,sans-serif" letter-spacing="0" word-spacing="0" stroke-width=".265"/>
</svg>
