<?xml version="1.0" encoding="UTF-8" standalone="no"?><!DOCTYPE svg PUBLIC "-//W3C//DTD SVG 1.1//EN" "http://www.w3.org/Graphics/SVG/1.1/DTD/svg11.dtd"><svg viewBox="0 0 995 352" xmlns="http://www.w3.org/2000/svg" xml:space="preserve" xmlns:serif="http://www.serif.com/" style="fill-rule:evenodd;clip-rule:evenodd"><g serif:id="Layer 1"><path d="M18.713 21.985c-.477-3.447-3.128-5.447-6.568-5.447-4.053 0-7.106 2.955-7.106 7.97 0 5.007 3.016 7.969 7.106 7.969 3.69 0 6.137-2.386 6.568-5.348l-2.833-.015c-.356 1.818-1.841 2.841-3.697 2.841-2.515 0-4.318-1.887-4.318-5.447 0-3.5 1.788-5.447 4.326-5.447 1.886 0 3.363 1.068 3.689 2.924h2.833Zm2.584 10.28h6.28c3.553 0 5.296-1.81 5.296-4.227 0-2.349-1.667-3.727-3.319-3.811v-.151c1.516-.356 2.713-1.417 2.713-3.303 0-2.311-1.667-4.023-5.031-4.023h-5.939v15.515Zm2.811-2.348v-4.546h3.098c1.735 0 2.811 1.061 2.811 2.447 0 1.235-.849 2.099-2.887 2.099h-3.022Zm0-6.568v-4.281h2.84c1.652 0 2.508.872 2.508 2.068 0 1.364-1.106 2.213-2.568 2.213h-2.78Zm25.075 1.159c0-5.015-3.06-7.97-7.129-7.97-4.075 0-7.128 2.955-7.128 7.97 0 5.007 3.053 7.969 7.128 7.969 4.069 0 7.129-2.954 7.129-7.969Zm-2.826 0c0 3.53-1.772 5.447-4.303 5.447-2.522 0-4.303-1.917-4.303-5.447 0-3.531 1.781-5.447 4.303-5.447 2.531 0 4.303 1.916 4.303 5.447Zm5.493 7.757h2.811v-5.682h2.863l3.046 5.682h3.136l-3.356-6.151c1.826-.735 2.788-2.296 2.788-4.402 0-2.962-1.909-4.962-5.47-4.962H51.85v15.515Zm2.811-8.015v-5.151h2.575c2.099 0 3.038.962 3.038 2.613 0 1.652-.939 2.538-3.023 2.538h-2.59Zm24.795-3.235h2.704c-.053-2.621-2.287-4.477-5.59-4.477-3.258 0-5.705 1.833-5.697 4.576 0 2.227 1.583 3.507 4.136 4.166l1.765.455c1.674.424 2.78.947 2.788 2.151-.008 1.326-1.265 2.212-3.098 2.212-1.758 0-3.122-.787-3.235-2.416h-2.765c.113 3.083 2.409 4.818 6.022 4.818 3.72 0 5.879-1.856 5.887-4.591-.008-2.689-2.228-3.916-4.561-4.47l-1.455-.363c-1.272-.303-2.651-.841-2.636-2.136.008-1.167 1.053-2.023 2.811-2.023 1.674 0 2.78.78 2.924 2.098Zm5.295 15.614h2.743v-6.197h.113c.432.848 1.334 2.038 3.334 2.038 2.742 0 4.795-2.175 4.795-6.008 0-3.879-2.113-5.985-4.803-5.985-2.053 0-2.909 1.235-3.326 2.076h-.159v-1.924h-2.697v16Zm2.69-10.182c0-2.258.969-3.72 2.735-3.72 1.825 0 2.765 1.553 2.765 3.72 0 2.182-.955 3.773-2.765 3.773-1.75 0-2.735-1.515-2.735-3.773Zm15.788 6.045c2.712 0 4.575-1.325 5.06-3.348l-2.56-.288c-.372.985-1.281 1.5-2.462 1.5-1.773 0-2.947-1.167-2.97-3.159h8.106v-.841c0-4.083-2.455-5.879-5.318-5.879-3.334 0-5.508 2.447-5.508 6.038 0 3.652 2.144 5.977 5.652 5.977Zm-2.925-7.143c.084-1.485 1.182-2.735 2.819-2.735 1.575 0 2.636 1.151 2.651 2.735h-5.47Zm15.569 7.143c2.712 0 4.575-1.325 5.06-3.348l-2.56-.288c-.372.985-1.281 1.5-2.463 1.5-1.772 0-2.946-1.167-2.969-3.159h8.106v-.841c0-4.083-2.455-5.879-5.318-5.879-3.334 0-5.508 2.447-5.508 6.038 0 3.652 2.144 5.977 5.652 5.977Zm-2.925-7.143c.084-1.485 1.182-2.735 2.819-2.735 1.575 0 2.636 1.151 2.651 2.735h-5.47Zm14.735 7.121c2 0 2.902-1.19 3.333-2.038h.167v1.833h2.697V16.75h-2.75v5.803h-.114c-.416-.841-1.272-2.076-3.325-2.076-2.69 0-4.803 2.106-4.803 5.985 0 3.833 2.053 6.008 4.795 6.008Zm.765-2.25c-1.81 0-2.765-1.591-2.765-3.773 0-2.167.94-3.72 2.765-3.72 1.765 0 2.735 1.462 2.735 3.72s-.985 3.773-2.735 3.773Zm27.061-8.235c-.477-3.447-3.129-5.447-6.568-5.447-4.053 0-7.106 2.955-7.106 7.97 0 5.007 3.015 7.969 7.106 7.969 3.689 0 6.136-2.386 6.568-5.348l-2.833-.015c-.357 1.818-1.841 2.841-3.697 2.841-2.516 0-4.319-1.887-4.319-5.447 0-3.5 1.788-5.447 4.326-5.447 1.886 0 3.364 1.068 3.69 2.924h2.833Zm7.538 10.507c3.409 0 5.575-2.401 5.575-6 0-3.606-2.166-6.015-5.575-6.015-3.409 0-5.576 2.409-5.576 6.015 0 3.599 2.167 6 5.576 6Zm.015-2.197c-1.886 0-2.811-1.681-2.811-3.81s.925-3.833 2.811-3.833c1.856 0 2.78 1.704 2.78 3.833 0 2.129-.924 3.81-2.78 3.81Zm7.879 1.97h2.742v-7.076c0-1.431.955-2.401 2.136-2.401 1.16 0 1.955.78 1.955 1.977v7.5h2.689v-7.257c0-1.311.781-2.22 2.106-2.22 1.106 0 1.985.651 1.985 2.091v7.386h2.75v-7.81c0-2.599-1.5-3.978-3.636-3.978-1.689 0-2.977.834-3.492 2.129h-.122c-.447-1.318-1.575-2.129-3.144-2.129-1.56 0-2.727.803-3.212 2.129h-.136v-1.977h-2.621v11.636Zm19.151 4.364h2.743v-6.197h.113c.432.848 1.334 2.038 3.334 2.038 2.742 0 4.795-2.175 4.795-6.008 0-3.879-2.114-5.985-4.803-5.985-2.053 0-2.909 1.235-3.326 2.076h-.159v-1.924h-2.697v16Zm2.69-10.182c0-2.258.969-3.72 2.734-3.72 1.826 0 2.766 1.553 2.766 3.72 0 2.182-.955 3.773-2.766 3.773-1.75 0-2.734-1.515-2.734-3.773Zm13.984 6.053c1.826 0 2.917-.856 3.417-1.833h.091v1.598h2.636v-7.788c0-3.075-2.507-4-4.727-4-2.447 0-4.326 1.091-4.932 3.212l2.561.364c.273-.795 1.045-1.477 2.386-1.477 1.273 0 1.97.651 1.97 1.795v.046c0 .788-.826.825-2.879 1.045-2.257.243-4.416.917-4.416 3.538 0 2.288 1.674 3.5 3.893 3.5Zm.713-2.015c-1.144 0-1.963-.523-1.963-1.53 0-1.053.917-1.493 2.144-1.667.72-.099 2.159-.28 2.516-.568v1.371c0 1.295-1.046 2.394-2.697 2.394Zm8.197 1.78h2.742v-6.841c0-1.477 1.114-2.522 2.621-2.522.462 0 1.038.083 1.273.159v-2.523a6.647 6.647 0 0 0-.985-.076c-1.333 0-2.447.758-2.871 2.106h-.121v-1.939h-2.659v11.636Zm8.462 0h2.742V20.629h-2.742v11.636Zm1.378-13.288c.872 0 1.584-.666 1.584-1.484 0-.826-.712-1.493-1.584-1.493-.878 0-1.59.667-1.59 1.493 0 .818.712 1.484 1.59 1.484Zm13.379 4.728c-.379-1.97-1.954-3.228-4.682-3.228-2.803 0-4.712 1.379-4.704 3.531-.008 1.697 1.038 2.818 3.273 3.28l1.984.417c1.069.234 1.569.666 1.569 1.325 0 .796-.864 1.394-2.167 1.394-1.258 0-2.076-.545-2.311-1.591l-2.674.258c.341 2.136 2.136 3.401 4.993 3.401 2.909 0 4.962-1.507 4.969-3.712-.007-1.659-1.076-2.674-3.273-3.151l-1.984-.424c-1.182-.266-1.652-.675-1.644-1.349-.008-.788.863-1.333 2.007-1.333 1.265 0 1.932.689 2.144 1.454l2.5-.272Zm7.591 8.787c3.409 0 5.576-2.401 5.576-6 0-3.606-2.167-6.015-5.576-6.015s-5.576 2.409-5.576 6.015c0 3.599 2.167 6 5.576 6Zm.015-2.197c-1.886 0-2.81-1.681-2.81-3.81s.924-3.833 2.81-3.833c1.856 0 2.781 1.704 2.781 3.833 0 2.129-.925 3.81-2.781 3.81Zm10.621-4.848c0-1.682 1.016-2.651 2.463-2.651 1.416 0 2.265.931 2.265 2.484v6.985h2.742v-7.409c.008-2.788-1.583-4.379-3.985-4.379-1.742 0-2.939.834-3.469 2.129h-.137v-1.977h-2.621v11.636h2.742v-6.818ZM11.312 49.961H8.706v-1.182c0-1.152.485-1.758 1.667-1.758.515 0 .818.121 1 .182l.515-1.545c-.273-.122-.818-.303-1.697-.303-1.667 0-3.273 1-3.273 2.999v1.607H5.039v1.515h1.879v10.121h1.788V51.476h2.606v-1.515Zm3.849 0H13.1l3.697 5.818-3.697 5.818h2.061l2.787-4.515 2.788 4.515h2.061l-3.758-5.818 3.758-5.818h-2.061l-2.788 4.757-2.787-4.757Zm13.606 11.908c2.03 0 3.09-1.09 3.454-1.848h.091v1.576H34.1V53.93c0-3.697-2.818-4.121-4.303-4.121-1.758 0-3.758.606-4.667 2.727l1.697.606c.394-.848 1.326-1.757 3.03-1.757 1.644 0 2.455.871 2.455 2.363v.061c0 .864-.879.788-3 1.061-2.159.28-4.515.757-4.515 3.424 0 2.272 1.758 3.575 3.97 3.575Zm.272-1.606c-1.424 0-2.454-.636-2.454-1.878 0-1.364 1.242-1.788 2.636-1.97.758-.091 2.788-.303 3.091-.667v1.637c0 1.454-1.151 2.878-3.273 2.878Zm8.334 1.334h1.788v-7.273c0-1.704 1.242-2.909 2.636-2.909 1.356 0 2.303.886 2.303 2.212v7.97h1.818v-7.576c0-1.5.939-2.606 2.576-2.606 1.272 0 2.363.674 2.363 2.394v7.788h1.788v-7.788c0-2.735-1.469-4-3.545-4-1.667 0-2.887.765-3.485 1.97h-.121c-.576-1.243-1.591-1.97-3.121-1.97-1.516 0-2.637.727-3.122 1.97H39.1v-1.818h-1.727v11.636Zm21.969.272c2.031 0 3.091-1.09 3.455-1.848h.091v1.576h1.788V53.93c0-3.697-2.819-4.121-4.303-4.121-1.758 0-3.758.606-4.667 2.727l1.697.606c.394-.848 1.326-1.757 3.03-1.757 1.644 0 2.455.871 2.455 2.363v.061c0 .864-.879.788-3 1.061-2.159.28-4.515.757-4.515 3.424 0 2.272 1.757 3.575 3.969 3.575Zm.273-1.606c-1.424 0-2.454-.636-2.454-1.878 0-1.364 1.242-1.788 2.636-1.97.757-.091 2.788-.303 3.091-.667v1.637c0 1.454-1.152 2.878-3.273 2.878Zm13.061 1.576c2.575 0 4.272-1.576 4.575-3.636h-1.788c-.333 1.273-1.393 2.03-2.787 2.03-2.122 0-3.485-1.757-3.485-4.454 0-2.637 1.394-4.364 3.485-4.364 1.575 0 2.515.97 2.787 2.03h1.788c-.303-2.181-2.151-3.636-4.606-3.636-3.151 0-5.242 2.485-5.242 6.03 0 3.485 2 6 5.273 6Zm7.182-.242h1.787v-4.356l1.25-1.159 4.356 5.515h2.273l-5.28-6.667 4.916-4.969h-2.212l-5.091 5.181h-.212v-9.06h-1.787v15.515Zm15.999.242c2.364 0 4.091-1.182 4.637-2.939l-1.728-.485c-.454 1.212-1.507 1.818-2.909 1.818-2.098 0-3.545-1.356-3.628-3.848h8.447v-.758c0-4.333-2.576-5.818-5-5.818-3.152 0-5.243 2.485-5.243 6.061 0 3.575 2.061 5.969 5.424 5.969Zm-3.628-7c.121-1.81 1.401-3.424 3.447-3.424 1.939 0 3.181 1.455 3.181 3.424h-6.628Zm11.174 6.758h1.788v-7.364c0-1.576 1.242-2.727 2.939-2.727.477 0 .97.091 1.091.121v-1.818a17.33 17.33 0 0 0-.939-.03c-1.394 0-2.606.788-3.031 1.939h-.121v-1.757h-1.727v11.636ZM116.1 45.355h-1.637l-4.999 18.575h1.636l5-18.575Zm6.848 16.484c2.576 0 4.273-1.576 4.576-3.636h-1.788c-.333 1.273-1.394 2.03-2.788 2.03-2.121 0-3.484-1.757-3.484-4.454 0-2.637 1.393-4.364 3.484-4.364 1.576 0 2.515.97 2.788 2.03h1.788c-.303-2.181-2.151-3.636-4.606-3.636-3.151 0-5.242 2.485-5.242 6.03 0 3.485 2 6 5.272 6Zm7.425-.242h1.727v-1.788h.212c.394.636 1.151 2.03 3.394 2.03 2.909 0 4.939-2.333 4.939-6.03 0-3.667-2.03-6-4.969-6-2.273 0-2.97 1.394-3.364 2h-.152v-5.727h-1.787v15.515Zm1.757-5.818c0-2.606 1.152-4.364 3.333-4.364 2.273 0 3.394 1.909 3.394 4.364 0 2.484-1.151 4.454-3.394 4.454-2.151 0-3.333-1.818-3.333-4.454Zm15.97 6.06c3.151 0 5.272-2.394 5.272-6 0-3.636-2.121-6.03-5.272-6.03-3.152 0-5.273 2.394-5.273 6.03 0 3.606 2.121 6 5.273 6Zm0-1.606c-2.394 0-3.485-2.06-3.485-4.394 0-2.333 1.091-4.424 3.485-4.424s3.485 2.091 3.485 4.424c0 2.334-1.091 4.394-3.485 4.394Zm8 1.364h1.788v-7.364c0-1.576 1.242-2.727 2.939-2.727.477 0 .97.091 1.091.121v-1.818c-.205-.015-.674-.03-.939-.03-1.394 0-2.606.788-3.031 1.939h-.121v-1.757H156.1v11.636Zm18.818.242c2.364 0 4.091-1.182 4.636-2.939l-1.727-.485c-.455 1.212-1.508 1.818-2.909 1.818-2.098 0-3.545-1.356-3.629-3.848h8.447v-.758c0-4.333-2.576-5.818-5-5.818-3.151 0-5.242 2.485-5.242 6.061 0 3.575 2.06 5.969 5.424 5.969Zm-3.629-7c.121-1.81 1.402-3.424 3.447-3.424 1.94 0 3.182 1.455 3.182 3.424h-6.629Zm12.962-.242c0-2.03 1.258-3.182 2.97-3.182 1.659 0 2.667 1.083 2.667 2.909v7.273h1.787v-7.394c0-2.97-1.583-4.394-3.939-4.394-1.757 0-2.848.788-3.394 1.97h-.151v-1.818h-1.728v11.636h1.788v-7Zm15.425 7.242c2.575 0 4.272-1.576 4.575-3.636h-1.788c-.333 1.273-1.394 2.03-2.787 2.03-2.122 0-3.485-1.757-3.485-4.454 0-2.637 1.394-4.364 3.485-4.364 1.575 0 2.515.97 2.787 2.03h1.788c-.303-2.181-2.151-3.636-4.606-3.636-3.151 0-5.242 2.485-5.242 6.03 0 3.485 2 6 5.273 6Zm11.909 0c3.151 0 5.272-2.394 5.272-6 0-3.636-2.121-6.03-5.272-6.03-3.152 0-5.273 2.394-5.273 6.03 0 3.606 2.121 6 5.273 6Zm0-1.606c-2.394 0-3.485-2.06-3.485-4.394 0-2.333 1.091-4.424 3.485-4.424s3.484 2.091 3.484 4.424c0 2.334-1.09 4.394-3.484 4.394Zm12.394 1.606c2.242 0 3-1.394 3.393-2.03h.213v1.788h1.727V46.082h-1.788v5.727h-.152c-.393-.606-1.09-2-3.363-2-2.94 0-4.97 2.333-4.97 6 0 3.697 2.03 6.03 4.94 6.03Zm.242-1.606c-2.242 0-3.394-1.97-3.394-4.454 0-2.455 1.121-4.364 3.394-4.364 2.182 0 3.333 1.758 3.333 4.364 0 2.636-1.182 4.454-3.333 4.454Zm13.485 1.606c2.363 0 4.091-1.182 4.636-2.939l-1.727-.485c-.455 1.212-1.508 1.818-2.909 1.818-2.099 0-3.546-1.356-3.629-3.848h8.447v-.758c0-4.333-2.576-5.818-5-5.818-3.151 0-5.242 2.485-5.242 6.061 0 3.575 2.06 5.969 5.424 5.969Zm-3.629-7c.121-1.81 1.402-3.424 3.447-3.424 1.939 0 3.182 1.455 3.182 3.424h-6.629Zm15.568 7c2.243 0 3-1.394 3.394-2.03h.212v1.788h1.727V46.082h-1.787v5.727h-.152c-.394-.606-1.091-2-3.364-2-2.939 0-4.969 2.333-4.969 6 0 3.697 2.03 6.03 4.939 6.03Zm.243-1.606c-2.243 0-3.394-1.97-3.394-4.454 0-2.455 1.121-4.364 3.394-4.364 2.181 0 3.333 1.758 3.333 4.364 0 2.636-1.182 4.454-3.333 4.454Zm18.03 1.636c2.03 0 3.091-1.09 3.454-1.848h.091v1.576h1.788V53.93c0-3.697-2.818-4.121-4.303-4.121-1.757 0-3.757.606-4.666 2.727l1.697.606c.393-.848 1.325-1.757 3.03-1.757 1.644 0 2.454.871 2.454 2.363v.061c0 .864-.878.788-3 1.061-2.159.28-4.515.757-4.515 3.424 0 2.272 1.758 3.575 3.97 3.575Zm.273-1.606c-1.425 0-2.455-.636-2.455-1.878 0-1.364 1.243-1.788 2.636-1.97.758-.091 2.788-.303 3.091-.667v1.637c0 1.454-1.151 2.878-3.272 2.878Zm10.121-5.666c0-2.03 1.257-3.182 2.97-3.182 1.659 0 2.666 1.083 2.666 2.909v7.273h1.788v-7.394c0-2.97-1.583-4.394-3.939-4.394-1.758 0-2.849.788-3.394 1.97h-.152v-1.818h-1.727v11.636h1.788v-7Zm15.091 7.242c2.242 0 3-1.394 3.394-2.03h.212v1.788h1.727V46.082h-1.788v5.727h-.151c-.394-.606-1.091-2-3.364-2-2.939 0-4.97 2.333-4.97 6 0 3.697 2.031 6.03 4.94 6.03Zm.242-1.606c-2.242 0-3.394-1.97-3.394-4.454 0-2.455 1.121-4.364 3.394-4.364 2.182 0 3.333 1.758 3.333 4.364 0 2.636-1.181 4.454-3.333 4.454Zm19 1.606c2.243 0 3-1.394 3.394-2.03h.212v1.788h1.727V46.082h-1.787v5.727h-.152c-.394-.606-1.091-2-3.364-2-2.939 0-4.969 2.333-4.969 6 0 3.697 2.03 6.03 4.939 6.03Zm.243-1.606c-2.243 0-3.394-1.97-3.394-4.454 0-2.455 1.121-4.364 3.394-4.364 2.181 0 3.333 1.758 3.333 4.364 0 2.636-1.182 4.454-3.333 4.454Zm13.484 1.606c2.364 0 4.091-1.182 4.637-2.939l-1.728-.485c-.454 1.212-1.507 1.818-2.909 1.818-2.098 0-3.545-1.356-3.628-3.848h8.447v-.758c0-4.333-2.576-5.818-5-5.818-3.152 0-5.243 2.485-5.243 6.061 0 3.575 2.061 5.969 5.424 5.969Zm-3.628-7c.121-1.81 1.401-3.424 3.447-3.424 1.939 0 3.181 1.455 3.181 3.424h-6.628Zm15.901 7c2.576 0 4.273-1.576 4.576-3.636h-1.788c-.333 1.273-1.394 2.03-2.788 2.03-2.121 0-3.485-1.757-3.485-4.454 0-2.637 1.394-4.364 3.485-4.364 1.576 0 2.515.97 2.788 2.03h1.788c-.303-2.181-2.152-3.636-4.606-3.636-3.152 0-5.243 2.485-5.243 6.03 0 3.485 2 6 5.273 6Zm11.909 0c3.152 0 5.273-2.394 5.273-6 0-3.636-2.121-6.03-5.273-6.03-3.151 0-5.272 2.394-5.272 6.03 0 3.606 2.121 6 5.272 6Zm0-1.606c-2.394 0-3.485-2.06-3.485-4.394 0-2.333 1.091-4.424 3.485-4.424s3.485 2.091 3.485 4.424c0 2.334-1.091 4.394-3.485 4.394Zm12.394 1.606c2.243 0 3-1.394 3.394-2.03h.212v1.788h1.727V46.082h-1.787v5.727h-.152c-.394-.606-1.091-2-3.364-2-2.939 0-4.969 2.333-4.969 6 0 3.697 2.03 6.03 4.939 6.03Zm.243-1.606c-2.243 0-3.394-1.97-3.394-4.454 0-2.455 1.121-4.364 3.394-4.364 2.181 0 3.333 1.758 3.333 4.364 0 2.636-1.182 4.454-3.333 4.454Zm13.484 1.606c2.364 0 4.091-1.182 4.637-2.939l-1.728-.485c-.454 1.212-1.507 1.818-2.909 1.818-2.098 0-3.545-1.356-3.628-3.848h8.447v-.758c0-4.333-2.576-5.818-5-5.818-3.152 0-5.243 2.485-5.243 6.061 0 3.575 2.061 5.969 5.424 5.969Zm-3.628-7c.121-1.81 1.401-3.424 3.447-3.424 1.939 0 3.181 1.455 3.181 3.424h-6.628Zm15.568 7c2.242 0 3-1.394 3.394-2.03h.212v1.788h1.727V46.082h-1.788v5.727h-.151c-.394-.606-1.091-2-3.364-2-2.939 0-4.97 2.333-4.97 6 0 3.697 2.031 6.03 4.94 6.03Zm.242-1.606c-2.242 0-3.394-1.97-3.394-4.454 0-2.455 1.121-4.364 3.394-4.364 2.182 0 3.333 1.758 3.333 4.364 0 2.636-1.181 4.454-3.333 4.454Zm19.788-10.272h-2.606v-1.182c0-1.152.485-1.758 1.667-1.758.515 0 .818.121 1 .182l.515-1.545c-.273-.122-.818-.303-1.697-.303-1.667 0-3.273 1-3.273 2.999v1.607h-1.879v1.515h1.879v10.121h1.788V51.476h2.606v-1.515Zm5.606 11.908c2.03 0 3.091-1.09 3.455-1.848h.091v1.576h1.787V53.93c0-3.697-2.818-4.121-4.303-4.121-1.757 0-3.757.606-4.666 2.727l1.697.606c.394-.848 1.326-1.757 3.03-1.757 1.644 0 2.455.871 2.455 2.363v.061c0 .864-.879.788-3 1.061-2.159.28-4.516.757-4.516 3.424 0 2.272 1.758 3.575 3.97 3.575Zm.273-1.606c-1.424 0-2.455-.636-2.455-1.878 0-1.364 1.243-1.788 2.637-1.97.757-.091 2.788-.303 3.091-.667v1.637c0 1.454-1.152 2.878-3.273 2.878Zm16.576-7.696c-.561-1.652-1.819-2.758-4.122-2.758-2.454 0-4.272 1.394-4.272 3.364 0 1.606.954 2.681 3.091 3.181l1.939.455c1.174.273 1.727.833 1.727 1.636 0 1-1.06 1.818-2.727 1.818-1.462 0-2.379-.628-2.697-1.878l-1.697.424c.417 1.977 2.046 3.03 4.424 3.03 2.705 0 4.546-1.477 4.546-3.485 0-1.621-1.015-2.644-3.091-3.151l-1.727-.424c-1.379-.341-2-.803-2-1.697 0-1 1.06-1.728 2.484-1.728 1.561 0 2.205.864 2.516 1.667l1.606-.454Zm7.969-2.606h-2.485v-2.788h-1.787v2.788h-1.758v1.515h1.758v7.272c0 2.031 1.636 3 3.151 3 .667 0 1.091-.121 1.333-.212l-.363-1.606c-.152.03-.394.091-.788.091-.788 0-1.546-.242-1.546-1.758v-6.787h2.485v-1.515Zm7.455 11.878c2.363 0 4.091-1.182 4.636-2.939l-1.727-.485c-.455 1.212-1.508 1.818-2.909 1.818-2.099 0-3.546-1.356-3.629-3.848h8.447v-.758c0-4.333-2.576-5.818-5-5.818-3.151 0-5.242 2.485-5.242 6.061 0 3.575 2.06 5.969 5.424 5.969Zm-3.629-7c.121-1.81 1.402-3.424 3.447-3.424 1.939 0 3.182 1.455 3.182 3.424h-6.629Zm11.174 6.758h1.788v-7.364c0-1.576 1.243-2.727 2.94-2.727.477 0 .969.091 1.09.121v-1.818a17.33 17.33 0 0 0-.939-.03c-1.394 0-2.606.788-3.03 1.939h-.121v-1.757h-1.728v11.636Zm7.909.121c.75 0 1.364-.614 1.364-1.364 0-.75-.614-1.363-1.364-1.363-.75 0-1.363.613-1.363 1.363s.613 1.364 1.363 1.364Zm256.143-.121c4.727 0 7.394-2.94 7.394-7.788 0-4.818-2.667-7.727-7.182-7.727h-5v15.515h4.788Zm-2.909-1.667V47.748h3c3.636 0 5.485 2.303 5.485 6.061 0 3.788-1.849 6.121-5.697 6.121h-2.788Zm18.091 1.909c2.364 0 4.091-1.182 4.636-2.939l-1.727-.485c-.455 1.212-1.508 1.818-2.909 1.818-2.099 0-3.545-1.356-3.629-3.848h8.447v-.758c0-4.333-2.576-5.818-5-5.818-3.151 0-5.242 2.485-5.242 6.061 0 3.575 2.06 5.969 5.424 5.969Zm-3.629-7c.121-1.81 1.402-3.424 3.447-3.424 1.939 0 3.182 1.455 3.182 3.424h-6.629Zm16.356-4.878h-2.606v-1.182c0-1.152.485-1.758 1.667-1.758.515 0 .818.121 1 .182l.515-1.545c-.273-.122-.818-.303-1.697-.303-1.667 0-3.273 1-3.273 2.999v1.607h-1.878v1.515h1.878v10.121h1.788V51.476h2.606v-1.515Zm5.606 11.908c2.031 0 3.091-1.09 3.455-1.848h.091v1.576h1.788V53.93c0-3.697-2.819-4.121-4.303-4.121-1.758 0-3.758.606-4.667 2.727l1.697.606c.394-.848 1.326-1.757 3.03-1.757 1.644 0 2.455.871 2.455 2.363v.061c0 .864-.879.788-3 1.061-2.159.28-4.515.757-4.515 3.424 0 2.272 1.757 3.575 3.969 3.575Zm.273-1.606c-1.424 0-2.455-.636-2.455-1.878 0-1.364 1.243-1.788 2.637-1.97.757-.091 2.788-.303 3.091-.667v1.637c0 1.454-1.152 2.878-3.273 2.878Zm15.667-3.424c0 2.182-1.667 3.182-3 3.182-1.485 0-2.546-1.091-2.546-2.788v-7.272h-1.788v7.393c0 2.97 1.576 4.394 3.758 4.394 1.757 0 2.909-.939 3.454-2.121h.122v1.97h1.787V49.961h-1.787v6.878Zm5.06-10.757h1.788v15.515h-1.788zm10.121 3.879h-2.484v-2.788h-1.788v2.788h-1.758v1.515h1.758v7.272c0 2.031 1.636 3 3.151 3 .667 0 1.091-.121 1.334-.212l-.364-1.606c-.152.03-.394.091-.788.091-.788 0-1.545-.242-1.545-1.758v-6.787h2.484v-1.515Zm8.94 11.636h1.727v-1.788h.212c.394.636 1.152 2.03 3.394 2.03 2.909 0 4.939-2.333 4.939-6.03 0-3.667-2.03-6-4.969-6-2.273 0-2.97 1.394-3.364 2h-.151v-5.727h-1.788v15.515Zm1.757-5.818c0-2.606 1.152-4.364 3.334-4.364 2.272 0 3.394 1.909 3.394 4.364 0 2.484-1.152 4.454-3.394 4.454-2.152 0-3.334-1.818-3.334-4.454Zm18.576 1.06c0 2.182-1.667 3.182-3 3.182-1.485 0-2.545-1.091-2.545-2.788v-7.272h-1.788v7.393c0 2.97 1.576 4.394 3.757 4.394 1.758 0 2.909-.939 3.455-2.121h.121v1.97h1.788V49.961h-1.788v6.878Zm5.061 4.758h1.788V49.961h-1.788v11.636ZM818 48.021c.697 0 1.273-.545 1.273-1.212 0-.667-.576-1.212-1.273-1.212s-1.273.545-1.273 1.212c0 .667.576 1.212 1.273 1.212Zm4.151-1.939h1.788v15.515h-1.788zm9.455 15.757c2.242 0 3-1.394 3.394-2.03h.212v1.788h1.727V46.082h-1.788v5.727H835c-.394-.606-1.091-2-3.364-2-2.939 0-4.969 2.333-4.969 6 0 3.697 2.03 6.03 4.939 6.03Zm.242-1.606c-2.242 0-3.394-1.97-3.394-4.454 0-2.455 1.122-4.364 3.394-4.364 2.182 0 3.334 1.758 3.334 4.364 0 2.636-1.182 4.454-3.334 4.454Zm19.334 1.606c3.151 0 5.272-2.394 5.272-6 0-3.636-2.121-6.03-5.272-6.03-3.152 0-5.273 2.394-5.273 6.03 0 3.606 2.121 6 5.273 6Zm0-1.606c-2.394 0-3.485-2.06-3.485-4.394 0-2.333 1.091-4.424 3.485-4.424s3.484 2.091 3.484 4.424c0 2.334-1.09 4.394-3.484 4.394Zm8 5.727h1.788v-6.151h.151c.394.636 1.152 2.03 3.394 2.03 2.909 0 4.939-2.333 4.939-6.03 0-3.667-2.03-6-4.969-6-2.273 0-2.97 1.394-3.364 2h-.212v-1.848h-1.727V65.96Zm1.757-10.181c0-2.606 1.152-4.364 3.334-4.364 2.272 0 3.393 1.909 3.393 4.364 0 2.484-1.151 4.454-3.393 4.454-2.152 0-3.334-1.818-3.334-4.454Zm16.303-5.818h-2.485v-2.788h-1.787v2.788h-1.758v1.515h1.758v7.272c0 2.031 1.636 3 3.151 3 .667 0 1.091-.121 1.333-.212l-.363-1.606c-.152.03-.394.091-.788.091-.788 0-1.546-.242-1.546-1.758v-6.787h2.485v-1.515Zm2.697 11.636h1.788V49.961h-1.788v11.636Zm.909-13.576c.697 0 1.273-.545 1.273-1.212 0-.667-.576-1.212-1.273-1.212s-1.272.545-1.272 1.212c0 .667.575 1.212 1.272 1.212Zm8.879 13.818c3.152 0 5.273-2.394 5.273-6 0-3.636-2.121-6.03-5.273-6.03-3.151 0-5.273 2.394-5.273 6.03 0 3.606 2.122 6 5.273 6Zm0-1.606c-2.394 0-3.485-2.06-3.485-4.394 0-2.333 1.091-4.424 3.485-4.424s3.485 2.091 3.485 4.424c0 2.334-1.091 4.394-3.485 4.394Zm9.788-5.636c0-2.03 1.258-3.182 2.97-3.182 1.659 0 2.666 1.083 2.666 2.909v7.273h1.788v-7.394c0-2.97-1.583-4.394-3.939-4.394-1.758 0-2.849.788-3.394 1.97h-.152v-1.818h-1.727v11.636h1.788v-7Zm18.939-2.03c-.56-1.652-1.818-2.758-4.121-2.758-2.454 0-4.273 1.394-4.273 3.364 0 1.606.955 2.681 3.091 3.181l1.94.455c1.174.273 1.727.833 1.727 1.636 0 1-1.061 1.818-2.727 1.818-1.462 0-2.379-.628-2.697-1.878l-1.697.424c.416 1.977 2.045 3.03 4.424 3.03 2.704 0 4.545-1.477 4.545-3.485 0-1.621-1.015-2.644-3.09-3.151l-1.728-.424c-1.379-.341-2-.803-2-1.697 0-1 1.061-1.728 2.485-1.728 1.561 0 2.205.864 2.515 1.667l1.606-.454Zm16.243 4.272c0 2.182-1.667 3.182-3 3.182-1.485 0-2.546-1.091-2.546-2.788v-7.272h-1.788v7.393c0 2.97 1.576 4.394 3.758 4.394 1.758 0 2.909-.939 3.454-2.121h.122v1.97h1.788V49.961h-1.788v6.878ZM948 52.567c-.561-1.652-1.818-2.758-4.121-2.758-2.455 0-4.273 1.394-4.273 3.364 0 1.606.954 2.681 3.091 3.181l1.939.455c1.174.273 1.727.833 1.727 1.636 0 1-1.06 1.818-2.727 1.818-1.462 0-2.379-.628-2.697-1.878l-1.697.424c.417 1.977 2.046 3.03 4.424 3.03 2.705 0 4.546-1.477 4.546-3.485 0-1.621-1.015-2.644-3.091-3.151l-1.727-.424c-1.379-.341-2-.803-2-1.697 0-1 1.06-1.728 2.485-1.728 1.56 0 2.204.864 2.515 1.667l1.606-.454Zm7.788 9.272c2.363 0 4.09-1.182 4.636-2.939l-1.727-.485c-.455 1.212-1.508 1.818-2.909 1.818-2.099 0-3.546-1.356-3.629-3.848h8.447v-.758c0-4.333-2.576-5.818-5-5.818-3.152 0-5.243 2.485-5.243 6.061 0 3.575 2.061 5.969 5.425 5.969Zm-3.629-7c.121-1.81 1.401-3.424 3.447-3.424 1.939 0 3.182 1.455 3.182 3.424h-6.629Zm15.568 7c2.242 0 3-1.394 3.394-2.03h.212v1.788h1.727V46.082h-1.788v5.727h-.151c-.394-.606-1.091-2-3.364-2-2.939 0-4.969 2.333-4.969 6 0 3.697 2.03 6.03 4.939 6.03Zm.242-1.606c-2.242 0-3.393-1.97-3.393-4.454 0-2.455 1.121-4.364 3.393-4.364 2.182 0 3.334 1.758 3.334 4.364 0 2.636-1.182 4.454-3.334 4.454Zm-217.664 44.182h-2.215v-.84c0-.834.347-1.299 1.285-1.299.396 0 .729.09.937.153l.507-1.945a6.269 6.269 0 0 0-1.909-.291c-1.854 0-3.334 1.062-3.334 3.215v1.007H744v1.944h1.576v8.722h2.514v-8.722h2.215v-1.944Zm4.028 0h-2.666l3.166 5.333-3.25 5.333h2.667l2.236-3.84 2.257 3.84h2.646l-3.271-5.333 3.215-5.333h-2.659l-2.188 3.937-2.153-3.937Zm11.979 10.882c1.674 0 2.674-.785 3.132-1.681h.084v1.465h2.416v-7.138c0-2.82-2.298-3.667-4.333-3.667-2.243 0-3.965 1-4.521 2.944l2.347.334c.25-.729.959-1.354 2.188-1.354 1.167 0 1.806.597 1.806 1.645v.042c0 .722-.757.757-2.639.958-2.07.223-4.049.841-4.049 3.243 0 2.098 1.535 3.209 3.569 3.209Zm.653-1.848c-1.048 0-1.798-.479-1.798-1.402 0-.966.84-1.368 1.965-1.528.66-.09 1.979-.257 2.305-.521v1.257c0 1.188-.958 2.194-2.472 2.194Zm7.514 1.632h2.514v-6.486c0-1.312.875-2.201 1.958-2.201 1.063 0 1.792.715 1.792 1.812v6.875h2.465v-6.652c0-1.202.716-2.035 1.931-2.035 1.014 0 1.819.597 1.819 1.917v6.77h2.521v-7.159c0-2.382-1.375-3.646-3.333-3.646-1.549 0-2.729.764-3.202 1.951h-.111c-.409-1.208-1.444-1.951-2.882-1.951-1.43 0-2.5.736-2.944 1.951h-.125v-1.812h-2.403v10.666Zm20.625.216c1.674 0 2.674-.785 3.132-1.681h.083v1.465h2.417v-7.138c0-2.82-2.299-3.667-4.333-3.667-2.243 0-3.965 1-4.521 2.944l2.347.334c.25-.729.959-1.354 2.188-1.354 1.166 0 1.805.597 1.805 1.645v.042c0 .722-.757.757-2.639.958-2.069.223-4.048.841-4.048 3.243 0 2.098 1.534 3.209 3.569 3.209Zm.653-1.848c-1.049 0-1.799-.479-1.799-1.402 0-.966.841-1.368 1.966-1.528.659-.09 1.979-.257 2.305-.521v1.257c0 1.188-.958 2.194-2.472 2.194Zm12.167 1.841c2.68 0 4.388-1.591 4.569-3.854h-2.403c-.215 1.145-1.041 1.805-2.146 1.805-1.569 0-2.583-1.312-2.583-3.493 0-2.153 1.035-3.444 2.583-3.444 1.209 0 1.952.777 2.146 1.805h2.403c-.174-2.312-1.979-3.833-4.583-3.833-3.125 0-5.097 2.257-5.097 5.514 0 3.229 1.923 5.5 5.111 5.5Zm6.639-.209h2.513v-3.583l.917-.979 3.264 4.562h3.007l-4.375-6.062 4.132-4.604h-2.938l-3.833 4.284h-.174v-7.84h-2.513v14.222Zm15.402.209c2.486 0 4.195-1.216 4.639-3.07l-2.347-.264c-.34.903-1.174 1.375-2.257 1.375-1.625 0-2.701-1.069-2.722-2.895h7.43v-.771c0-3.743-2.25-5.389-4.875-5.389-3.055 0-5.048 2.243-5.048 5.535 0 3.347 1.965 5.479 5.18 5.479Zm-2.68-6.549c.076-1.361 1.083-2.507 2.583-2.507 1.445 0 2.417 1.056 2.431 2.507h-5.014Zm9.548 6.34h2.514v-6.27c0-1.355 1.021-2.313 2.403-2.313.424 0 .951.077 1.167.146v-2.313a6.127 6.127 0 0 0-.903-.069c-1.222 0-2.243.694-2.632 1.931h-.111v-1.778h-2.438v10.666Zm12.938-14.888h-2.201l-4.584 17.027h2.202l4.583-17.027Zm6.25 15.097c2.68 0 4.389-1.591 4.569-3.854h-2.402c-.216 1.145-1.042 1.805-2.146 1.805-1.57 0-2.584-1.312-2.584-3.493 0-2.153 1.035-3.444 2.584-3.444 1.208 0 1.951.777 2.146 1.805h2.402c-.173-2.312-1.979-3.833-4.583-3.833-3.125 0-5.097 2.257-5.097 5.514 0 3.229 1.923 5.5 5.111 5.5Zm6.75-.209h2.472v-1.68h.146c.396.778 1.222 1.868 3.056 1.868 2.513 0 4.395-1.993 4.395-5.507 0-3.556-1.937-5.486-4.402-5.486-1.882 0-2.667 1.132-3.049 1.903h-.104v-5.32h-2.514v14.222Zm2.465-5.333c0-2.069.889-3.41 2.507-3.41 1.674 0 2.535 1.424 2.535 3.41 0 2-.875 3.458-2.535 3.458-1.604 0-2.507-1.388-2.507-3.458Zm14.403 5.542c3.125 0 5.111-2.202 5.111-5.5 0-3.306-1.986-5.514-5.111-5.514s-5.111 2.208-5.111 5.514c0 3.298 1.986 5.5 5.111 5.5Zm.014-2.014c-1.729 0-2.576-1.542-2.576-3.493 0-1.952.847-3.514 2.576-3.514 1.701 0 2.548 1.562 2.548 3.514 0 1.951-.847 3.493-2.548 3.493Zm7.222 1.805h2.514v-6.27c0-1.355 1.021-2.313 2.403-2.313.423 0 .951.077 1.166.146v-2.313a6.124 6.124 0 0 0-.902-.069c-1.223 0-2.243.694-2.632 1.931h-.111v-1.778h-2.438v10.666Zm12.584 0h9.749v-2.152h-6.194v-.098l2.451-2.493c2.764-2.652 3.528-3.944 3.528-5.548 0-2.382-1.937-4.125-4.798-4.125-2.82 0-4.82 1.75-4.82 4.451h2.452c0-1.451.916-2.361 2.333-2.361 1.354 0 2.361.826 2.361 2.167 0 1.187-.722 2.034-2.125 3.458l-4.937 4.84v1.861Zm13.729.153c.819 0 1.52-.68 1.527-1.528a1.542 1.542 0 0 0-1.527-1.513c-.848 0-1.535.68-1.528 1.513a1.518 1.518 0 0 0 1.528 1.528Zm8.736.042c3.041 0 5.257-1.743 5.25-4.146.007-1.778-1.104-3.056-3.097-3.34v-.111c1.541-.334 2.576-1.479 2.569-3.077.007-2.166-1.84-3.937-4.681-3.937-2.763 0-4.902 1.646-4.958 4.028h2.479c.042-1.195 1.153-1.938 2.466-1.938 1.326 0 2.208.806 2.201 2 .007 1.243-1.021 2.07-2.493 2.07h-1.257v1.986h1.257c1.798 0 2.868.902 2.861 2.187.007 1.257-1.083 2.118-2.604 2.118-1.431 0-2.535-.743-2.597-1.903h-2.611c.069 2.403 2.215 4.063 5.215 4.063Zm-171.125 92.229c0 1.625-1.16 2.431-2.271 2.431-1.209 0-2.014-.855-2.014-2.209v-6.402H744v6.791c0 2.563 1.458 4.014 3.555 4.014 1.598 0 2.723-.84 3.209-2.035h.111v1.896h2.437v-10.666h-2.513v6.18Zm9.736 8.708c2.882 0 5.007-1.319 5.007-4.048v-10.84h-2.48v1.763h-.138c-.382-.77-1.181-1.902-3.063-1.902-2.465 0-4.403 1.93-4.403 5.437 0 3.479 1.938 5.215 4.396 5.215 1.826 0 2.681-.979 3.07-1.764h.125v2.021c0 1.57-1.042 2.216-2.473 2.216-1.514 0-2.18-.716-2.486-1.341l-2.264.549c.459 1.493 1.993 2.694 4.709 2.694Zm.02-6.347c-1.659 0-2.534-1.292-2.534-3.257 0-1.937.861-3.361 2.534-3.361 1.619 0 2.507 1.34 2.507 3.361 0 2.035-.902 3.257-2.507 3.257Zm12.223 2.333c3.125 0 5.111-2.201 5.111-5.5 0-3.305-1.986-5.513-5.111-5.513s-5.111 2.208-5.111 5.513c0 3.299 1.986 5.5 5.111 5.5Zm.014-2.013c-1.73 0-2.577-1.542-2.577-3.493 0-1.952.847-3.514 2.577-3.514 1.701 0 2.548 1.562 2.548 3.514 0 1.951-.847 3.493-2.548 3.493Zm7.222 1.805h2.514v-6.271c0-1.354 1.021-2.312 2.403-2.312.423 0 .951.076 1.166.146v-2.313a6.127 6.127 0 0 0-.903-.069c-1.222 0-2.243.694-2.632 1.93h-.111v-1.777h-2.437v10.666Zm7.757-10.666v11.242c0 .896-.382 1.375-1.347 1.375-.125 0-.223-.006-.361-.013v2.048c.18.014.333.014.513.014 2.355 0 3.709-1.083 3.709-3.389v-11.277h-2.514Zm1.25-1.514c.798 0 1.451-.611 1.451-1.361 0-.757-.653-1.368-1.451-1.368-.806 0-1.458.611-1.458 1.368 0 .75.652 1.361 1.458 1.361Zm3.847 12.18h2.514v-10.666h-2.514v10.666Zm1.264-12.18c.799 0 1.451-.611 1.451-1.361 0-.757-.652-1.368-1.451-1.368-.806 0-1.458.611-1.458 1.368 0 .75.652 1.361 1.458 1.361Zm9.639-2.709h-2.202l-4.583 17.028h2.202l4.583-17.028Zm6.236 19.111c2.882 0 5.007-1.319 5.007-4.048v-10.84h-2.479v1.763h-.139c-.382-.77-1.181-1.902-3.063-1.902-2.465 0-4.402 1.93-4.402 5.437 0 3.479 1.937 5.215 4.395 5.215 1.827 0 2.681-.979 3.07-1.764h.125v2.021c0 1.57-1.042 2.216-2.472 2.216-1.514 0-2.181-.716-2.486-1.341l-2.264.549c.458 1.493 1.993 2.694 4.708 2.694Zm.021-6.347c-1.66 0-2.535-1.292-2.535-3.257 0-1.937.861-3.361 2.535-3.361 1.618 0 2.507 1.34 2.507 3.361 0 2.035-.903 3.257-2.507 3.257Zm12.222 2.333c3.125 0 5.111-2.201 5.111-5.5 0-3.305-1.986-5.513-5.111-5.513s-5.111 2.208-5.111 5.513c0 3.299 1.986 5.5 5.111 5.5Zm.014-2.013c-1.729 0-2.576-1.542-2.576-3.493 0-1.952.847-3.514 2.576-3.514 1.701 0 2.548 1.562 2.548 3.514 0 1.951-.847 3.493-2.548 3.493Zm17.833-12.417h-2.451l-3.535 2.271v2.361l3.327-2.125h.083v11.715h2.576v-14.222Zm4.417 14.375c.819 0 1.521-.681 1.528-1.528a1.544 1.544 0 0 0-1.528-1.514c-.847 0-1.535.681-1.528 1.514a1.52 1.52 0 0 0 1.528 1.528Zm4.104-.153h9.75v-2.153h-6.194v-.097l2.451-2.493c2.764-2.653 3.528-3.944 3.528-5.548 0-2.382-1.938-4.125-4.799-4.125-2.819 0-4.819 1.75-4.819 4.451h2.451c0-1.451.917-2.361 2.333-2.361 1.355 0 2.362.826 2.362 2.166 0 1.188-.723 2.035-2.125 3.459l-4.938 4.84v1.861Zm13.729.153c.82 0 1.521-.681 1.528-1.528a1.543 1.543 0 0 0-1.528-1.514c-.847 0-1.534.681-1.527 1.514a1.519 1.519 0 0 0 1.527 1.528Zm8.757.042c3.07.02 5.132-2.091 5.125-4.903.007-2.688-1.91-4.632-4.403-4.632-1.527 0-2.875.743-3.555 1.965h-.097c.007-2.993 1.104-4.812 3.076-4.812 1.222 0 2.049.708 2.313 1.798h2.534c-.305-2.298-2.159-4.027-4.847-4.027-3.417 0-5.576 2.847-5.576 7.708-.007 5.215 2.701 6.889 5.43 6.903Zm-.014-2.084c-1.52 0-2.632-1.257-2.639-2.743.014-1.493 1.167-2.743 2.674-2.743s2.611 1.195 2.604 2.722c.007 1.556-1.132 2.764-2.639 2.764ZM35.276 126.195h8.694v-1.527h-6.972v-4.834h6.416v-1.527h-6.416v-4.806h6.861v-1.528h-8.583v14.222Zm13.111-6.416c0-1.861 1.152-2.917 2.722-2.917 1.521 0 2.444.993 2.444 2.667v6.666h1.639v-6.777c0-2.722-1.451-4.028-3.611-4.028-1.611 0-2.611.722-3.111 1.806h-.139v-1.667h-1.583v10.666h1.639v-6.416Zm14.139 6.639c2.361 0 3.916-1.445 4.194-3.334h-1.639c-.305 1.167-1.278 1.862-2.555 1.862-1.945 0-3.195-1.612-3.195-4.084 0-2.416 1.278-4 3.195-4 1.444 0 2.305.889 2.555 1.861h1.639c-.278-2-1.972-3.333-4.222-3.333-2.889 0-4.806 2.278-4.806 5.528 0 3.194 1.834 5.5 4.834 5.5Zm10.916 0c2.889 0 4.834-2.195 4.834-5.5 0-3.334-1.945-5.528-4.834-5.528-2.889 0-4.833 2.194-4.833 5.528 0 3.305 1.944 5.5 4.833 5.5Zm0-1.472c-2.194 0-3.194-1.889-3.194-4.028 0-2.139 1-4.056 3.194-4.056 2.195 0 3.195 1.917 3.195 4.056 0 2.139-1 4.028-3.195 4.028Zm11.361 1.472c2.056 0 2.75-1.278 3.111-1.861h.195v1.638h1.583v-14.222h-1.639v5.25h-.139c-.361-.555-1-1.833-3.083-1.833-2.694 0-4.555 2.139-4.555 5.5 0 3.389 1.861 5.528 4.527 5.528Zm.223-1.472c-2.056 0-3.111-1.806-3.111-4.084 0-2.25 1.027-4 3.111-4 2 0 3.055 1.611 3.055 4 0 2.417-1.083 4.084-3.055 4.084Zm7.889 1.249h1.638v-10.666h-1.638v10.666Zm.833-12.444c.639 0 1.167-.5 1.167-1.111s-.528-1.111-1.167-1.111-1.167.5-1.167 1.111.528 1.111 1.167 1.111Zm5.444 6.028c0-1.861 1.153-2.917 2.723-2.917 1.52 0 2.444.993 2.444 2.667v6.666h1.639v-6.777c0-2.722-1.452-4.028-3.611-4.028-1.611 0-2.611.722-3.111 1.806h-.139v-1.667h-1.584v10.666h1.639v-6.416Zm14.111 10.639c2.556 0 4.611-1.167 4.611-3.917v-10.972h-1.583v1.694h-.167c-.361-.555-1.027-1.833-3.111-1.833-2.694 0-4.555 2.139-4.555 5.417 0 3.333 1.944 5.222 4.528 5.222 2.083 0 2.75-1.222 3.111-1.806h.139v2.167c0 1.778-1.25 2.583-2.973 2.583-1.937 0-2.618-1.021-3.055-1.611l-1.306.917c.667 1.118 1.979 2.139 4.361 2.139Zm-.055-5.861c-2.056 0-3.111-1.556-3.111-3.778 0-2.167 1.028-3.917 3.111-3.917 2 0 3.055 1.611 3.055 3.917 0 2.361-1.083 3.778-3.055 3.778Zm17.778 1.638c4.333 0 6.777-2.694 6.777-7.138 0-4.417-2.444-7.084-6.583-7.084h-4.583v14.222h4.389Zm-2.667-1.527v-11.167h2.75c3.333 0 5.028 2.111 5.028 5.556 0 3.472-1.695 5.611-5.222 5.611h-2.556Zm18.833-2.834c0 2-1.527 2.917-2.75 2.917-1.361 0-2.333-1-2.333-2.555v-6.667h-1.639v6.778c0 2.722 1.445 4.027 3.445 4.027 1.611 0 2.666-.861 3.166-1.944h.111v1.805h1.639v-10.666h-1.639v6.305Zm4.639 4.361h1.639v-6.749c0-1.445 1.139-2.5 2.695-2.5.437 0 .888.083 1 .111v-1.667a15.648 15.648 0 0 0-.862-.028c-1.277 0-2.388.722-2.777 1.778h-.111v-1.611h-1.584v10.666Zm10.417.25c1.861 0 2.833-.999 3.167-1.694h.083v1.444h1.639v-7.027c0-3.389-2.584-3.778-3.945-3.778-1.611 0-3.444.556-4.277 2.5l1.555.556c.361-.778 1.215-1.612 2.778-1.612 1.507 0 2.25.799 2.25 2.167v.056c0 .791-.806.722-2.75.972-1.979.257-4.139.694-4.139 3.139 0 2.083 1.611 3.277 3.639 3.277Zm.25-1.472c-1.306 0-2.25-.583-2.25-1.722 0-1.25 1.139-1.639 2.417-1.805.694-.084 2.555-.278 2.833-.612v1.5c0 1.334-1.056 2.639-3 2.639Zm12.278-9.444h-2.278v-2.556h-1.639v2.556h-1.611v1.389h1.611v6.666c0 1.862 1.5 2.75 2.889 2.75.611 0 1-.111 1.222-.194l-.333-1.472c-.139.028-.361.083-.722.083-.723 0-1.417-.222-1.417-1.611v-6.222h2.278v-1.389Zm2.472 10.666h1.639v-10.666h-1.639v10.666Zm.833-12.444c.639 0 1.167-.5 1.167-1.111s-.528-1.111-1.167-1.111-1.166.5-1.166 1.111.527 1.111 1.166 1.111Zm8.139 12.667c2.889 0 4.833-2.195 4.833-5.5 0-3.334-1.944-5.528-4.833-5.528-2.889 0-4.833 2.194-4.833 5.528 0 3.305 1.944 5.5 4.833 5.5Zm0-1.472c-2.194 0-3.194-1.889-3.194-4.028 0-2.139 1-4.056 3.194-4.056 2.195 0 3.195 1.917 3.195 4.056 0 2.139-1 4.028-3.195 4.028Zm8.972-5.167c0-1.861 1.153-2.917 2.723-2.917 1.52 0 2.444.993 2.444 2.667v6.666h1.639v-6.777c0-2.722-1.451-4.028-3.611-4.028-1.611 0-2.611.722-3.111 1.806h-.139v-1.667h-1.583v10.666h1.638v-6.416ZM39.664 200.611c4.334 0 6.778-2.694 6.778-7.138 0-4.417-2.444-7.084-6.583-7.084h-4.583v14.222h4.388Zm-2.666-1.527v-11.167h2.75c3.333 0 5.028 2.111 5.028 5.556 0 3.472-1.695 5.611-5.223 5.611h-2.555Zm16.583 1.75c2.167 0 3.75-1.084 4.25-2.695l-1.583-.444c-.417 1.111-1.382 1.666-2.667 1.666-1.923 0-3.25-1.243-3.326-3.527h7.743v-.695c0-3.972-2.361-5.333-4.584-5.333-2.888 0-4.805 2.278-4.805 5.555 0 3.278 1.889 5.473 4.972 5.473Zm-3.326-6.417c.111-1.66 1.284-3.139 3.159-3.139 1.778 0 2.917 1.333 2.917 3.139h-6.076Zm14.576 6.417c2.361 0 3.917-1.445 4.195-3.334h-1.639c-.306 1.167-1.278 1.861-2.556 1.861-1.944 0-3.194-1.611-3.194-4.083 0-2.417 1.277-4 3.194-4 1.445 0 2.306.889 2.556 1.861h1.639c-.278-2-1.973-3.333-4.223-3.333-2.888 0-4.805 2.278-4.805 5.528 0 3.194 1.833 5.5 4.833 5.5Zm10.917 0c2.889 0 4.833-2.195 4.833-5.5 0-3.334-1.944-5.528-4.833-5.528-2.889 0-4.833 2.194-4.833 5.528 0 3.305 1.944 5.5 4.833 5.5Zm0-1.473c-2.195 0-3.195-1.888-3.195-4.027 0-2.139 1-4.056 3.195-4.056 2.194 0 3.194 1.917 3.194 4.056 0 2.139-1 4.027-3.194 4.027Zm11.361 1.473c2.055 0 2.75-1.278 3.111-1.861h.194v1.638h1.584v-14.222h-1.639v5.25h-.139c-.361-.555-1-1.833-3.083-1.833-2.695 0-4.556 2.139-4.556 5.5 0 3.389 1.861 5.528 4.528 5.528Zm.222-1.473c-2.055 0-3.111-1.805-3.111-4.083 0-2.25 1.028-4 3.111-4 2 0 3.056 1.611 3.056 4 0 2.417-1.084 4.083-3.056 4.083Zm7.889 1.25h1.639v-10.666H95.22v10.666Zm.833-12.444c.639 0 1.167-.5 1.167-1.111s-.528-1.111-1.167-1.111c-.638 0-1.166.5-1.166 1.111s.528 1.111 1.166 1.111Zm5.445 6.028c0-1.861 1.153-2.917 2.722-2.917 1.521 0 2.444.993 2.444 2.667v6.666h1.639v-6.777c0-2.723-1.451-4.028-3.611-4.028-1.611 0-2.611.722-3.111 1.805h-.139v-1.666h-1.583v10.666h1.639v-6.416Zm14.111 10.639c2.556 0 4.611-1.167 4.611-3.917v-10.972h-1.583v1.694h-.167c-.361-.555-1.028-1.833-3.111-1.833-2.694 0-4.556 2.139-4.556 5.417 0 3.333 1.945 5.222 4.528 5.222 2.084 0 2.75-1.222 3.111-1.806h.139v2.167c0 1.778-1.25 2.583-2.972 2.583-1.938 0-2.618-1.021-3.056-1.611l-1.305.917c.667 1.118 1.979 2.139 4.361 2.139Zm-.056-5.861c-2.055 0-3.111-1.556-3.111-3.778 0-2.167 1.028-3.917 3.111-3.917 2 0 3.056 1.611 3.056 3.917 0 2.361-1.083 3.778-3.056 3.778Zm17.778 1.638c4.334 0 6.778-2.694 6.778-7.138 0-4.417-2.444-7.084-6.583-7.084h-4.584v14.222h4.389Zm-2.666-1.527v-11.167h2.75c3.333 0 5.027 2.111 5.027 5.556 0 3.472-1.694 5.611-5.222 5.611h-2.555Zm18.833-2.834c0 2-1.528 2.917-2.75 2.917-1.361 0-2.333-1-2.333-2.556v-6.666h-1.639v6.778c0 2.722 1.444 4.027 3.444 4.027 1.611 0 2.667-.861 3.167-1.944h.111v1.805h1.639v-10.666h-1.639v6.305Zm4.639 4.361h1.639v-6.75c0-1.444 1.139-2.5 2.694-2.5.438 0 .889.084 1 .112v-1.667a15.61 15.61 0 0 0-.861-.028c-1.278 0-2.389.722-2.778 1.778h-.111v-1.611h-1.583v10.666Zm10.416.25c1.862 0 2.834-1 3.167-1.694h.083v1.444h1.639v-7.027c0-3.389-2.583-3.778-3.944-3.778-1.611 0-3.444.555-4.278 2.5l1.556.555c.361-.777 1.215-1.611 2.777-1.611 1.507 0 2.25.799 2.25 2.167v.056c0 .791-.805.722-2.75.972-1.979.257-4.138.694-4.138 3.139 0 2.083 1.611 3.277 3.638 3.277Zm.25-1.472c-1.305 0-2.249-.583-2.249-1.722 0-1.25 1.138-1.639 2.416-1.806.695-.083 2.556-.277 2.833-.611v1.5c0 1.334-1.055 2.639-3 2.639Zm12.278-9.444h-2.277v-2.556h-1.639v2.556h-1.611v1.389h1.611V198c0 1.861 1.5 2.75 2.888 2.75.612 0 1-.111 1.223-.194l-.334-1.472c-.139.027-.361.083-.722.083-.722 0-1.416-.222-1.416-1.611v-6.222h2.277v-1.389Zm2.473 10.666h1.638v-10.666h-1.638v10.666Zm.833-12.444c.639 0 1.167-.5 1.167-1.111s-.528-1.111-1.167-1.111-1.167.5-1.167 1.111.528 1.111 1.167 1.111Zm8.139 12.667c2.889 0 4.833-2.195 4.833-5.5 0-3.334-1.944-5.528-4.833-5.528-2.889 0-4.834 2.194-4.834 5.528 0 3.305 1.945 5.5 4.834 5.5Zm0-1.473c-2.195 0-3.195-1.888-3.195-4.027 0-2.139 1-4.056 3.195-4.056 2.194 0 3.194 1.917 3.194 4.056 0 2.139-1 4.027-3.194 4.027Zm8.972-5.166c0-1.861 1.153-2.917 2.722-2.917 1.521 0 2.445.993 2.445 2.667v6.666h1.638v-6.777c0-2.723-1.451-4.028-3.611-4.028-1.611 0-2.611.722-3.111 1.805h-.139v-1.666h-1.583v10.666h1.639v-6.416ZM9.873 337.526c2.361 0 3.916-1.445 4.194-3.333h-1.639c-.305 1.166-1.278 1.861-2.555 1.861-1.945 0-3.195-1.611-3.195-4.084 0-2.416 1.278-4 3.195-4 1.444 0 2.305.889 2.555 1.861h1.639c-.278-2-1.972-3.333-4.222-3.333-2.889 0-4.806 2.278-4.806 5.528 0 3.194 1.834 5.5 4.834 5.5Zm10.916 0c2.889 0 4.834-2.195 4.834-5.5 0-3.333-1.945-5.528-4.834-5.528-2.889 0-4.833 2.195-4.833 5.528 0 3.305 1.944 5.5 4.833 5.5Zm0-1.472c-2.194 0-3.194-1.889-3.194-4.028 0-2.139 1-4.056 3.194-4.056 2.195 0 3.195 1.917 3.195 4.056 0 2.139-1 4.028-3.195 4.028Zm11.361 1.472c2.056 0 2.75-1.278 3.112-1.861h.194v1.639h1.583v-14.222H35.4v5.249h-.138c-.362-.555-1-1.833-3.084-1.833-2.694 0-4.555 2.139-4.555 5.5 0 3.389 1.861 5.528 4.527 5.528Zm.223-1.472c-2.056 0-3.111-1.806-3.111-4.084 0-2.25 1.027-4 3.111-4 2 0 3.055 1.611 3.055 4 0 2.417-1.083 4.084-3.055 4.084Zm12.361 1.472c2.166 0 3.75-1.084 4.25-2.695l-1.584-.444c-.416 1.111-1.381 1.667-2.666 1.667-1.924 0-3.25-1.243-3.327-3.528h7.743v-.695c0-3.972-2.361-5.333-4.583-5.333-2.889 0-4.805 2.278-4.805 5.556 0 3.277 1.889 5.472 4.972 5.472Zm-3.327-6.417c.112-1.659 1.285-3.139 3.16-3.139 1.778 0 2.917 1.334 2.917 3.139h-6.077Zm14.577 6.417c2.361 0 3.916-1.445 4.194-3.333h-1.639c-.305 1.166-1.277 1.861-2.555 1.861-1.945 0-3.195-1.611-3.195-4.084 0-2.416 1.278-4 3.195-4 1.444 0 2.305.889 2.555 1.861h1.639c-.278-2-1.972-3.333-4.222-3.333-2.889 0-4.805 2.278-4.805 5.528 0 3.194 1.833 5.5 4.833 5.5Zm7.778-.111c.687 0 1.25-.563 1.25-1.25 0-.688-.563-1.25-1.25-1.25-.688 0-1.25.562-1.25 1.25 0 .687.562 1.25 1.25 1.25Zm15.861-9.889c-.528-2.917-2.861-4.639-5.722-4.639-3.639 0-6.278 2.806-6.278 7.306s2.639 7.305 6.278 7.305c2.861 0 5.194-1.722 5.722-4.639H77.9c-.416 1.972-2.111 3.028-3.999 3.028-2.584 0-4.612-2-4.612-5.694 0-3.695 2.028-5.695 4.612-5.695 1.888 0 3.583 1.056 3.999 3.028h1.723Zm2.778 9.778h1.583v-1.639h.194c.361.583 1.056 1.861 3.111 1.861 2.667 0 4.528-2.139 4.528-5.528 0-3.361-1.861-5.5-4.555-5.5-2.084 0-2.723 1.278-3.084 1.833h-.139v-5.249h-1.638v14.222Zm1.611-5.334c0-2.389 1.055-4 3.055-4 2.084 0 3.111 1.75 3.111 4 0 2.278-1.055 4.084-3.111 4.084-1.972 0-3.055-1.667-3.055-4.084Zm14.639 5.556c2.888 0 4.833-2.195 4.833-5.5 0-3.333-1.945-5.528-4.833-5.528-2.889 0-4.834 2.195-4.834 5.528 0 3.305 1.945 5.5 4.834 5.5Zm0-1.472c-2.195 0-3.195-1.889-3.195-4.028 0-2.139 1-4.056 3.195-4.056 2.194 0 3.194 1.917 3.194 4.056 0 2.139-1 4.028-3.194 4.028Zm7.333 1.25h1.639v-6.75c0-1.445 1.139-2.5 2.694-2.5.438 0 .889.083 1 .111v-1.667a15.61 15.61 0 0 0-.861-.028c-1.278 0-2.389.723-2.778 1.778h-.111v-1.611h-1.583v10.667Zm7.5 0h1.722v-6.361h7.583v6.361h1.723v-14.222h-1.723v6.333h-7.583v-6.333h-1.722v14.222Zm17.389.25c1.861 0 2.833-1 3.166-1.695h.084v1.445h1.639v-7.028c0-3.389-2.584-3.778-3.945-3.778-1.611 0-3.444.556-4.277 2.5l1.555.556c.361-.778 1.215-1.611 2.778-1.611 1.507 0 2.25.798 2.25 2.166v.056c0 .791-.806.722-2.75.972-1.979.257-4.139.694-4.139 3.139 0 2.083 1.611 3.278 3.639 3.278Zm.25-1.473c-1.306 0-2.25-.583-2.25-1.722 0-1.25 1.139-1.639 2.416-1.805.695-.084 2.556-.278 2.834-.611v1.5c0 1.333-1.056 2.638-3 2.638Zm9.278-5.194c0-1.861 1.152-2.917 2.722-2.917 1.521 0 2.444.993 2.444 2.667v6.667h1.639v-6.778c0-2.722-1.451-4.028-3.611-4.028-1.611 0-2.611.722-3.111 1.806h-.139v-1.667h-1.583v10.667h1.639v-6.417Zm13.833 6.639c2.055 0 2.75-1.278 3.111-1.861h.194v1.639h1.584v-14.222h-1.639v5.249h-.139c-.361-.555-1-1.833-3.083-1.833-2.695 0-4.556 2.139-4.556 5.5 0 3.389 1.861 5.528 4.528 5.528Zm.222-1.472c-2.055 0-3.111-1.806-3.111-4.084 0-2.25 1.028-4 3.111-4 2 0 3.056 1.611 3.056 4 0 2.417-1.084 4.084-3.056 4.084Zm7.889-12.972h1.639v14.222h-1.639zm9.111 14.444c2.167 0 3.75-1.084 4.25-2.695l-1.583-.444c-.417 1.111-1.382 1.667-2.667 1.667-1.923 0-3.25-1.243-3.326-3.528h7.743v-.695c0-3.972-2.361-5.333-4.583-5.333-2.889 0-4.806 2.278-4.806 5.556 0 3.277 1.889 5.472 4.972 5.472Zm-3.326-6.417c.111-1.659 1.285-3.139 3.16-3.139 1.777 0 2.916 1.334 2.916 3.139h-6.076Zm16.326.195c0 3.5.945 6.416 2.639 8.888h1.445c-1.334-1.833-2.389-5.583-2.389-8.888 0-3.306 1.055-7.056 2.389-8.889h-1.445c-1.694 2.472-2.639 5.389-2.639 8.889Zm13.222 1.639c0 2-1.527 2.916-2.75 2.916-1.361 0-2.333-1-2.333-2.555v-6.667h-1.639v6.778c0 2.722 1.445 4.027 3.445 4.027 1.611 0 2.666-.861 3.166-1.944h.111v1.806h1.639v-10.667h-1.639v6.306Zm8.945 8.583c2.555 0 4.611-1.167 4.611-3.917v-10.972h-1.583v1.694h-.167c-.361-.555-1.028-1.833-3.111-1.833-2.695 0-4.556 2.139-4.556 5.417 0 3.333 1.945 5.222 4.528 5.222 2.083 0 2.75-1.222 3.111-1.806h.139v2.167c0 1.778-1.25 2.583-2.972 2.583-1.938 0-2.618-1.02-3.056-1.611l-1.305.917c.666 1.118 1.979 2.139 4.361 2.139Zm-.056-5.861c-2.055 0-3.111-1.556-3.111-3.778 0-2.167 1.028-3.917 3.111-3.917 2 0 3.056 1.611 3.056 3.917 0 2.361-1.083 3.778-3.056 3.778Zm12 1.861c2.889 0 4.834-2.195 4.834-5.5 0-3.333-1.945-5.528-4.834-5.528-2.889 0-4.833 2.195-4.833 5.528 0 3.305 1.944 5.5 4.833 5.5Zm0-1.472c-2.194 0-3.194-1.889-3.194-4.028 0-2.139 1-4.056 3.194-4.056 2.195 0 3.195 1.917 3.195 4.056 0 2.139-1 4.028-3.195 4.028Zm7.334 1.25h1.639v-6.75c0-1.445 1.138-2.5 2.694-2.5.438 0 .889.083 1 .111v-1.667a15.61 15.61 0 0 0-.861-.028c-1.278 0-2.389.723-2.778 1.778h-.111v-1.611h-1.583v10.667Zm7.278-10.667v11.444c0 1.084-.445 1.695-1.445 1.695h-.305v1.528h.333c2.055 0 3.055-1.25 3.055-3.223v-11.444h-1.638Zm.805-1.778c.639 0 1.167-.5 1.167-1.111s-.528-1.111-1.167-1.111-1.167.5-1.167 1.111.528 1.111 1.167 1.111Zm3.833 12.445h1.639v-10.667h-1.639v10.667Zm.834-12.445c.639 0 1.166-.5 1.166-1.111s-.527-1.111-1.166-1.111c-.639 0-1.167.5-1.167 1.111s.528 1.111 1.167 1.111Zm8.833-2.444h-1.5l-4.583 17.027h1.5l4.583-17.027Zm6.25 19.111c2.556 0 4.611-1.167 4.611-3.917v-10.972h-1.583v1.694h-.167c-.361-.555-1.028-1.833-3.111-1.833-2.694 0-4.555 2.139-4.555 5.417 0 3.333 1.944 5.222 4.527 5.222 2.084 0 2.75-1.222 3.111-1.806h.139v2.167c0 1.778-1.25 2.583-2.972 2.583-1.937 0-2.618-1.02-3.055-1.611l-1.306.917c.667 1.118 1.979 2.139 4.361 2.139Zm-.055-5.861c-2.056 0-3.112-1.556-3.112-3.778 0-2.167 1.028-3.917 3.112-3.917 1.999 0 3.055 1.611 3.055 3.917 0 2.361-1.083 3.778-3.055 3.778Zm12 1.861c2.888 0 4.833-2.195 4.833-5.5 0-3.333-1.945-5.528-4.833-5.528-2.889 0-4.834 2.195-4.834 5.528 0 3.305 1.945 5.5 4.834 5.5Zm0-1.472c-2.195 0-3.195-1.889-3.195-4.028 0-2.139 1-4.056 3.195-4.056 2.194 0 3.194 1.917 3.194 4.056 0 2.139-1 4.028-3.194 4.028Zm10.611-4.75c0-3.5-.945-6.417-2.639-8.889h-1.445c1.334 1.833 2.389 5.583 2.389 8.889 0 3.305-1.055 7.055-2.389 8.888h1.445c1.694-2.472 2.639-5.388 2.639-8.888Zm11.5 6h1.611l2.333-8.195h.167l2.333 8.195h1.611l3.25-10.667h-1.722l-2.306 8.139h-.111l-2.25-8.139h-1.75l-2.277 8.167h-.112l-2.305-8.167h-1.722l3.25 10.667Zm16.611.25c1.861 0 2.833-1 3.166-1.695h.084v1.445h1.639v-7.028c0-3.389-2.584-3.778-3.945-3.778-1.611 0-3.444.556-4.278 2.5l1.556.556c.361-.778 1.215-1.611 2.778-1.611 1.507 0 2.25.798 2.25 2.166v.056c0 .791-.806.722-2.75.972-1.979.257-4.139.694-4.139 3.139 0 2.083 1.611 3.278 3.639 3.278Zm.25-1.473c-1.306 0-2.25-.583-2.25-1.722 0-1.25 1.139-1.639 2.416-1.805.695-.084 2.556-.278 2.834-.611v1.5c0 1.333-1.056 2.638-3 2.638Zm15.194-7.055c-.514-1.514-1.666-2.528-3.778-2.528-2.25 0-3.916 1.278-3.916 3.083 0 1.473.875 2.459 2.833 2.917l1.778.417c1.076.25 1.583.764 1.583 1.5 0 .916-.972 1.666-2.5 1.666-1.34 0-2.18-.576-2.472-1.722l-1.555.389c.381 1.813 1.874 2.778 4.055 2.778 2.479 0 4.167-1.354 4.167-3.195 0-1.486-.931-2.423-2.834-2.888l-1.583-.389c-1.264-.313-1.833-.736-1.833-1.556 0-.917.972-1.583 2.277-1.583 1.431 0 2.021.791 2.306 1.528l1.472-.417Zm12.5 8.5c2.361 0 3.917-1.445 4.195-3.333h-1.639c-.306 1.166-1.278 1.861-2.556 1.861-1.944 0-3.194-1.611-3.194-4.084 0-2.416 1.278-4 3.194-4 1.445 0 2.306.889 2.556 1.861h1.639c-.278-2-1.973-3.333-4.223-3.333-2.888 0-4.805 2.278-4.805 5.528 0 3.194 1.833 5.5 4.833 5.5Zm6.584-.222h1.639v-6.75c0-1.445 1.138-2.5 2.694-2.5a5 5 0 0 1 1 .111v-1.667a15.643 15.643 0 0 0-.861-.028c-1.278 0-2.389.723-2.778 1.778h-.111v-1.611h-1.583v10.667Zm11.416.222c2.167 0 3.75-1.084 4.25-2.695l-1.583-.444c-.417 1.111-1.382 1.667-2.667 1.667-1.923 0-3.25-1.243-3.326-3.528h7.743v-.695c0-3.972-2.361-5.333-4.583-5.333-2.889 0-4.806 2.278-4.806 5.556 0 3.277 1.889 5.472 4.972 5.472Zm-3.326-6.417c.111-1.659 1.285-3.139 3.16-3.139 1.777 0 2.916 1.334 2.916 3.139h-6.076Zm13.382 6.445c1.861 0 2.833-1 3.166-1.695h.084v1.445h1.639v-7.028c0-3.389-2.584-3.778-3.945-3.778-1.611 0-3.444.556-4.277 2.5l1.555.556c.361-.778 1.215-1.611 2.778-1.611 1.507 0 2.25.798 2.25 2.166v.056c0 .791-.806.722-2.75.972-1.979.257-4.139.694-4.139 3.139 0 2.083 1.611 3.278 3.639 3.278Zm.25-1.473c-1.306 0-2.25-.583-2.25-1.722 0-1.25 1.139-1.639 2.417-1.805.694-.084 2.555-.278 2.833-.611v1.5c0 1.333-1.056 2.638-3 2.638Zm12.278-9.444h-2.278v-2.555h-1.639v2.555h-1.611v1.389h1.611v6.667c0 1.861 1.5 2.749 2.889 2.749.611 0 1-.111 1.222-.194l-.333-1.472c-.139.028-.361.083-.722.083-.723 0-1.417-.222-1.417-1.611v-6.222h2.278v-1.389Zm6.833 10.889c2.167 0 3.75-1.084 4.25-2.695l-1.583-.444c-.417 1.111-1.382 1.667-2.667 1.667-1.924 0-3.25-1.243-3.326-3.528h7.743v-.695c0-3.972-2.361-5.333-4.584-5.333-2.889 0-4.805 2.278-4.805 5.556 0 3.277 1.889 5.472 4.972 5.472Zm-3.326-6.417c.111-1.659 1.284-3.139 3.159-3.139 1.778 0 2.917 1.334 2.917 3.139h-6.076Zm14.27 6.417c2.056 0 2.75-1.278 3.112-1.861h.194v1.639h1.583v-14.222h-1.639v5.249h-.138c-.362-.555-1-1.833-3.084-1.833-2.694 0-4.555 2.139-4.555 5.5 0 3.389 1.861 5.528 4.527 5.528Zm.223-1.472c-2.056 0-3.111-1.806-3.111-4.084 0-2.25 1.027-4 3.111-4 2 0 3.055 1.611 3.055 4 0 2.417-1.083 4.084-3.055 4.084Zm17.722 1.472c2.889 0 4.833-2.195 4.833-5.5 0-3.333-1.944-5.528-4.833-5.528-2.889 0-4.833 2.195-4.833 5.528 0 3.305 1.944 5.5 4.833 5.5Zm0-1.472c-2.195 0-3.195-1.889-3.195-4.028 0-2.139 1-4.056 3.195-4.056 2.194 0 3.194 1.917 3.194 4.056 0 2.139-1 4.028-3.194 4.028Zm14.055-3.111c0 2-1.527 2.916-2.75 2.916-1.361 0-2.333-1-2.333-2.555v-6.667h-1.639v6.778c0 2.722 1.445 4.027 3.445 4.027 1.611 0 2.666-.861 3.166-1.944h.111v1.806h1.639v-10.667h-1.639v6.306Zm9.278-6.306h-2.278v-2.555h-1.638v2.555h-1.611v1.389h1.611v6.667c0 1.861 1.5 2.749 2.888 2.749.612 0 1-.111 1.223-.194l-.334-1.472c-.139.028-.361.083-.722.083-.722 0-1.417-.222-1.417-1.611v-6.222h2.278v-1.389Zm9.834 2.389c-.514-1.514-1.667-2.528-3.778-2.528-2.25 0-3.917 1.278-3.917 3.083 0 1.473.875 2.459 2.834 2.917l1.777.417c1.077.25 1.584.764 1.584 1.5 0 .916-.973 1.666-2.5 1.666-1.341 0-2.181-.576-2.473-1.722l-1.555.389c.382 1.813 1.875 2.778 4.055 2.778 2.48 0 4.167-1.354 4.167-3.195 0-1.486-.931-2.423-2.833-2.888l-1.584-.389c-1.263-.313-1.833-.736-1.833-1.556 0-.917.972-1.583 2.278-1.583 1.43 0 2.021.791 2.305 1.528l1.473-.417Zm2.666 8.278h1.639v-10.667h-1.639v10.667Zm.834-12.445c.639 0 1.166-.5 1.166-1.111s-.527-1.111-1.166-1.111c-.639 0-1.167.5-1.167 1.111s.528 1.111 1.167 1.111Zm7.833 12.667c2.055 0 2.75-1.278 3.111-1.861h.194v1.639h1.584v-14.222h-1.639v5.249h-.139c-.361-.555-1-1.833-3.083-1.833-2.695 0-4.556 2.139-4.556 5.5 0 3.389 1.861 5.528 4.528 5.528Zm.222-1.472c-2.055 0-3.111-1.806-3.111-4.084 0-2.25 1.028-4 3.111-4 2 0 3.056 1.611 3.056 4 0 2.417-1.084 4.084-3.056 4.084Zm12.361 1.472c2.167 0 3.75-1.084 4.25-2.695l-1.583-.444c-.417 1.111-1.382 1.667-2.667 1.667-1.923 0-3.25-1.243-3.326-3.528h7.743v-.695c0-3.972-2.361-5.333-4.583-5.333-2.889 0-4.806 2.278-4.806 5.556 0 3.277 1.889 5.472 4.972 5.472Zm-3.326-6.417c.111-1.659 1.285-3.139 3.16-3.139 1.777 0 2.916 1.334 2.916 3.139h-6.076Zm20.382-4.472h-2.278v-2.555h-1.639v2.555h-1.611v1.389h1.611v6.667c0 1.861 1.5 2.749 2.889 2.749.611 0 1-.111 1.222-.194l-.333-1.472c-.139.028-.361.083-.722.083-.722 0-1.417-.222-1.417-1.611v-6.222h2.278v-1.389Zm4.333 4.25c0-1.861 1.188-2.917 2.806-2.917 1.541 0 2.472.973 2.472 2.667v6.667h1.639v-6.778c0-2.743-1.458-4.028-3.639-4.028-1.681 0-2.639.702-3.139 1.806h-.139v-5.222h-1.639v14.222h1.639v-6.417Zm14.389 6.639c2.167 0 3.75-1.084 4.25-2.695l-1.583-.444c-.417 1.111-1.382 1.667-2.667 1.667-1.923 0-3.25-1.243-3.326-3.528h7.743v-.695c0-3.972-2.361-5.333-4.584-5.333-2.888 0-4.805 2.278-4.805 5.556 0 3.277 1.889 5.472 4.972 5.472Zm-3.326-6.417c.111-1.659 1.284-3.139 3.159-3.139 1.778 0 2.917 1.334 2.917 3.139h-6.076Zm15.965 6.195h1.583v-1.639h.195c.361.583 1.055 1.861 3.111 1.861 2.667 0 4.528-2.139 4.528-5.528 0-3.361-1.861-5.5-4.556-5.5-2.083 0-2.722 1.278-3.083 1.833h-.139v-5.249h-1.639v14.222Zm1.611-5.334c0-2.389 1.056-4 3.056-4 2.083 0 3.111 1.75 3.111 4 0 2.278-1.056 4.084-3.111 4.084-1.973 0-3.056-1.667-3.056-4.084Zm14.778 5.556c2.167 0 3.75-1.084 4.25-2.695l-1.583-.444c-.417 1.111-1.382 1.667-2.667 1.667-1.924 0-3.25-1.243-3.326-3.528h7.743v-.695c0-3.972-2.362-5.333-4.584-5.333-2.889 0-4.805 2.278-4.805 5.556 0 3.277 1.889 5.472 4.972 5.472Zm-3.326-6.417c.111-1.659 1.284-3.139 3.159-3.139 1.778 0 2.917 1.334 2.917 3.139h-6.076Zm11.882-.222c0-1.861 1.152-2.917 2.722-2.917 1.521 0 2.444.993 2.444 2.667v6.667h1.639v-6.778c0-2.722-1.451-4.028-3.611-4.028-1.611 0-2.611.722-3.111 1.806h-.139v-1.667h-1.583v10.667h1.639v-6.417Zm14.138 6.639c2.361 0 3.917-1.445 4.195-3.333h-1.639c-.306 1.166-1.278 1.861-2.556 1.861-1.944 0-3.194-1.611-3.194-4.084 0-2.416 1.278-4 3.194-4 1.445 0 2.306.889 2.556 1.861h1.639c-.278-2-1.972-3.333-4.222-3.333-2.889 0-4.806 2.278-4.806 5.528 0 3.194 1.833 5.5 4.833 5.5Zm8.223-6.639c0-1.861 1.187-2.917 2.805-2.917 1.542 0 2.472.973 2.472 2.667v6.667h1.639v-6.778c0-2.743-1.458-4.028-3.639-4.028-1.68 0-2.638.702-3.138 1.806h-.139v-5.222h-1.639v14.222h1.639v-6.417Zm9.916 6.417h1.639v-6.667c0-1.562 1.139-2.667 2.417-2.667 1.243 0 2.111.813 2.111 2.028v7.306h1.667v-6.945c0-1.375.861-2.389 2.361-2.389 1.166 0 2.166.618 2.166 2.195v7.139h1.639v-7.139c0-2.507-1.347-3.667-3.25-3.667-1.528 0-2.646.702-3.194 1.806h-.111c-.528-1.139-1.459-1.806-2.861-1.806-1.389 0-2.417.667-2.861 1.806h-.139v-1.667h-1.584v10.667Zm20.139.25c1.861 0 2.834-1 3.167-1.695h.083v1.445h1.639v-7.028c0-3.389-2.583-3.778-3.944-3.778-1.611 0-3.445.556-4.278 2.5l1.555.556c.362-.778 1.216-1.611 2.778-1.611 1.507 0 2.25.798 2.25 2.166v.056c0 .791-.805.722-2.75.972-1.979.257-4.139.694-4.139 3.139 0 2.083 1.611 3.278 3.639 3.278Zm.25-1.473c-1.305 0-2.25-.583-2.25-1.722 0-1.25 1.139-1.639 2.417-1.805.694-.084 2.555-.278 2.833-.611v1.5c0 1.333-1.055 2.638-3 2.638Zm7.639 1.223h1.639v-6.75c0-1.445 1.139-2.5 2.694-2.5.438 0 .889.083 1 .111v-1.667a15.61 15.61 0 0 0-.861-.028c-1.277 0-2.389.723-2.777 1.778h-.112v-1.611h-1.583v10.667Zm7.278 0h1.639v-3.993l1.146-1.063 3.993 5.056h2.083l-4.84-6.111 4.507-4.556h-2.028l-4.667 4.75h-.194v-8.305h-1.639v14.222Zm16.139-14.222h1.639v14.222h-1.639zm8.972 14.444c2.889 0 4.833-2.195 4.833-5.5 0-3.333-1.944-5.528-4.833-5.528-2.889 0-4.833 2.195-4.833 5.528 0 3.305 1.944 5.5 4.833 5.5Zm0-1.472c-2.194 0-3.194-1.889-3.194-4.028 0-2.139 1-4.056 3.194-4.056s3.194 1.917 3.194 4.056c0 2.139-1 4.028-3.194 4.028Zm11.667 1.472c2.889 0 4.833-2.195 4.833-5.5 0-3.333-1.944-5.528-4.833-5.528-2.889 0-4.834 2.195-4.834 5.528 0 3.305 1.945 5.5 4.834 5.5Zm0-1.472c-2.195 0-3.195-1.889-3.195-4.028 0-2.139 1-4.056 3.195-4.056 2.194 0 3.194 1.917 3.194 4.056 0 2.139-1 4.028-3.194 4.028Zm7.333 5.25h1.639v-5.639h.139c.361.583 1.055 1.861 3.111 1.861 2.667 0 4.528-2.139 4.528-5.528 0-3.361-1.861-5.5-4.556-5.5-2.083 0-2.722 1.278-3.083 1.833h-.195v-1.694h-1.583v14.667Zm1.611-9.334c0-2.389 1.056-4 3.056-4 2.083 0 3.111 1.75 3.111 4 0 2.278-1.056 4.084-3.111 4.084-1.972 0-3.056-1.667-3.056-4.084Zm11.5 5.445c.688 0 1.25-.563 1.25-1.25 0-.688-.562-1.25-1.25-1.25-.687 0-1.25.562-1.25 1.25 0 .687.563 1.25 1.25 1.25ZM5.039 307.97h5.139c3.361 0 4.75-1.639 4.75-3.778 0-2.25-1.555-3.472-2.861-3.555v-.139c1.222-.333 2.306-1.139 2.306-2.972 0-2.083-1.389-3.778-4.361-3.778H5.039v14.222Zm1.723-1.528v-4.944h3.5c1.861 0 3.027 1.25 3.027 2.694 0 1.25-.861 2.25-3.111 2.25H6.762Zm0-6.444v-4.722h3.25c1.888 0 2.722 1 2.722 2.25 0 1.5-1.222 2.472-2.778 2.472H6.762Zm15.25 8.194c2.166 0 3.75-1.083 4.25-2.694l-1.584-.444c-.416 1.111-1.382 1.666-2.666 1.666-1.924 0-3.25-1.243-3.327-3.528h7.743v-.694c0-3.972-2.361-5.333-4.583-5.333-2.889 0-4.806 2.278-4.806 5.555 0 3.278 1.889 5.472 4.973 5.472Zm-3.327-6.416c.111-1.66 1.285-3.139 3.16-3.139 1.778 0 2.917 1.333 2.917 3.139h-6.077Zm11.882-.222c0-1.861 1.153-2.917 2.722-2.917 1.521 0 2.445.993 2.445 2.667v6.666h1.639v-6.778c0-2.722-1.452-4.027-3.611-4.027-1.612 0-2.612.722-3.111 1.805h-.139v-1.666h-1.584v10.666h1.639v-6.416Zm14.139 6.638c2.361 0 3.917-1.444 4.194-3.333h-1.638c-.306 1.167-1.278 1.861-2.556 1.861-1.944 0-3.194-1.611-3.194-4.083 0-2.417 1.277-4 3.194-4 1.444 0 2.306.889 2.556 1.861H48.9c-.277-2-1.972-3.333-4.222-3.333-2.889 0-4.805 2.278-4.805 5.527 0 3.195 1.833 5.5 4.833 5.5Zm8.222-6.638c0-1.861 1.188-2.917 2.806-2.917 1.541 0 2.472.972 2.472 2.667v6.666h1.639v-6.778c0-2.743-1.458-4.027-3.639-4.027-1.68 0-2.639.701-3.139 1.805h-.139v-5.222h-1.639v14.222h1.639v-6.416Zm9.917 6.416h1.639v-6.666c0-1.563 1.139-2.667 2.417-2.667 1.243 0 2.111.812 2.111 2.028v7.305h1.666v-6.944c0-1.375.861-2.389 2.361-2.389 1.167 0 2.167.618 2.167 2.194v7.139h1.639v-7.139c0-2.507-1.347-3.666-3.25-3.666-1.528 0-2.646.701-3.195 1.805h-.111c-.527-1.139-1.458-1.805-2.861-1.805-1.389 0-2.416.666-2.861 1.805h-.139v-1.666h-1.583v10.666Zm20.139.25c1.861 0 2.833-1 3.167-1.694h.083v1.444h1.639v-7.028c0-3.388-2.584-3.777-3.945-3.777-1.611 0-3.444.555-4.277 2.5l1.555.555c.361-.777 1.215-1.611 2.778-1.611 1.507 0 2.25.799 2.25 2.167v.055c0 .792-.806.723-2.75.973-1.979.257-4.139.694-4.139 3.138 0 2.084 1.611 3.278 3.639 3.278Zm.25-1.472c-1.306 0-2.25-.583-2.25-1.722 0-1.25 1.139-1.639 2.417-1.806.694-.083 2.555-.278 2.833-.611v1.5c0 1.333-1.056 2.639-3 2.639Zm7.639 1.222h1.639v-6.75c0-1.444 1.139-2.5 2.694-2.5.438 0 .889.084 1 .111v-1.666a15.61 15.61 0 0 0-.861-.028c-1.278 0-2.389.722-2.778 1.778h-.111v-1.611h-1.583v10.666Zm7.278 0h1.638v-3.993l1.146-1.062 3.993 5.055h2.084l-4.841-6.111 4.507-4.555h-2.027l-4.667 4.75h-.195v-8.306h-1.638v14.222Zm18.194-8.277c-.514-1.514-1.667-2.528-3.778-2.528-2.25 0-3.916 1.278-3.916 3.083 0 1.472.875 2.458 2.833 2.917l1.778.416c1.076.25 1.583.764 1.583 1.5 0 .917-.972 1.667-2.5 1.667-1.34 0-2.181-.576-2.472-1.722l-1.556.389c.382 1.812 1.875 2.777 4.056 2.777 2.479 0 4.166-1.354 4.166-3.194 0-1.486-.93-2.424-2.833-2.889l-1.583-.389c-1.264-.312-1.834-.736-1.834-1.555 0-.917.973-1.584 2.278-1.584 1.431 0 2.021.792 2.306 1.528l1.472-.416Zm14.889 3.916c0 2-1.528 2.917-2.75 2.917-1.361 0-2.333-1-2.333-2.556v-6.666h-1.639v6.777c0 2.723 1.444 4.028 3.444 4.028 1.611 0 2.667-.861 3.167-1.944h.111v1.805h1.639v-10.666h-1.639v6.305Zm12.194-3.916c-.514-1.514-1.666-2.528-3.777-2.528-2.25 0-3.917 1.278-3.917 3.083 0 1.472.875 2.458 2.833 2.917l1.778.416c1.076.25 1.583.764 1.583 1.5 0 .917-.972 1.667-2.5 1.667-1.34 0-2.18-.576-2.472-1.722l-1.555.389c.382 1.812 1.875 2.777 4.055 2.777 2.479 0 4.167-1.354 4.167-3.194 0-1.486-.931-2.424-2.834-2.889l-1.583-.389c-1.264-.312-1.833-.736-1.833-1.555 0-.917.972-1.584 2.278-1.584 1.43 0 2.02.792 2.305 1.528l1.472-.416Zm7.139 8.499c2.167 0 3.75-1.083 4.25-2.694l-1.583-.444c-.417 1.111-1.382 1.666-2.667 1.666-1.923 0-3.25-1.243-3.326-3.528h7.743v-.694c0-3.972-2.361-5.333-4.583-5.333-2.889 0-4.806 2.278-4.806 5.555 0 3.278 1.889 5.472 4.972 5.472Zm-3.326-6.416c.111-1.66 1.285-3.139 3.16-3.139 1.777 0 2.916 1.333 2.916 3.139h-6.076Zm14.271 6.416c2.055 0 2.75-1.277 3.111-1.861h.194v1.639h1.584v-14.222h-1.639v5.25h-.139c-.361-.555-1-1.833-3.083-1.833-2.695 0-4.556 2.139-4.556 5.5 0 3.389 1.861 5.527 4.528 5.527Zm.222-1.472c-2.056 0-3.111-1.805-3.111-4.083 0-2.25 1.028-4 3.111-4 2 0 3.055 1.611 3.055 4 0 2.417-1.083 4.083-3.055 4.083Zm17.417 1.472c2.055 0 2.75-1.277 3.111-1.861h.194v1.639h1.583v-14.222h-1.638v5.25h-.139c-.361-.555-1-1.833-3.084-1.833-2.694 0-4.555 2.139-4.555 5.5 0 3.389 1.861 5.527 4.528 5.527Zm.222-1.472c-2.056 0-3.111-1.805-3.111-4.083 0-2.25 1.028-4 3.111-4 2 0 3.055 1.611 3.055 4 0 2.417-1.083 4.083-3.055 4.083Zm11.028 1.5c1.861 0 2.833-1 3.166-1.694h.084v1.444h1.639v-7.028c0-3.388-2.584-3.777-3.945-3.777-1.611 0-3.444.555-4.278 2.5l1.556.555c.361-.777 1.215-1.611 2.778-1.611 1.507 0 2.25.799 2.25 2.167v.055c0 .792-.806.723-2.75.973-1.979.257-4.139.694-4.139 3.138 0 2.084 1.611 3.278 3.639 3.278Zm.25-1.472c-1.306 0-2.25-.583-2.25-1.722 0-1.25 1.139-1.639 2.416-1.806.695-.083 2.556-.278 2.834-.611v1.5c0 1.333-1.056 2.639-3 2.639Zm12.277-9.444h-2.277v-2.556h-1.639v2.556h-1.611v1.389h1.611v6.666c0 1.861 1.5 2.75 2.889 2.75.611 0 1-.111 1.222-.194l-.333-1.473c-.139.028-.362.084-.723.084-.722 0-1.416-.222-1.416-1.611v-6.222h2.277v-1.389Zm5.612 10.916c1.861 0 2.833-1 3.166-1.694h.084v1.444h1.638v-7.028c0-3.388-2.583-3.777-3.944-3.777-1.611 0-3.444.555-4.278 2.5l1.556.555c.361-.777 1.215-1.611 2.778-1.611 1.506 0 2.25.799 2.25 2.167v.055c0 .792-.806.723-2.75.973-1.98.257-4.139.694-4.139 3.138 0 2.084 1.611 3.278 3.639 3.278Zm.25-1.472c-1.306 0-2.25-.583-2.25-1.722 0-1.25 1.138-1.639 2.416-1.806.695-.083 2.556-.278 2.834-.611v1.5c0 1.333-1.056 2.639-3 2.639Zm17.888-9.444h-2.388v-1.084c0-1.055.444-1.611 1.527-1.611.473 0 .75.111.917.167l.472-1.417c-.25-.111-.75-.278-1.555-.278-1.528 0-3 .917-3 2.75v1.473h-1.722v1.389h1.722v9.277h1.639v-9.277h2.388v-1.389Zm2.306 10.666h1.639v-6.75c0-1.444 1.139-2.5 2.694-2.5.438 0 .889.084 1 .111v-1.666a15.61 15.61 0 0 0-.861-.028c-1.278 0-2.389.722-2.777 1.778h-.112v-1.611h-1.583v10.666Zm11.278.222c2.889 0 4.833-2.194 4.833-5.5 0-3.333-1.944-5.527-4.833-5.527-2.889 0-4.833 2.194-4.833 5.527 0 3.306 1.944 5.5 4.833 5.5Zm0-1.472c-2.195 0-3.195-1.889-3.195-4.028 0-2.138 1-4.055 3.195-4.055 2.194 0 3.194 1.917 3.194 4.055 0 2.139-1 4.028-3.194 4.028Zm7.333 1.25h1.639v-6.666c0-1.563 1.139-2.667 2.417-2.667 1.243 0 2.111.812 2.111 2.028v7.305h1.666v-6.944c0-1.375.862-2.389 2.362-2.389 1.166 0 2.166.618 2.166 2.194v7.139h1.639v-7.139c0-2.507-1.347-3.666-3.25-3.666-1.528 0-2.646.701-3.194 1.805h-.111c-.528-1.139-1.459-1.805-2.862-1.805-1.388 0-2.416.666-2.861 1.805h-.138v-1.666h-1.584v10.666Zm22.722 0h1.723v-5.555h3.111c.125 0 .243 0 .361-.007l3 5.562h2l-3.215-5.875c1.812-.618 2.659-2.097 2.659-3.986 0-2.514-1.5-4.361-4.833-4.361h-4.806v14.222Zm1.723-7.111v-5.583h3.027c2.306 0 3.195 1.125 3.195 2.833 0 1.709-.889 2.75-3.167 2.75h-3.055Zm10.777 7.111h1.723v-6.361h6.166v-1.528h-6.166v-4.805h6.805v-1.528h-8.528v14.222Zm22.917-9.777c-.528-2.917-2.861-4.639-5.722-4.639-3.639 0-6.278 2.805-6.278 7.305s2.639 7.306 6.278 7.306c2.861 0 5.194-1.723 5.722-4.639h-1.722c-.417 1.972-2.111 3.028-4 3.028-2.583 0-4.611-2-4.611-5.695 0-3.694 2.028-5.694 4.611-5.694 1.889 0 3.583 1.055 4 3.028h1.722Zm12.583 9.972c2.841 0 4.82-1.66 4.834-3.973-.014-1.798-1.216-3.326-2.75-3.611v-.083c1.333-.347 2.208-1.653 2.222-3.167-.014-2.166-1.833-3.777-4.306-3.777-2.5 0-4.319 1.611-4.305 3.777-.014 1.514.861 2.82 2.222 3.167v.083c-1.562.285-2.764 1.813-2.75 3.611-.014 2.313 1.965 3.973 4.833 3.973Zm0-1.528c-1.951 0-3.152-1-3.138-2.528-.014-1.604 1.312-2.75 3.138-2.75 1.799 0 3.125 1.146 3.139 2.75-.014 1.528-1.215 2.528-3.139 2.528Zm0-6.75c-1.555 0-2.652-.972-2.638-2.444-.014-1.445 1.041-2.389 2.638-2.389 1.57 0 2.625.944 2.639 2.389-.014 1.472-1.111 2.444-2.639 2.444Zm12.306 8.278c2.757 0 4.806-1.73 4.806-4.056 0-1.805-1.07-3.118-2.862-3.416v-.112c1.438-.437 2.334-1.618 2.334-3.222 0-2.014-1.591-3.805-4.222-3.805-2.459 0-4.5 1.514-4.584 3.75h1.667c.062-1.417 1.41-2.25 2.889-2.25 1.569 0 2.583.951 2.583 2.389 0 1.5-1.173 2.472-2.861 2.472h-1.139v1.527h1.139c2.16 0 3.361 1.098 3.361 2.667 0 1.507-1.312 2.528-3.139 2.528-1.646 0-2.951-.847-3.055-2.222h-1.75c.104 2.236 2.076 3.75 4.833 3.75Zm12.167-14.611c-2.889-.035-4.75 2.139-4.75 4.75 0 2.75 2.028 4.722 4.472 4.722 1.472 0 2.722-.722 3.5-1.889h.111c0 3.5-1.361 5.5-3.556 5.5-1.499 0-2.416-.945-2.722-2.25h-1.694c.333 2.25 2.028 3.778 4.416 3.778 3.195 0 5.167-2.834 5.167-7.889 0-5.222-2.611-6.695-4.944-6.722Zm0 1.527c1.777 0 3.083 1.528 3.083 3.195 0 1.694-1.389 3.222-3.139 3.222-1.75 0-3.028-1.417-3.028-3.194 0-1.778 1.334-3.223 3.084-3.223Zm7.666 12.889h8.973v-1.528h-6.611v-.111l3.194-3.416c2.444-2.618 3.167-3.841 3.167-5.417 0-2.194-1.778-3.944-4.278-3.944-2.493 0-4.389 1.694-4.389 4.194h1.639c0-1.618 1.048-2.694 2.694-2.694 1.542 0 2.722.944 2.722 2.444 0 1.313-.77 2.285-2.416 4.083l-4.695 5.139v1.25Zm18.167 0 1.431-4.028h5.75l1.43 4.028h1.806l-5.222-14.222h-1.778l-5.222 14.222h1.805Zm1.972-5.555 2.278-6.417h.111l2.278 6.417h-4.667Zm10.445 9.555h1.639v-5.639h.139c.361.584 1.055 1.861 3.111 1.861 2.666 0 4.527-2.138 4.527-5.527 0-3.361-1.861-5.5-4.555-5.5-2.083 0-2.722 1.278-3.083 1.833h-.195v-1.694h-1.583v14.666Zm1.611-9.333c0-2.389 1.055-4 3.055-4 2.084 0 3.112 1.75 3.112 4 0 2.278-1.056 4.083-3.112 4.083-1.972 0-3.055-1.666-3.055-4.083Zm10.305 9.333h1.639v-5.639h.139c.361.584 1.056 1.861 3.111 1.861 2.667 0 4.528-2.138 4.528-5.527 0-3.361-1.861-5.5-4.555-5.5-2.084 0-2.723 1.278-3.084 1.833h-.194v-1.694h-1.584v14.666Zm1.612-9.333c0-2.389 1.055-4 3.055-4 2.083 0 3.111 1.75 3.111 4 0 2.278-1.055 4.083-3.111 4.083-1.972 0-3.055-1.666-3.055-4.083Zm14.777 5.555c2.167 0 3.75-1.083 4.25-2.694l-1.583-.444c-.417 1.111-1.382 1.666-2.667 1.666-1.923 0-3.25-1.243-3.326-3.528h7.743v-.694c0-3.972-2.361-5.333-4.583-5.333-2.889 0-4.806 2.278-4.806 5.555 0 3.278 1.889 5.472 4.972 5.472Zm-3.326-6.416c.111-1.66 1.285-3.139 3.16-3.139 1.777 0 2.916 1.333 2.916 3.139h-6.076Zm11.882-.222c0-1.861 1.153-2.917 2.722-2.917 1.521 0 2.445.993 2.445 2.667v6.666h1.638v-6.778c0-2.722-1.451-4.027-3.611-4.027-1.611 0-2.611.722-3.111 1.805h-.139v-1.666h-1.583v10.666h1.639v-6.416Zm13.833 6.638c2.056 0 2.75-1.277 3.111-1.861h.195v1.639h1.583v-14.222h-1.639v5.25h-.139c-.361-.555-1-1.833-3.083-1.833-2.694 0-4.555 2.139-4.555 5.5 0 3.389 1.861 5.527 4.527 5.527Zm.222-1.472c-2.055 0-3.111-1.805-3.111-4.083 0-2.25 1.028-4 3.111-4 2 0 3.056 1.611 3.056 4 0 2.417-1.083 4.083-3.056 4.083Zm7.889 1.25h1.639v-10.666h-1.639v10.666Zm.834-12.444c.639 0 1.166-.5 1.166-1.111s-.527-1.111-1.166-1.111c-.639 0-1.167.5-1.167 1.111s.528 1.111 1.167 1.111Zm5.028 1.778h-1.889l3.389 5.333-3.389 5.333h1.889l2.555-4.139 2.556 4.139h1.888l-3.444-5.333 3.444-5.333h-1.888l-2.556 4.361-2.555-4.361Zm15.638 10.666 1.431-4.028h5.75l1.43 4.028h1.806l-5.222-14.222h-1.778l-5.222 14.222h1.805Zm1.973-5.555 2.277-6.417h.112l2.277 6.417h-4.666Zm11.639 5.666c.687 0 1.25-.562 1.25-1.25 0-.687-.563-1.25-1.25-1.25-.688 0-1.25.563-1.25 1.25 0 .688.562 1.25 1.25 1.25Zm7.472-14.333h-1.722l-3.556 2.361v1.75l3.472-2.305h.084v12.416h1.722v-14.222Zm12.75 14.472c1.861 0 2.833-1 3.166-1.694h.084v1.444h1.639v-7.028c0-3.388-2.584-3.777-3.945-3.777-1.611 0-3.444.555-4.278 2.5l1.556.555c.361-.777 1.215-1.611 2.778-1.611 1.507 0 2.25.799 2.25 2.167v.055c0 .792-.806.723-2.75.973-1.979.257-4.139.694-4.139 3.138 0 2.084 1.611 3.278 3.639 3.278Zm.25-1.472c-1.306 0-2.25-.583-2.25-1.722 0-1.25 1.139-1.639 2.416-1.806.695-.083 2.556-.278 2.834-.611v1.5c0 1.333-1.056 2.639-3 2.639Zm15.194-7.055c-.514-1.514-1.666-2.528-3.778-2.528-2.25 0-3.916 1.278-3.916 3.083 0 1.472.875 2.458 2.833 2.917l1.778.416c1.076.25 1.583.764 1.583 1.5 0 .917-.972 1.667-2.5 1.667-1.34 0-2.18-.576-2.472-1.722l-1.555.389c.381 1.812 1.874 2.777 4.055 2.777 2.479 0 4.167-1.354 4.167-3.194 0-1.486-.931-2.424-2.834-2.889l-1.583-.389c-1.264-.312-1.833-.736-1.833-1.555 0-.917.972-1.584 2.277-1.584 1.431 0 2.021.792 2.306 1.528l1.472-.416Zm18.111-1.5h1.778c-.528-2.75-2.833-4.639-5.833-4.639-3.646 0-6.222 2.805-6.222 7.305s2.555 7.306 6.333 7.306c3.389 0 5.805-2.257 5.805-5.778v-1.528h-5.416v1.528h3.75c-.049 2.555-1.729 4.167-4.139 4.167-2.639 0-4.667-2-4.667-5.695 0-3.694 2.028-5.694 4.556-5.694 2.055 0 3.451 1.159 4.055 3.028Zm8.917 9.999c2.889 0 4.833-2.194 4.833-5.5 0-3.333-1.944-5.527-4.833-5.527-2.889 0-4.833 2.194-4.833 5.527 0 3.306 1.944 5.5 4.833 5.5Zm0-1.472c-2.194 0-3.194-1.889-3.194-4.028 0-2.138 1-4.055 3.194-4.055s3.194 1.917 3.194 4.055c0 2.139-1 4.028-3.194 4.028Zm20.389-7.027c-.514-1.514-1.667-2.528-3.778-2.528-2.25 0-3.916 1.278-3.916 3.083 0 1.472.875 2.458 2.833 2.917l1.778.416c1.076.25 1.583.764 1.583 1.5 0 .917-.972 1.667-2.5 1.667-1.34 0-2.181-.576-2.472-1.722l-1.556.389c.382 1.812 1.875 2.777 4.056 2.777 2.479 0 4.166-1.354 4.166-3.194 0-1.486-.93-2.424-2.833-2.889l-1.583-.389c-1.264-.312-1.834-.736-1.834-1.555 0-.917.973-1.584 2.278-1.584 1.431 0 2.021.792 2.306 1.528l1.472-.416Zm7.306-2.389h-2.278v-2.556h-1.639v2.556h-1.611v1.389h1.611v6.666c0 1.861 1.5 2.75 2.889 2.75.611 0 1-.111 1.222-.194l-.333-1.473c-.139.028-.361.084-.723.084-.722 0-1.416-.222-1.416-1.611v-6.222h2.278v-1.389Zm2.472 10.666h1.639v-6.75c0-1.444 1.139-2.5 2.694-2.5.438 0 .889.084 1 .111v-1.666a15.61 15.61 0 0 0-.861-.028c-1.278 0-2.389.722-2.778 1.778h-.111v-1.611h-1.583v10.666Zm14-4.361c0 2-1.528 2.917-2.75 2.917-1.361 0-2.334-1-2.334-2.556v-6.666h-1.638v6.777c0 2.723 1.444 4.028 3.444 4.028 1.611 0 2.667-.861 3.167-1.944h.111v1.805h1.639v-10.666h-1.639v6.305Zm8.972 4.583c2.361 0 3.917-1.444 4.194-3.333h-1.638c-.306 1.167-1.278 1.861-2.556 1.861-1.944 0-3.194-1.611-3.194-4.083 0-2.417 1.277-4 3.194-4 1.444 0 2.306.889 2.556 1.861h1.638c-.277-2-1.972-3.333-4.222-3.333-2.889 0-4.805 2.278-4.805 5.527 0 3.195 1.833 5.5 4.833 5.5Zm11.222-10.888h-2.278v-2.556h-1.638v2.556h-1.612v1.389h1.612v6.666c0 1.861 1.5 2.75 2.888 2.75.612 0 1-.111 1.223-.194l-.334-1.473c-.139.028-.361.084-.722.084-.722 0-1.417-.222-1.417-1.611v-6.222h2.278v-1.389Zm9.834 2.389c-.514-1.514-1.667-2.528-3.778-2.528-2.25 0-3.917 1.278-3.917 3.083 0 1.472.875 2.458 2.833 2.917l1.778.416c1.077.25 1.584.764 1.584 1.5 0 .917-.973 1.667-2.5 1.667-1.341 0-2.181-.576-2.473-1.722l-1.555.389c.382 1.812 1.875 2.777 4.055 2.777 2.479 0 4.167-1.354 4.167-3.194 0-1.486-.931-2.424-2.833-2.889l-1.584-.389c-1.264-.312-1.833-.736-1.833-1.555 0-.917.972-1.584 2.278-1.584 1.43 0 2.021.792 2.305 1.528l1.473-.416Zm3.861 8.388c.687 0 1.25-.562 1.25-1.25 0-.687-.563-1.25-1.25-1.25-.688 0-1.25.563-1.25 1.25 0 .688.562 1.25 1.25 1.25Z" style="fill:gray;fill-rule:nonzero"/><path style="fill:gray" d="M216 95.748h1.333v138.667H216zm193.333 122.667h1.333v16h-1.333zm194.667 0h1.333v16H604z"/><path d="M216.389 261.031c2.853 0 4.495-2.418 4.495-6.641 0-4.192-1.667-6.642-4.495-6.642-2.828 0-4.495 2.45-4.495 6.642 0 4.223 1.641 6.641 4.495 6.641Zm0-1.389c-1.881 0-2.98-1.888-2.98-5.252 0-3.359 1.111-5.278 2.98-5.278s2.98 1.919 2.98 5.278c0 3.364-1.099 5.252-2.98 5.252Zm155.626 1.818c2.462 0 4.268-1.818 4.268-4.293 0-2.506-1.743-4.343-4.116-4.343-.872 0-1.718.309-2.248.732h-.076l.455-3.813h5.404v-1.389h-6.717l-.783 6.364 1.465.177c.536-.386 1.452-.663 2.247-.657 1.648.013 2.854 1.263 2.854 2.954 0 1.661-1.162 2.879-2.753 2.879-1.326 0-2.38-.852-2.5-2.02H368c.095 1.97 1.793 3.409 4.015 3.409Zm10.985 0c2.853 0 4.495-2.418 4.495-6.641 0-4.192-1.667-6.642-4.495-6.642-2.828 0-4.495 2.45-4.495 6.642 0 4.223 1.641 6.641 4.495 6.641Zm0-1.389c-1.881 0-2.98-1.887-2.98-5.252 0-3.359 1.111-5.278 2.98-5.278s2.98 1.919 2.98 5.278c0 3.365-1.099 5.252-2.98 5.252Zm11.111 1.389c2.854 0 4.495-2.418 4.495-6.641 0-4.192-1.667-6.642-4.495-6.642-2.828 0-4.495 2.45-4.495 6.642 0 4.223 1.642 6.641 4.495 6.641Zm0-1.389c-1.881 0-2.98-1.887-2.98-5.252 0-3.359 1.111-5.278 2.98-5.278s2.98 1.919 2.98 5.278c0 3.365-1.099 5.252-2.98 5.252Zm13.409-4.621c0-1.692 1.048-2.651 2.475-2.651 1.382 0 2.222.902 2.222 2.424v6.06h1.49v-6.161c0-2.475-1.319-3.662-3.283-3.662-1.464 0-2.373.657-2.828 1.642h-.126v-1.516h-1.44v9.697h1.49v-5.833Zm15.783-1.692c-.467-1.376-1.515-2.298-3.434-2.298-2.046 0-3.561 1.162-3.561 2.803 0 1.339.796 2.235 2.576 2.652l1.616.379c.979.227 1.439.694 1.439 1.363 0 .833-.883 1.515-2.272 1.515-1.219 0-1.983-.524-2.248-1.565l-1.414.353c.347 1.648 1.705 2.525 3.687 2.525 2.254 0 3.788-1.231 3.788-2.904 0-1.351-.846-2.203-2.576-2.626l-1.439-.353c-1.149-.284-1.667-.67-1.667-1.415 0-.833.884-1.439 2.071-1.439 1.3 0 1.837.72 2.096 1.389l1.338-.379Zm6.995-6.01h-1.364l-4.166 15.48h1.363l4.167-15.48Zm5.707 13.737c2.626 0 4.394-1.995 4.394-5 0-3.03-1.768-5.025-4.394-5.025-2.626 0-4.394 1.995-4.394 5.025 0 3.005 1.768 5 4.394 5Zm0-1.338c-1.995 0-2.904-1.717-2.904-3.662 0-1.944.909-3.686 2.904-3.686 1.995 0 2.904 1.742 2.904 3.686 0 1.945-.909 3.662-2.904 3.662Zm6.667 4.773h1.49v-5.127h.126c.328.531.959 1.692 2.828 1.692 2.424 0 4.116-1.944 4.116-5.025 0-3.055-1.692-5-4.141-5-1.894 0-2.475 1.162-2.803 1.667h-.177v-1.541h-1.439v13.334Zm1.464-8.485c0-2.172.96-3.636 2.778-3.636 1.894 0 2.828 1.59 2.828 3.636 0 2.071-.959 3.712-2.828 3.712-1.793 0-2.778-1.515-2.778-3.712Zm129.995-8.081h-1.565l-3.233 2.147v1.591l3.157-2.096h.076v11.287h1.565v-12.929Zm3.94 12.929h1.565v-4.192l1.617-1.818 4.494 6.01h1.894l-5.429-7.096 5.429-5.833h-2.045l-5.808 6.414h-.152v-6.414h-1.565v12.929Zm17.879-5.833c0-1.692 1.047-2.651 2.474-2.651 1.383 0 2.222.902 2.222 2.424v6.06h1.49v-6.161c0-2.475-1.319-3.662-3.282-3.662-1.465 0-2.374.657-2.829 1.642h-.126v-1.516h-1.439v9.697h1.49v-5.833Zm15.782-1.692c-.467-1.376-1.515-2.298-3.434-2.298-2.045 0-3.561 1.162-3.561 2.803 0 1.339.796 2.235 2.576 2.652l1.616.379c.979.227 1.44.694 1.44 1.363 0 .833-.884 1.515-2.273 1.515-1.218 0-1.982-.524-2.247-1.565l-1.415.353c.348 1.648 1.705 2.525 3.687 2.525 2.254 0 3.788-1.231 3.788-2.904 0-1.351-.846-2.203-2.576-2.626l-1.439-.353c-1.149-.284-1.667-.67-1.667-1.415 0-.833.884-1.439 2.071-1.439 1.3 0 1.837.72 2.096 1.389l1.338-.379Zm6.995-6.01h-1.363l-4.167 15.48h1.364l4.166-15.48Zm5.707 13.737c2.627 0 4.394-1.995 4.394-5 0-3.03-1.767-5.025-4.394-5.025-2.626 0-4.394 1.995-4.394 5.025 0 3.005 1.768 5 4.394 5Zm0-1.338c-1.995 0-2.904-1.717-2.904-3.662 0-1.944.909-3.686 2.904-3.686 1.995 0 2.904 1.742 2.904 3.686 0 1.945-.909 3.662-2.904 3.662Zm6.667 4.773h1.49v-5.127h.126c.328.531.96 1.692 2.828 1.692 2.425 0 4.117-1.944 4.117-5.025 0-3.055-1.692-5-4.142-5-1.894 0-2.475 1.162-2.803 1.667h-.177v-1.541h-1.439v13.334Zm1.465-8.485c0-2.172.959-3.636 2.777-3.636 1.894 0 2.829 1.59 2.829 3.636 0 2.071-.96 3.712-2.829 3.712-1.792 0-2.777-1.515-2.777-3.712ZM745.49 136.783c0-1.691 1.048-2.651 2.475-2.651 1.382 0 2.222.903 2.222 2.424v6.061h1.49v-6.162c0-2.475-1.32-3.661-3.283-3.661-1.465 0-2.374.656-2.828 1.641h-.127v-1.515H744v9.697h1.49v-5.834Zm12.853 6.036c2.627 0 4.394-1.995 4.394-5 0-3.03-1.767-5.025-4.394-5.025-2.626 0-4.394 1.995-4.394 5.025 0 3.005 1.768 5 4.394 5Zm0-1.339c-1.995 0-2.904-1.717-2.904-3.661 0-1.945.909-3.687 2.904-3.687 1.995 0 2.904 1.742 2.904 3.687 0 1.944-.909 3.661-2.904 3.661Zm10.884-8.56h-2.07v-2.323h-1.49v2.323h-1.465v1.262h1.465v6.061c0 1.692 1.363 2.5 2.626 2.5.555 0 .909-.101 1.111-.177l-.303-1.338c-.126.025-.328.076-.657.076-.656 0-1.287-.202-1.287-1.465v-5.657h2.07v-1.262Zm13.359 5.732c0 1.818-1.389 2.652-2.5 2.652-1.238 0-2.121-.909-2.121-2.324v-6.06h-1.49v6.161c0 2.475 1.313 3.662 3.131 3.662 1.465 0 2.424-.783 2.879-1.768h.101v1.642h1.49v-9.697h-1.49v5.732Zm11.086-3.56c-.468-1.377-1.515-2.298-3.435-2.298-2.045 0-3.56 1.161-3.56 2.803 0 1.338.795 2.234 2.576 2.651l1.616.379c.978.227 1.439.694 1.439 1.363 0 .834-.884 1.516-2.273 1.516-1.218 0-1.982-.524-2.247-1.566l-1.414.354c.347 1.647 1.704 2.525 3.687 2.525 2.253 0 3.787-1.231 3.787-2.904 0-1.351-.846-2.204-2.575-2.627l-1.44-.353c-1.149-.284-1.666-.669-1.666-1.414 0-.833.883-1.44 2.07-1.44 1.301 0 1.837.72 2.096 1.389l1.339-.378Zm2.424 7.525h1.49v-9.697h-1.49v9.697Zm.758-11.313c.58 0 1.06-.455 1.06-1.01 0-.556-.48-1.01-1.06-1.01-.581 0-1.061.454-1.061 1.01 0 .555.48 1.01 1.061 1.01Zm4.949 5.479c0-1.691 1.048-2.651 2.475-2.651 1.382 0 2.222.903 2.222 2.424v6.061h1.49v-6.162c0-2.475-1.32-3.661-3.283-3.661-1.465 0-2.374.656-2.828 1.641h-.126v-1.515h-1.44v9.697h1.49v-5.834Zm12.828 9.672c2.323 0 4.192-1.061 4.192-3.561v-9.974h-1.439v1.54h-.152c-.328-.505-.934-1.666-2.828-1.666-2.449 0-4.141 1.944-4.141 4.924 0 3.03 1.767 4.747 4.116 4.747 1.894 0 2.5-1.111 2.828-1.641h.126v1.969c0 1.617-1.136 2.349-2.702 2.349-1.761 0-2.38-.928-2.777-1.465l-1.187.834c.606 1.016 1.799 1.944 3.964 1.944Zm-.05-5.328c-1.869 0-2.828-1.414-2.828-3.434 0-1.97.934-3.561 2.828-3.561 1.818 0 2.778 1.465 2.778 3.561 0 2.146-.985 3.434-2.778 3.434Zm21.01-7.399h1.616c-.48-2.5-2.576-4.217-5.303-4.217-3.314 0-5.656 2.55-5.656 6.641s2.323 6.641 5.757 6.641c3.081 0 5.278-2.051 5.278-5.252v-1.389h-4.924v1.389h3.409c-.045 2.323-1.572 3.788-3.763 3.788-2.399 0-4.242-1.818-4.242-5.177 0-3.358 1.843-5.177 4.141-5.177 1.869 0 3.138 1.055 3.687 2.753Zm8.106 9.091c2.626 0 4.394-1.995 4.394-5 0-3.03-1.768-5.025-4.394-5.025-2.626 0-4.394 1.995-4.394 5.025 0 3.005 1.768 5 4.394 5Zm0-1.339c-1.995 0-2.904-1.717-2.904-3.661 0-1.945.909-3.687 2.904-3.687 1.995 0 2.904 1.742 2.904 3.687 0 1.944-.909 3.661-2.904 3.661Zm6.566-11.792h1.389v4.444h-1.389zm10.909 5.404c-.467-1.377-1.515-2.298-3.435-2.298-2.045 0-3.56 1.161-3.56 2.803 0 1.338.795 2.234 2.576 2.651l1.616.379c.978.227 1.439.694 1.439 1.363 0 .834-.884 1.516-2.273 1.516-1.218 0-1.982-.524-2.247-1.566l-1.414.354c.347 1.647 1.704 2.525 3.687 2.525 2.253 0 3.787-1.231 3.787-2.904 0-1.351-.845-2.204-2.575-2.627l-1.44-.353c-1.149-.284-1.666-.669-1.666-1.414 0-.833.884-1.44 2.07-1.44 1.301 0 1.837.72 2.096 1.389l1.339-.378Zm13.535 3.56c0 1.818-1.389 2.652-2.5 2.652-1.237 0-2.121-.909-2.121-2.324v-6.06h-1.49v6.161c0 2.475 1.313 3.662 3.131 3.662 1.465 0 2.425-.783 2.879-1.768h.101v1.642h1.49v-9.697h-1.49v5.732Zm5.707-1.869c0-1.691 1.048-2.651 2.475-2.651 1.382 0 2.222.903 2.222 2.424v6.061h1.49v-6.162c0-2.475-1.319-3.661-3.283-3.661-1.464 0-2.374.656-2.828 1.641h-.126v-1.515h-1.44v9.697h1.49v-5.834Zm15.783-1.691c-.467-1.377-1.515-2.298-3.434-2.298-2.046 0-3.561 1.161-3.561 2.803 0 1.338.796 2.234 2.576 2.651l1.616.379c.978.227 1.439.694 1.439 1.363 0 .834-.883 1.516-2.272 1.516-1.219 0-1.983-.524-2.248-1.566l-1.414.354c.347 1.647 1.705 2.525 3.687 2.525 2.254 0 3.788-1.231 3.788-2.904 0-1.351-.846-2.204-2.576-2.627l-1.439-.353c-1.149-.284-1.667-.669-1.667-1.414 0-.833.884-1.44 2.071-1.44 1.3 0 1.837.72 2.096 1.389l1.338-.378Zm5.278 7.752c1.692 0 2.576-.909 2.879-1.54h.075v1.313h1.49v-6.389c0-3.081-2.348-3.434-3.586-3.434-1.464 0-3.131.505-3.888 2.272l1.414.505c.328-.707 1.104-1.464 2.525-1.464 1.37 0 2.045.726 2.045 1.969v.051c0 .72-.732.656-2.5.884-1.799.233-3.762.631-3.762 2.853 0 1.894 1.464 2.98 3.308 2.98Zm.227-1.338c-1.187 0-2.045-.531-2.045-1.566 0-1.136 1.035-1.49 2.197-1.641.631-.076 2.323-.253 2.575-.556v1.364c0 1.212-.959 2.399-2.727 2.399Zm11.263-8.586h-2.172v-.985c0-.96.404-1.465 1.389-1.465.429 0 .682.101.833.152l.429-1.288c-.227-.101-.681-.252-1.414-.252-1.389 0-2.727.833-2.727 2.499v1.339h-1.566v1.262h1.566v8.435h1.49v-8.435h2.172v-1.262Zm5.757 9.899c1.97 0 3.409-.985 3.864-2.45l-1.44-.404c-.378 1.01-1.256 1.515-2.424 1.515-1.748 0-2.954-1.13-3.024-3.207h7.039v-.631c0-3.611-2.146-4.848-4.166-4.848-2.626 0-4.369 2.07-4.369 5.05s1.717 4.975 4.52 4.975Zm-3.024-5.834c.101-1.508 1.168-2.853 2.873-2.853 1.616 0 2.651 1.212 2.651 2.853h-5.524Zm14.312 9.268h1.49v-5.126h.126c.329.53.96 1.692 2.829 1.692 2.424 0 4.116-1.945 4.116-5.025 0-3.056-1.692-5-4.142-5-1.894 0-2.474 1.161-2.803 1.666h-.176v-1.54h-1.44v13.333Zm1.465-8.485c0-2.171.959-3.636 2.778-3.636 1.893 0 2.828 1.591 2.828 3.636 0 2.071-.96 3.712-2.828 3.712-1.793 0-2.778-1.515-2.778-3.712Zm9.369 4.849h1.489v-3.63l1.042-.966 3.63 4.596h1.894l-4.4-5.556 4.097-4.141h-1.843l-4.243 4.318h-.177v-7.55h-1.489v12.929Zm13.181 3.838c2.324 0 4.192-1.061 4.192-3.561v-9.974h-1.439v1.54h-.152c-.328-.505-.934-1.666-2.828-1.666-2.449 0-4.141 1.944-4.141 4.924 0 3.03 1.767 4.747 4.116 4.747 1.894 0 2.5-1.111 2.828-1.641h.126v1.969c0 1.617-1.136 2.349-2.702 2.349-1.761 0-2.38-.928-2.777-1.465l-1.187.834c.606 1.016 1.799 1.944 3.964 1.944Zm-.05-5.328c-1.869 0-2.828-1.414-2.828-3.434 0-1.97.934-3.561 2.828-3.561 1.818 0 2.778 1.465 2.778 3.561 0 2.146-.985 3.434-2.778 3.434ZM745.49 160.581c0-1.691 1.048-2.651 2.475-2.651 1.382 0 2.222.903 2.222 2.424v6.061h1.49v-6.162c0-2.475-1.32-3.661-3.283-3.661-1.465 0-2.374.656-2.828 1.641h-.127v-1.515H744v9.697h1.49v-5.834Zm12.853 6.036c2.627 0 4.394-1.995 4.394-5 0-3.03-1.767-5.025-4.394-5.025-2.626 0-4.394 1.995-4.394 5.025 0 3.005 1.768 5 4.394 5Zm0-1.339c-1.995 0-2.904-1.717-2.904-3.661 0-1.945.909-3.687 2.904-3.687 1.995 0 2.904 1.742 2.904 3.687 0 1.944-.909 3.661-2.904 3.661Zm10.884-8.56h-2.07v-2.323h-1.49v2.323h-1.465v1.262h1.465v6.061c0 1.692 1.363 2.5 2.626 2.5.555 0 .909-.101 1.111-.177l-.303-1.338c-.126.025-.328.076-.657.076-.656 0-1.287-.202-1.287-1.465v-5.657h2.07v-1.262Zm13.359 5.732c0 1.818-1.389 2.652-2.5 2.652-1.238 0-2.121-.909-2.121-2.324v-6.06h-1.49v6.161c0 2.475 1.313 3.662 3.131 3.662 1.465 0 2.424-.783 2.879-1.768h.101v1.642h1.49v-9.697h-1.49v5.732Zm11.086-3.56c-.468-1.377-1.515-2.298-3.435-2.298-2.045 0-3.56 1.161-3.56 2.803 0 1.338.795 2.234 2.576 2.651l1.616.379c.978.227 1.439.694 1.439 1.363 0 .834-.884 1.516-2.273 1.516-1.218 0-1.982-.524-2.247-1.566l-1.414.353c.347 1.648 1.704 2.526 3.687 2.526 2.253 0 3.787-1.231 3.787-2.904 0-1.351-.846-2.204-2.575-2.627l-1.44-.353c-1.149-.284-1.666-.669-1.666-1.414 0-.834.883-1.44 2.07-1.44 1.301 0 1.837.72 2.096 1.389l1.339-.378Zm2.424 7.525h1.49v-9.697h-1.49v9.697Zm.758-11.313c.58 0 1.06-.455 1.06-1.01 0-.556-.48-1.01-1.06-1.01-.581 0-1.061.454-1.061 1.01 0 .555.48 1.01 1.061 1.01Zm4.949 5.479c0-1.691 1.048-2.651 2.475-2.651 1.382 0 2.222.903 2.222 2.424v6.061h1.49v-6.162c0-2.475-1.32-3.661-3.283-3.661-1.465 0-2.374.656-2.828 1.641h-.126v-1.515h-1.44v9.697h1.49v-5.834Zm12.828 9.672c2.323 0 4.192-1.061 4.192-3.561v-9.974h-1.439v1.54h-.152c-.328-.505-.934-1.666-2.828-1.666-2.449 0-4.141 1.944-4.141 4.924 0 3.03 1.767 4.747 4.116 4.747 1.894 0 2.5-1.111 2.828-1.641h.126v1.969c0 1.617-1.136 2.349-2.702 2.349-1.761 0-2.38-.928-2.777-1.465l-1.187.834c.606 1.016 1.799 1.944 3.964 1.944Zm-.05-5.328c-1.869 0-2.828-1.414-2.828-3.434 0-1.97.934-3.561 2.828-3.561 1.818 0 2.778 1.465 2.778 3.561 0 2.146-.985 3.434-2.778 3.434Zm15.909 1.692c2.146 0 3.56-1.313 3.813-3.031h-1.49c-.278 1.061-1.162 1.692-2.323 1.692-1.768 0-2.904-1.464-2.904-3.712 0-2.197 1.161-3.636 2.904-3.636 1.313 0 2.096.808 2.323 1.692h1.49c-.253-1.818-1.793-3.03-3.838-3.03-2.627 0-4.369 2.07-4.369 5.025 0 2.904 1.667 5 4.394 5Zm9.924 0c2.626 0 4.394-1.995 4.394-5 0-3.03-1.768-5.025-4.394-5.025-2.626 0-4.394 1.995-4.394 5.025 0 3.005 1.768 5 4.394 5Zm0-1.339c-1.995 0-2.904-1.717-2.904-3.661 0-1.945.909-3.687 2.904-3.687 1.995 0 2.904 1.742 2.904 3.687 0 1.944-.909 3.661-2.904 3.661Zm10.328 1.339c1.869 0 2.5-1.162 2.829-1.692h.176v1.49h1.44v-12.929h-1.49v4.772h-.126c-.329-.505-.909-1.666-2.803-1.666-2.45 0-4.142 1.944-4.142 5 0 3.08 1.692 5.025 4.116 5.025Zm.202-1.339c-1.868 0-2.828-1.641-2.828-3.712 0-2.045.935-3.636 2.828-3.636 1.819 0 2.778 1.465 2.778 3.636 0 2.197-.985 3.712-2.778 3.712Zm11.238 1.339c1.969 0 3.409-.985 3.863-2.45l-1.439-.404c-.379 1.01-1.256 1.515-2.424 1.515-1.749 0-2.955-1.13-3.024-3.207h7.039v-.631c0-3.611-2.147-4.848-4.167-4.848-2.626 0-4.368 2.07-4.368 5.05s1.717 4.975 4.52 4.975Zm-3.024-5.834c.101-1.508 1.168-2.853 2.872-2.853 1.616 0 2.652 1.212 2.652 2.853h-5.524Zm18.226 9.47c2.323 0 4.192-1.061 4.192-3.561v-9.974h-1.44v1.54h-.151c-.328-.505-.934-1.666-2.828-1.666-2.45 0-4.142 1.944-4.142 4.924 0 3.03 1.768 4.747 4.116 4.747 1.894 0 2.5-1.111 2.829-1.641h.126v1.969c0 1.617-1.137 2.349-2.702 2.349-1.761 0-2.38-.928-2.778-1.465l-1.187.834c.606 1.016 1.799 1.944 3.965 1.944Zm-.051-5.328c-1.868 0-2.828-1.414-2.828-3.434 0-1.97.934-3.561 2.828-3.561 1.819 0 2.778 1.465 2.778 3.561 0 2.146-.985 3.434-2.778 3.434Zm11.036 1.692c1.969 0 3.409-.985 3.863-2.45l-1.439-.404c-.379 1.01-1.256 1.515-2.424 1.515-1.749 0-2.955-1.13-3.024-3.207h7.039v-.631c0-3.611-2.147-4.848-4.167-4.848-2.626 0-4.368 2.07-4.368 5.05s1.717 4.975 4.52 4.975Zm-3.024-5.834c.101-1.508 1.168-2.853 2.872-2.853 1.616 0 2.652 1.212 2.652 2.853h-5.524Zm10.802-.202c0-1.691 1.047-2.651 2.474-2.651 1.383 0 2.222.903 2.222 2.424v6.061h1.49v-6.162c0-2.475-1.319-3.661-3.282-3.661-1.465 0-2.374.656-2.829 1.641h-.126v-1.515h-1.439v9.697h1.49v-5.834Zm12.979 6.036c1.97 0 3.409-.985 3.864-2.45l-1.439-.404c-.379 1.01-1.257 1.515-2.425 1.515-1.748 0-2.954-1.13-3.024-3.207h7.039v-.631c0-3.611-2.146-4.848-4.166-4.848-2.626 0-4.369 2.07-4.369 5.05s1.717 4.975 4.52 4.975Zm-3.024-5.834c.101-1.508 1.168-2.853 2.873-2.853 1.616 0 2.651 1.212 2.651 2.853h-5.524Zm9.312 5.632h1.49v-6.137c0-1.313 1.035-2.272 2.45-2.272.397 0 .808.075.909.101v-1.515a13.934 13.934 0 0 0-.783-.026c-1.162 0-2.172.657-2.525 1.616h-.101v-1.464h-1.44v9.697Zm9.47.227c1.692 0 2.576-.909 2.879-1.54h.075v1.313h1.49v-6.389c0-3.081-2.348-3.434-3.586-3.434-1.464 0-3.131.505-3.888 2.272l1.414.505c.328-.707 1.105-1.464 2.525-1.464 1.37 0 2.045.726 2.045 1.969v.051c0 .72-.732.656-2.5.884-1.799.233-3.762.631-3.762 2.853 0 1.894 1.464 2.98 3.308 2.98Zm.227-1.338c-1.187 0-2.045-.531-2.045-1.566 0-1.136 1.035-1.49 2.197-1.641.631-.076 2.323-.253 2.575-.556v1.364c0 1.212-.959 2.399-2.727 2.399Zm11.162-8.586h-2.071v-2.323h-1.49v2.323h-1.464v1.262h1.464v6.061c0 1.692 1.364 2.5 2.626 2.5.556 0 .91-.101 1.112-.177l-.303-1.338c-.127.025-.329.076-.657.076-.657 0-1.288-.202-1.288-1.465v-5.657h2.071v-1.262Zm2.247 9.697h1.49v-9.697h-1.49v9.697Zm.758-11.313c.581 0 1.06-.455 1.06-1.01 0-.556-.479-1.01-1.06-1.01-.581 0-1.061.454-1.061 1.01 0 .555.48 1.01 1.061 1.01Zm7.399 11.515c2.626 0 4.394-1.995 4.394-5 0-3.03-1.768-5.025-4.394-5.025-2.626 0-4.394 1.995-4.394 5.025 0 3.005 1.768 5 4.394 5Zm0-1.339c-1.995 0-2.904-1.717-2.904-3.661 0-1.945.909-3.687 2.904-3.687 1.995 0 2.904 1.742 2.904 3.687 0 1.944-.909 3.661-2.904 3.661Zm8.156-4.697c0-1.691 1.048-2.651 2.475-2.651 1.383 0 2.222.903 2.222 2.424v6.061h1.49v-6.162c0-2.475-1.319-3.661-3.283-3.661-1.464 0-2.373.656-2.828 1.641h-.126v-1.515h-1.439v9.697h1.489v-5.834Zm-204.722 75.404c0 1.819-1.389 2.652-2.5 2.652-1.237 0-2.121-.909-2.121-2.323v-6.061H744v6.162c0 2.474 1.313 3.661 3.131 3.661 1.465 0 2.424-.783 2.879-1.767h.101v1.641h1.49v-9.697h-1.49v5.732Zm11.086-3.56c-.467-1.376-1.515-2.298-3.434-2.298-2.046 0-3.561 1.162-3.561 2.803 0 1.338.795 2.235 2.576 2.651l1.616.379c.978.227 1.439.695 1.439 1.364 0 .833-.884 1.515-2.272 1.515-1.219 0-1.983-.524-2.248-1.566l-1.414.354c.347 1.648 1.705 2.525 3.687 2.525 2.254 0 3.788-1.231 3.788-2.904 0-1.351-.846-2.203-2.576-2.626l-1.439-.354c-1.149-.284-1.667-.669-1.667-1.414 0-.833.884-1.439 2.071-1.439 1.3 0 1.837.719 2.096 1.389l1.338-.379Zm2.424 7.525h1.49v-9.697h-1.49v9.697Zm.758-11.313c.581 0 1.06-.455 1.06-1.01 0-.556-.479-1.01-1.06-1.01-.581 0-1.061.454-1.061 1.01 0 .555.48 1.01 1.061 1.01Zm4.949 5.48c0-1.692 1.048-2.652 2.475-2.652 1.383 0 2.222.903 2.222 2.425v6.06h1.49v-6.162c0-2.474-1.319-3.661-3.283-3.661-1.464 0-2.373.656-2.828 1.641h-.126v-1.515h-1.44v9.697h1.49v-5.833Zm12.829 9.671c2.323 0 4.191-1.06 4.191-3.56v-9.975h-1.439v1.541h-.151c-.329-.505-.935-1.667-2.829-1.667-2.449 0-4.141 1.944-4.141 4.924 0 3.03 1.768 4.748 4.116 4.748 1.894 0 2.5-1.112 2.828-1.642h.127v1.97c0 1.616-1.137 2.348-2.702 2.348-1.762 0-2.381-.928-2.778-1.464l-1.187.833c.606 1.016 1.799 1.944 3.965 1.944Zm-.051-5.328c-1.869 0-2.828-1.414-2.828-3.434 0-1.97.934-3.561 2.828-3.561 1.818 0 2.778 1.465 2.778 3.561 0 2.146-.985 3.434-2.778 3.434Zm21.01-7.399h1.616c-.48-2.5-2.576-4.217-5.303-4.217-3.314 0-5.656 2.551-5.656 6.641 0 4.091 2.323 6.642 5.757 6.642 3.081 0 5.278-2.052 5.278-5.253v-1.389h-4.924v1.389h3.409c-.044 2.324-1.572 3.788-3.763 3.788-2.399 0-4.242-1.818-4.242-5.177 0-3.358 1.843-5.176 4.141-5.176 1.869 0 3.138 1.054 3.687 2.752Zm8.106 9.091c2.626 0 4.394-1.995 4.394-5 0-3.03-1.768-5.025-4.394-5.025-2.626 0-4.394 1.995-4.394 5.025 0 3.005 1.768 5 4.394 5Zm0-1.338c-1.995 0-2.904-1.717-2.904-3.662 0-1.944.909-3.687 2.904-3.687 1.995 0 2.904 1.743 2.904 3.687 0 1.945-.909 3.662-2.904 3.662Zm6.566-11.793h1.389v4.444h-1.389zm10.909 5.404c-.467-1.376-1.515-2.298-3.434-2.298-2.046 0-3.561 1.162-3.561 2.803 0 1.338.795 2.235 2.576 2.651l1.616.379c.978.227 1.439.695 1.439 1.364 0 .833-.884 1.515-2.272 1.515-1.219 0-1.983-.524-2.248-1.566l-1.414.354c.347 1.648 1.705 2.525 3.687 2.525 2.254 0 3.788-1.231 3.788-2.904 0-1.351-.846-2.203-2.576-2.626l-1.439-.354c-1.149-.284-1.667-.669-1.667-1.414 0-.833.884-1.439 2.071-1.439 1.3 0 1.837.719 2.096 1.389l1.338-.379Zm13.535 3.56c0 1.819-1.389 2.652-2.5 2.652-1.237 0-2.121-.909-2.121-2.323v-6.061h-1.49v6.162c0 2.474 1.313 3.661 3.132 3.661 1.464 0 2.424-.783 2.878-1.767h.101v1.641h1.49v-9.697h-1.49v5.732Zm5.707-1.868c0-1.692 1.048-2.652 2.475-2.652 1.383 0 2.222.903 2.222 2.425v6.06h1.49v-6.162c0-2.474-1.319-3.661-3.283-3.661-1.464 0-2.373.656-2.828 1.641h-.126v-1.515h-1.439v9.697h1.489v-5.833Zm15.783-1.692c-.467-1.376-1.515-2.298-3.434-2.298-2.046 0-3.561 1.162-3.561 2.803 0 1.338.796 2.235 2.576 2.651l1.616.379c.979.227 1.44.695 1.44 1.364 0 .833-.884 1.515-2.273 1.515-1.219 0-1.982-.524-2.248-1.566l-1.414.354c.348 1.648 1.705 2.525 3.687 2.525 2.254 0 3.788-1.231 3.788-2.904 0-1.351-.846-2.203-2.576-2.626l-1.439-.354c-1.149-.284-1.667-.669-1.667-1.414 0-.833.884-1.439 2.071-1.439 1.3 0 1.837.719 2.096 1.389l1.338-.379Zm5.278 7.752c1.692 0 2.576-.909 2.879-1.54h.076v1.313h1.489v-6.389c0-3.081-2.348-3.434-3.585-3.434-1.465 0-3.132.505-3.889 2.273l1.414.505c.328-.707 1.105-1.465 2.525-1.465 1.37 0 2.046.726 2.046 1.97v.05c0 .72-.733.657-2.5.884-1.8.234-3.763.631-3.763 2.854 0 1.893 1.465 2.979 3.308 2.979Zm.227-1.338c-1.187 0-2.045-.53-2.045-1.566 0-1.136 1.035-1.49 2.197-1.641.631-.076 2.323-.253 2.576-.556v1.364c0 1.212-.96 2.399-2.728 2.399Zm11.263-8.586h-2.172v-.985c0-.959.404-1.464 1.389-1.464.429 0 .682.101.833.151l.43-1.288c-.228-.101-.682-.252-1.414-.252-1.389 0-2.728.833-2.728 2.5v1.338h-1.565v1.263h1.565v8.434h1.49v-8.434h2.172v-1.263Zm5.757 9.899c1.97 0 3.41-.985 3.864-2.449l-1.439-.404c-.379 1.01-1.257 1.515-2.425 1.515-1.748 0-2.954-1.13-3.023-3.207h7.039v-.632c0-3.611-2.147-4.848-4.167-4.848-2.626 0-4.369 2.071-4.369 5.05 0 2.98 1.717 4.975 4.52 4.975Zm-3.023-5.833c.101-1.509 1.167-2.854 2.872-2.854 1.616 0 2.651 1.212 2.651 2.854h-5.523Zm14.311 9.267h1.49v-5.126h.127c.328.53.959 1.692 2.828 1.692 2.424 0 4.116-1.944 4.116-5.025 0-3.056-1.692-5-4.141-5-1.894 0-2.475 1.162-2.803 1.667h-.177v-1.541h-1.44v13.333Zm1.465-8.484c0-2.172.96-3.637 2.778-3.637 1.894 0 2.828 1.591 2.828 3.637 0 2.07-.96 3.712-2.828 3.712-1.793 0-2.778-1.515-2.778-3.712Zm9.369 4.848h1.49v-3.63l1.041-.966 3.63 4.596h1.894l-4.4-5.555 4.097-4.142h-1.843l-4.243 4.318h-.176v-7.55h-1.49v12.929Zm13.182 3.838c2.323 0 4.191-1.06 4.191-3.56v-9.975h-1.439v1.541h-.151c-.329-.505-.935-1.667-2.829-1.667-2.449 0-4.141 1.944-4.141 4.924 0 3.03 1.768 4.748 4.116 4.748 1.894 0 2.5-1.112 2.828-1.642h.127v1.97c0 1.616-1.137 2.348-2.702 2.348-1.762 0-2.38-.928-2.778-1.464l-1.187.833c.606 1.016 1.799 1.944 3.965 1.944Zm-.051-5.328c-1.869 0-2.828-1.414-2.828-3.434 0-1.97.934-3.561 2.828-3.561 1.818 0 2.778 1.465 2.778 3.561 0 2.146-.985 3.434-2.778 3.434Zm-171.389 21.323c0 1.819-1.389 2.652-2.5 2.652-1.237 0-2.121-.909-2.121-2.323v-6.061H744v6.162c0 2.474 1.313 3.661 3.131 3.661 1.465 0 2.424-.783 2.879-1.767h.101v1.641h1.49v-9.697h-1.49v5.732Zm11.086-3.56c-.467-1.376-1.515-2.298-3.434-2.298-2.046 0-3.561 1.162-3.561 2.803 0 1.338.795 2.235 2.576 2.651l1.616.379c.978.227 1.439.695 1.439 1.364 0 .833-.884 1.515-2.272 1.515-1.219 0-1.983-.524-2.248-1.566l-1.414.354c.347 1.648 1.705 2.525 3.687 2.525 2.254 0 3.788-1.231 3.788-2.904 0-1.351-.846-2.203-2.576-2.626l-1.439-.354c-1.149-.284-1.667-.669-1.667-1.414 0-.833.884-1.439 2.071-1.439 1.3 0 1.837.719 2.096 1.389l1.338-.379Zm2.424 7.525h1.49v-9.697h-1.49v9.697Zm.758-11.313c.581 0 1.06-.455 1.06-1.01 0-.556-.479-1.01-1.06-1.01-.581 0-1.061.454-1.061 1.01 0 .555.48 1.01 1.061 1.01Zm4.949 5.48c0-1.692 1.048-2.652 2.475-2.652 1.383 0 2.222.903 2.222 2.424v6.061h1.49v-6.162c0-2.474-1.319-3.661-3.283-3.661-1.464 0-2.373.656-2.828 1.641h-.126v-1.515h-1.44v9.697h1.49v-5.833Zm12.829 9.671c2.323 0 4.191-1.06 4.191-3.56v-9.975h-1.439v1.541h-.151c-.329-.505-.935-1.667-2.829-1.667-2.449 0-4.141 1.944-4.141 4.924 0 3.03 1.768 4.748 4.116 4.748 1.894 0 2.5-1.112 2.828-1.642h.127v1.97c0 1.616-1.137 2.348-2.702 2.348-1.762 0-2.381-.928-2.778-1.464l-1.187.833c.606 1.016 1.799 1.944 3.965 1.944Zm-.051-5.328c-1.869 0-2.828-1.414-2.828-3.434 0-1.97.934-3.561 2.828-3.561 1.818 0 2.778 1.465 2.778 3.561 0 2.146-.985 3.434-2.778 3.434Zm15.909 1.692c2.147 0 3.561-1.313 3.813-3.03h-1.49c-.277 1.06-1.161 1.692-2.323 1.692-1.768 0-2.904-1.465-2.904-3.712 0-2.197 1.162-3.637 2.904-3.637 1.313 0 2.096.808 2.323 1.692h1.49c-.252-1.818-1.793-3.03-3.838-3.03-2.626 0-4.369 2.071-4.369 5.025 0 2.904 1.667 5 4.394 5Zm9.924 0c2.627 0 4.394-1.995 4.394-5 0-3.03-1.767-5.025-4.394-5.025-2.626 0-4.394 1.995-4.394 5.025 0 3.005 1.768 5 4.394 5Zm0-1.338c-1.995 0-2.904-1.717-2.904-3.662 0-1.944.909-3.687 2.904-3.687 1.995 0 2.904 1.743 2.904 3.687 0 1.945-.909 3.662-2.904 3.662Zm10.329 1.338c1.868 0 2.5-1.162 2.828-1.692h.177v1.49h1.439v-12.929h-1.49v4.773h-.126c-.328-.505-.909-1.667-2.803-1.667-2.45 0-4.141 1.944-4.141 5 0 3.081 1.691 5.025 4.116 5.025Zm.202-1.338c-1.869 0-2.829-1.642-2.829-3.712 0-2.046.935-3.637 2.829-3.637 1.818 0 2.777 1.465 2.777 3.637 0 2.197-.984 3.712-2.777 3.712Zm11.237 1.338c1.97 0 3.409-.985 3.864-2.449l-1.44-.404c-.379 1.01-1.256 1.515-2.424 1.515-1.749 0-2.954-1.13-3.024-3.207h7.039v-.632c0-3.611-2.146-4.848-4.166-4.848-2.627 0-4.369 2.071-4.369 5.05 0 2.98 1.717 4.975 4.52 4.975Zm-3.024-5.833c.101-1.509 1.168-2.854 2.873-2.854 1.616 0 2.651 1.212 2.651 2.854h-5.524Zm18.226 9.469c2.323 0 4.192-1.06 4.192-3.56v-9.975h-1.439v1.541h-.152c-.328-.505-.934-1.667-2.828-1.667-2.45 0-4.142 1.944-4.142 4.924 0 3.03 1.768 4.748 4.117 4.748 1.893 0 2.5-1.112 2.828-1.642h.126v1.97c0 1.616-1.136 2.348-2.702 2.348-1.761 0-2.38-.928-2.778-1.464l-1.187.833c.607 1.016 1.8 1.944 3.965 1.944Zm-.05-5.328c-1.869 0-2.829-1.414-2.829-3.434 0-1.97.935-3.561 2.829-3.561 1.818 0 2.777 1.465 2.777 3.561 0 2.146-.985 3.434-2.777 3.434Zm11.035 1.692c1.97 0 3.409-.985 3.864-2.449l-1.44-.404c-.379 1.01-1.256 1.515-2.424 1.515-1.749 0-2.955-1.13-3.024-3.207h7.039v-.632c0-3.611-2.146-4.848-4.167-4.848-2.626 0-4.368 2.071-4.368 5.05 0 2.98 1.717 4.975 4.52 4.975Zm-3.024-5.833c.101-1.509 1.168-2.854 2.872-2.854 1.617 0 2.652 1.212 2.652 2.854h-5.524Zm10.802-.202c0-1.692 1.048-2.652 2.474-2.652 1.383 0 2.223.903 2.223 2.424v6.061h1.49v-6.162c0-2.474-1.32-3.661-3.283-3.661-1.465 0-2.374.656-2.828 1.641h-.127v-1.515h-1.439v9.697h1.49v-5.833Zm12.98 6.035c1.969 0 3.409-.985 3.863-2.449l-1.439-.404c-.379 1.01-1.257 1.515-2.424 1.515-1.749 0-2.955-1.13-3.024-3.207h7.039v-.632c0-3.611-2.147-4.848-4.167-4.848-2.626 0-4.369 2.071-4.369 5.05 0 2.98 1.718 4.975 4.521 4.975Zm-3.024-5.833c.101-1.509 1.167-2.854 2.872-2.854 1.616 0 2.651 1.212 2.651 2.854h-5.523Zm9.311 5.631h1.49v-6.136c0-1.313 1.036-2.273 2.45-2.273.398 0 .808.076.909.101v-1.515a13.993 13.993 0 0 0-.783-.025c-1.162 0-2.172.656-2.525 1.616h-.101v-1.465h-1.44v9.697Zm9.47.227c1.692 0 2.576-.909 2.879-1.54h.076v1.313h1.49v-6.389c0-3.081-2.349-3.434-3.586-3.434-1.465 0-3.132.505-3.889 2.273l1.414.505c.328-.707 1.105-1.465 2.525-1.465 1.37 0 2.046.726 2.046 1.97v.05c0 .72-.733.657-2.5.884-1.8.234-3.763.631-3.763 2.854 0 1.893 1.465 2.979 3.308 2.979Zm.227-1.338c-1.186 0-2.045-.53-2.045-1.566 0-1.136 1.035-1.49 2.197-1.641.631-.076 2.323-.253 2.576-.556v1.364c0 1.212-.96 2.399-2.728 2.399Zm11.162-8.586h-2.071v-2.323h-1.49v2.323h-1.464v1.263h1.464v6.06c0 1.692 1.364 2.5 2.627 2.5.555 0 .909-.101 1.111-.176l-.303-1.339c-.127.025-.329.076-.657.076-.656 0-1.288-.202-1.288-1.465v-5.656h2.071v-1.263Zm2.248 9.697h1.489v-9.697h-1.489v9.697Zm.757-11.313c.581 0 1.061-.455 1.061-1.01 0-.556-.48-1.01-1.061-1.01s-1.06.454-1.06 1.01c0 .555.479 1.01 1.06 1.01Zm7.399 11.515c2.626 0 4.394-1.995 4.394-5 0-3.03-1.768-5.025-4.394-5.025-2.626 0-4.394 1.995-4.394 5.025 0 3.005 1.768 5 4.394 5Zm0-1.338c-1.995 0-2.904-1.717-2.904-3.662 0-1.944.909-3.687 2.904-3.687 1.995 0 2.904 1.743 2.904 3.687 0 1.945-.909 3.662-2.904 3.662Zm8.157-4.697c0-1.692 1.048-2.652 2.474-2.652 1.383 0 2.223.903 2.223 2.424v6.061h1.489v-6.162c0-2.474-1.319-3.661-3.282-3.661-1.465 0-2.374.656-2.829 1.641h-.126v-1.515h-1.439v9.697h1.49v-5.833Z" style="fill:gray;fill-rule:nonzero"/><path style="fill:#40c040;stroke:gray;stroke-width:1.2px" d="M217.333 97.718h149.333v22.727H217.333z"/><path style="fill:#40c040;stroke:gray;stroke-width:.39px" d="M714.86 98.608h18.28v19.613h-18.28z"/><path style="fill:#d04040;stroke:gray;stroke-width:.39px" d="M714.86 196.608h18.28v19.613h-18.28z"/><path style="fill:#d04040;stroke:gray;stroke-width:1.69px" d="M217.625 123.343h301.333v22.144H217.625z"/><path style="fill:#d04040;stroke:gray;stroke-width:1.96px" d="M217.682 195.4h416v22.03h-416z"/><path style="fill:#40c040;stroke:gray;stroke-width:1.56px" d="M217.522 169.906h257.333v22.35H217.522z"/></g></svg>
