<?xml version="1.0" encoding="UTF-8"?>
<svg width="285" height="22" version="1.1" viewBox="0 0 75.406 5.8208" xmlns="http://www.w3.org/2000/svg">
 <g transform="translate(0 -1.5875)" stroke-width=".26458" aria-label="go get github.com/fxamacker/cbor/v2">
  <g fill="#ff4500">
   <path d="m2.5948 7.2361c0.57189 0 0.99357-0.26183 0.99357-0.8034v-2.1511h-0.49196v0.35002h-0.027561c-0.075792-0.15296-0.23427-0.37758-0.60772-0.37758-0.4892 0-0.87368 0.3831-0.87368 1.079 0 0.6904 0.38447 1.0349 0.8723 1.0349 0.36242 0 0.53192-0.1943 0.60909-0.35002h0.024805v0.40101c0 0.31144-0.20671 0.43959-0.49058 0.43959-0.30041 0-0.4327-0.14194-0.49334-0.26596l-0.44924 0.10887c0.090951 0.29628 0.3955 0.53468 0.93431 0.53468zm0.00413-1.2595c-0.32935 0-0.50298-0.25632-0.50298-0.6463 0-0.38447 0.17088-0.66697 0.50298-0.66697 0.32108 0 0.49747 0.26596 0.49747 0.66697 0 0.40377-0.17915 0.6463-0.49747 0.6463z"/>
   <path d="m5.0243 6.4396c0.62012 0 1.0142-0.43684 1.0142-1.0914 0-0.65595-0.39412-1.0942-1.0142-1.0942-0.62012 0-1.0142 0.43822-1.0142 1.0942 0 0.65457 0.39412 1.0914 1.0142 1.0914zm0.00276-0.39963c-0.34313 0-0.51125-0.30592-0.51125-0.69315 0-0.38723 0.16812-0.69729 0.51125-0.69729 0.33762 0 0.50574 0.31006 0.50574 0.69729 0 0.38723-0.16812 0.69315-0.50574 0.69315z"/>
   <path d="m8.344 7.2361c0.57189 0 0.99357-0.26183 0.99357-0.8034v-2.1511h-0.49196v0.35002h-0.027561c-0.075792-0.15296-0.23427-0.37758-0.60772-0.37758-0.4892 0-0.87368 0.3831-0.87368 1.079 0 0.6904 0.38447 1.0349 0.8723 1.0349 0.36242 0 0.53192-0.1943 0.60909-0.35002h0.024805v0.40101c0 0.31144-0.20671 0.43959-0.49058 0.43959-0.30041 0-0.4327-0.14194-0.49334-0.26596l-0.44924 0.10887c0.090951 0.29628 0.3955 0.53468 0.93431 0.53468zm0.00413-1.2595c-0.32935 0-0.50298-0.25632-0.50298-0.6463 0-0.38447 0.17088-0.66697 0.50298-0.66697 0.32108 0 0.49747 0.26596 0.49747 0.66697 0 0.40377-0.17915 0.6463-0.49747 0.6463z"/>
   <path d="m10.787 6.4396c0.49334 0 0.83234-0.24116 0.92053-0.60909l-0.46578-0.052366c-0.06752 0.17915-0.23289 0.27285-0.44786 0.27285-0.32246 0-0.53606-0.21222-0.54019-0.57464h1.4745v-0.15296c0-0.74276-0.44648-1.0694-0.96738-1.0694-0.60634 0-1.0018 0.44511-1.0018 1.0983 0 0.66422 0.38998 1.0873 1.028 1.0873zm-0.53192-1.2995c0.01516-0.2701 0.21498-0.49747 0.51263-0.49747 0.28663 0 0.47956 0.20946 0.48231 0.49747z"/>
   <path d="m13.207 4.2816h-0.41755v-0.50712h-0.49885v0.50712h-0.30041v0.38585h0.30041v1.1768c-0.0028 0.39825 0.28663 0.59394 0.66146 0.58291 0.14194-0.00413 0.23978-0.031695 0.29352-0.049609l-0.08406-0.38999c-0.02756 0.00689-0.08406 0.019293-0.14607 0.019293-0.1254 0-0.226-0.044097-0.226-0.24529v-1.0942h0.41755z"/>
  </g>
  <g fill="#00a0a0">
   <path d="m15.508 7.2361c0.57189 0 0.99357-0.26183 0.99357-0.8034v-2.1511h-0.49196v0.35002h-0.027561c-0.075792-0.15296-0.23427-0.37758-0.60772-0.37758-0.4892 0-0.87368 0.3831-0.87368 1.079 0 0.6904 0.38447 1.0349 0.8723 1.0349 0.36242 0 0.53192-0.1943 0.60909-0.35002h0.0248v0.40101c0 0.31144-0.2067 0.43959-0.49058 0.43959-0.30041 0-0.4327-0.14194-0.49334-0.26596l-0.44924 0.10887c0.09095 0.29628 0.3955 0.53468 0.93431 0.53468zm0.0041-1.2595c-0.32935 0-0.50298-0.25632-0.50298-0.6463 0-0.38447 0.17088-0.66697 0.50298-0.66697 0.32108 0 0.49747 0.26596 0.49747 0.66697 0 0.40377-0.17915 0.6463-0.49747 0.6463z"/>
   <path d="m17.015 6.3982h0.49885v-2.1167h-0.49885zm0.2508-2.4171c0.15848 0 0.28801-0.12127 0.28801-0.2701 0-0.15021-0.12954-0.27147-0.28801-0.27147-0.15985 0-0.28939 0.12127-0.28939 0.27147 0 0.14883 0.12954 0.2701 0.28939 0.2701z"/>
   <path d="m19.083 4.2816h-0.41755v-0.50712h-0.49885v0.50712h-0.30041v0.38585h0.30041v1.1768c-0.0028 0.39825 0.28663 0.59394 0.66146 0.58291 0.14194-0.00413 0.23978-0.031695 0.29352-0.049609l-0.08406-0.38999c-0.02756 0.00689-0.08406 0.019293-0.14607 0.019293-0.1254 0-0.226-0.044097-0.226-0.24529v-1.0942h0.41755z"/>
   <path d="m20.044 5.158c0-0.30592 0.19017-0.48231 0.45751-0.48231 0.26183 0 0.41617 0.16674 0.41617 0.452v1.2706h0.49885v-1.3477c0-0.51125-0.28939-0.79651-0.72898-0.79651-0.32522 0-0.53192 0.14745-0.62976 0.38723h-0.02481v-1.0652h-0.48783v2.8222h0.49885z"/>
   <path d="m23.272 5.508c0 0.32246-0.23013 0.48231-0.45062 0.48231-0.23978 0-0.39963-0.1695-0.39963-0.43822v-1.2706h-0.49885v1.3477c0 0.5085 0.28939 0.79651 0.70556 0.79651 0.31695 0 0.54019-0.16674 0.63666-0.40377h0.02205v0.3762h0.48369v-2.1167h-0.49885z"/>
   <path d="m24.306 6.3982h0.49058v-0.33349h0.02894c0.07855 0.15434 0.24254 0.37069 0.60634 0.37069 0.49885 0 0.8723-0.3955 0.8723-1.0928 0-0.70556-0.38447-1.0887-0.87368-1.0887-0.37345 0-0.52917 0.22462-0.60496 0.37758h-0.02067v-1.0556h-0.49885zm0.4892-1.0583c0-0.41066 0.17639-0.67662 0.49747-0.67662 0.33211 0 0.50298 0.2825 0.50298 0.67662 0 0.39688-0.17363 0.68626-0.50298 0.68626-0.31833 0-0.49747-0.27561-0.49747-0.68626z"/>
   <path d="m27.037 6.4286c0.16261 0 0.30179-0.13505 0.30317-0.30317-0.0014-0.16536-0.14056-0.30041-0.30317-0.30041-0.16812 0-0.30455 0.13505-0.30317 0.30041-0.0014 0.16812 0.13505 0.30317 0.30317 0.30317z"/>
   <path d="m28.78 6.4396c0.53192 0 0.87092-0.31557 0.90675-0.76481h-0.4768c-0.04272 0.22738-0.20671 0.35829-0.42581 0.35829-0.31144 0-0.51263-0.26045-0.51263-0.69315 0-0.42719 0.20533-0.68351 0.51263-0.68351 0.23978 0 0.38723 0.15434 0.42581 0.35829h0.4768c-0.034451-0.45889-0.39274-0.76068-0.90951-0.76068-0.62012 0-1.0115 0.44786-1.0115 1.0942 0 0.64079 0.38172 1.0914 1.0142 1.0914z"/>
   <path d="m31.021 6.4396c0.62012 0 1.0142-0.43684 1.0142-1.0914 0-0.65595-0.39412-1.0942-1.0142-1.0942s-1.0142 0.43822-1.0142 1.0942c0 0.65457 0.39412 1.0914 1.0142 1.0914zm0.0028-0.39963c-0.34313 0-0.51125-0.30592-0.51125-0.69315 0-0.38723 0.16812-0.69729 0.51125-0.69729 0.33762 0 0.50574 0.31006 0.50574 0.69729 0 0.38723-0.16812 0.69315-0.50574 0.69315z"/>
   <path d="m32.457 6.3982h0.49885v-1.2871c0-0.26045 0.17363-0.43684 0.38861-0.43684 0.21084 0 0.35553 0.14194 0.35553 0.35967v1.3643h0.4892v-1.3202c0-0.2384 0.14194-0.40377 0.3831-0.40377 0.20119 0 0.36105 0.11851 0.36105 0.38034v1.3436h0.50023v-1.4208c0-0.47267-0.27285-0.72347-0.66146-0.72347-0.3073 0-0.54157 0.15158-0.63528 0.38723h-0.02205c-0.0813-0.23978-0.28663-0.38723-0.57188-0.38723-0.28388 0-0.49609 0.14607-0.58429 0.38723h-0.02481v-0.35967h-0.4768z"/>
   <path d="m37.093 3.4437h-0.43684l-0.90951 3.379h0.43684z"/>
   <path d="m38.482 4.2816h-0.43959v-0.16674c0-0.16536 0.0689-0.25769 0.25494-0.25769 0.07855 0 0.14469 0.017915 0.18604 0.030317l0.1006-0.38585c-0.06477-0.022049-0.20671-0.057878-0.37896-0.057878-0.36794 0-0.66146 0.21084-0.66146 0.63803v0.19982h-0.31282v0.38585h0.31282v1.7308h0.49885v-1.7308h0.43959z"/>
   <path d="m39.281 4.2816h-0.52917l0.62839 1.0583-0.64492 1.0583h0.52917l0.44373-0.76206 0.44786 0.76206h0.52503l-0.64906-1.0583 0.63803-1.0583h-0.52779l-0.43408 0.78135z"/>
   <path d="m41.658 6.441c0.33211 0 0.53054-0.15572 0.6215-0.33349h0.01654v0.29077h0.47956v-1.4166c0-0.55948-0.45613-0.7276-0.8599-0.7276-0.44511 0-0.78686 0.19844-0.8971 0.58429l0.46578 0.066146c0.04961-0.14469 0.19017-0.26872 0.43408-0.26872 0.23151 0 0.35829 0.11851 0.35829 0.3266v0.00827c0 0.14332-0.15021 0.15021-0.52366 0.19017-0.41066 0.044097-0.8034 0.16674-0.8034 0.64354 0 0.41617 0.30455 0.63665 0.70831 0.63665zm0.12954-0.36656c-0.20808 0-0.35691-0.095085-0.35691-0.27836 0-0.19155 0.16674-0.27147 0.38999-0.30317 0.13091-0.017914 0.39274-0.050987 0.45751-0.10335v0.24943c0 0.23564-0.19017 0.43546-0.49058 0.43546z"/>
   <path d="m43.279 6.3982h0.49885v-1.2871c0-0.26045 0.17363-0.43684 0.38861-0.43684 0.21084 0 0.35553 0.14194 0.35553 0.35967v1.3643h0.4892v-1.3202c0-0.2384 0.14194-0.40377 0.3831-0.40377 0.20119 0 0.36105 0.11851 0.36105 0.38034v1.3436h0.50023v-1.4208c0-0.47267-0.27285-0.72347-0.66146-0.72347-0.3073 0-0.54157 0.15158-0.63528 0.38723h-0.02205c-0.0813-0.23978-0.28663-0.38723-0.57188-0.38723-0.28388 0-0.49609 0.14607-0.58429 0.38723h-0.0248v-0.35967h-0.4768z"/>
   <path d="m47.371 6.441c0.33211 0 0.53055-0.15572 0.6215-0.33349h0.01654v0.29077h0.47956v-1.4166c0-0.55948-0.45613-0.7276-0.8599-0.7276-0.44511 0-0.78686 0.19844-0.8971 0.58429l0.46578 0.066146c0.04961-0.14469 0.19017-0.26872 0.43408-0.26872 0.23151 0 0.35829 0.11851 0.35829 0.3266v0.00827c0 0.14332-0.15021 0.15021-0.52366 0.19017-0.41066 0.044097-0.8034 0.16674-0.8034 0.64354 0 0.41617 0.30455 0.63665 0.70831 0.63665zm0.12954-0.36656c-0.20808 0-0.35691-0.095085-0.35691-0.27836 0-0.19155 0.16674-0.27147 0.38998-0.30317 0.13091-0.017914 0.39274-0.050987 0.45751-0.10335v0.24943c0 0.23564-0.19017 0.43546-0.49058 0.43546z"/>
   <path d="m49.915 6.4396c0.53192 0 0.87092-0.31557 0.90675-0.76481h-0.4768c-0.04272 0.22738-0.20671 0.35829-0.42581 0.35829-0.31144 0-0.51263-0.26045-0.51263-0.69315 0-0.42719 0.20533-0.68351 0.51263-0.68351 0.23978 0 0.38723 0.15434 0.42581 0.35829h0.4768c-0.034451-0.45889-0.39274-0.76068-0.90951-0.76068-0.62012 0-1.0115 0.44786-1.0115 1.0942 0 0.64079 0.38172 1.0914 1.0142 1.0914z"/>
   <path d="m51.233 6.3982h0.49885v-0.71107l0.1819-0.1943 0.64768 0.90537h0.59669l-0.86816-1.203 0.81993-0.91364h-0.58291l-0.76068 0.85025h-0.03445v-1.5558h-0.49885z"/>
   <path d="m54.289 6.4396c0.49334 0 0.83234-0.24116 0.92053-0.60909l-0.46578-0.052366c-0.06752 0.17915-0.23289 0.27285-0.44786 0.27285-0.32246 0-0.53606-0.21222-0.54019-0.57464h1.4745v-0.15296c0-0.74276-0.44648-1.0694-0.96738-1.0694-0.60634 0-1.0018 0.44511-1.0018 1.0983 0 0.66422 0.38998 1.0873 1.028 1.0873zm-0.53192-1.2995c0.01516-0.2701 0.21498-0.49747 0.51263-0.49747 0.28663 0 0.47956 0.20946 0.48231 0.49747z"/>
   <path d="m55.652 6.3982h0.49885v-1.2444c0-0.26872 0.20257-0.45889 0.4768-0.45889 0.08406 0 0.18879 0.015159 0.23151 0.028939v-0.45889c-0.04547-0.00827-0.12402-0.01378-0.17914-0.01378-0.24254 0-0.44511 0.1378-0.52228 0.3831h-0.02205v-0.35278h-0.48369z"/>
   <path d="m58.219 3.4437h-0.43684l-0.90951 3.379h0.43684z"/>
   <path d="m59.46 6.4396c0.53192 0 0.87092-0.31557 0.90675-0.76481h-0.4768c-0.04272 0.22738-0.20671 0.35829-0.42582 0.35829-0.31144 0-0.51263-0.26045-0.51263-0.69315 0-0.42719 0.20533-0.68351 0.51263-0.68351 0.23978 0 0.38723 0.15434 0.42582 0.35829h0.4768c-0.034451-0.45889-0.39274-0.76068-0.90951-0.76068-0.62012 0-1.0115 0.44786-1.0115 1.0942 0 0.64079 0.38172 1.0914 1.0142 1.0914z"/>
   <path d="m60.799 6.3982h0.49058v-0.33349h0.02894c0.07855 0.15434 0.24254 0.37069 0.60634 0.37069 0.49885 0 0.8723-0.3955 0.8723-1.0928 0-0.70556-0.38447-1.0887-0.87368-1.0887-0.37345 0-0.52917 0.22462-0.60496 0.37758h-0.020672v-1.0556h-0.49885zm0.4892-1.0583c0-0.41066 0.17639-0.67662 0.49747-0.67662 0.33211 0 0.50298 0.2825 0.50298 0.67662 0 0.39688-0.17363 0.68626-0.50298 0.68626-0.31833 0-0.49747-0.27561-0.49747-0.68626z"/>
   <path d="m64.146 6.4396c0.62012 0 1.0142-0.43684 1.0142-1.0914 0-0.65595-0.39412-1.0942-1.0142-1.0942s-1.0142 0.43822-1.0142 1.0942c0 0.65457 0.39412 1.0914 1.0142 1.0914zm0.0028-0.39963c-0.34313 0-0.51125-0.30592-0.51125-0.69315 0-0.38723 0.16812-0.69729 0.51125-0.69729 0.33762 0 0.50574 0.31006 0.50574 0.69729 0 0.38723-0.16812 0.69315-0.50574 0.69315z"/>
   <path d="m65.582 6.3982h0.49885v-1.2444c0-0.26872 0.20257-0.45889 0.4768-0.45889 0.08406 0 0.18879 0.015159 0.23151 0.028939v-0.45889c-0.04548-0.00827-0.12402-0.01378-0.17914-0.01378-0.24254 0-0.44511 0.1378-0.52228 0.3831h-0.02205v-0.35278h-0.48369z"/>
   <path d="m68.149 3.4437h-0.43684l-0.90951 3.379h0.43684z"/>
   <path d="m70.357 4.2816h-0.53054l-0.48783 1.5723h-0.02205l-0.48645-1.5723h-0.53192l0.75379 2.1167h0.55122z"/>
   <path d="m70.696 6.3982h1.9348v-0.42719h-1.2292v-0.019292l0.48645-0.49472c0.54846-0.52641 0.70004-0.78273 0.70004-1.1011 0-0.47267-0.38447-0.81856-0.95222-0.81856-0.55948 0-0.95636 0.34727-0.95636 0.88332h0.48645c0-0.28801 0.1819-0.46853 0.46302-0.46853 0.26872 0 0.46853 0.16399 0.46853 0.42995 0 0.23564-0.14332 0.40377-0.42168 0.68626l-0.97979 0.96049z"/>
  </g>
 </g>
</svg>
