<?xml version="1.0" encoding="UTF-8"?>
<!-- Created with Inkscape (http://www.inkscape.org/) -->
<svg width="320" height="20" version="1.1" viewBox="0 0 84.667 5.2917" xmlns="http://www.w3.org/2000/svg">
 <g stroke-width=".26458" aria-label='import "github.com/fxamacker/cbor/v2" '>
  <g fill="#ff4500">
   <path d="m1.6783 1.4214q-0.05426 0-0.05426-0.05426v-0.3129q0-0.05426 0.05426-0.05426h0.26045q0.05426 0 0.05426 0.05426v0.3129q0 0.05426-0.05426 0.05426zm-0.53718 0.36716h0.85189v1.7671h0.66017v0.25864h-1.6531v-0.25864h0.66017v-1.5084h-0.51909z"/>
   <path d="m3.1053 1.7886h0.27311l0.028939 0.17363q0.12299-0.22247 0.36354-0.22247 0.25864 0 0.35993 0.25502 0.12299-0.25502 0.38706-0.25502 0.24598 0 0.34365 0.18448 0.099477 0.18991 0.099477 0.71624v1.1738h-0.30386v-1.1594q0-0.22789-0.012661-0.35269-0.010852-0.1248-0.036174-0.18448-0.045217-0.099477-0.17906-0.099477-0.13746 0-0.18991 0.10852-0.030747 0.063304-0.043408 0.18448-0.012661 0.12118-0.012661 0.34365v1.1594h-0.30386v-1.1594q0-0.21885-0.012661-0.34727-0.01266-0.12842-0.039791-0.1881-0.048834-0.10129-0.18268-0.10129-0.13384 0-0.18268 0.10671-0.028939 0.061495-0.0416 0.1881-0.012661 0.1248-0.012661 0.34184v1.1594h-0.30205z"/>
   <path d="m5.4819 1.7886h0.30205l0.032556 0.25864q0.17363-0.30748 0.54441-0.30748 0.36354 0 0.57154 0.28396 0.20981 0.28396 0.20981 0.77592 0 0.49558-0.21162 0.78135-0.20981 0.28577-0.56973 0.28577-0.37982 0-0.54441-0.30748v1.0255h-0.3346zm0.83561 1.796q0.47568 0 0.47568-0.78135 0-0.78135-0.47568-0.78135-0.24417 0-0.37259 0.20257-0.12842 0.20257-0.12842 0.57697 0 0.3762 0.12842 0.58059 0.13022 0.20257 0.37259 0.20257z"/>
   <path d="m8.4861 3.8668q-0.42323 0-0.64751-0.27311-0.22247-0.27492-0.22247-0.78858 0-0.51547 0.22428-0.79039 0.22428-0.27492 0.64389-0.27492t0.64208 0.27492q0.22428 0.27311 0.22428 0.7922 0 0.51547-0.22247 0.78858-0.22247 0.2713-0.64208 0.2713zm-0.00181-0.28215q0.24779 0 0.37982-0.20257 0.13384-0.20257 0.13384-0.58059 0-0.3762-0.13384-0.57697-0.13203-0.20257-0.37982-0.20257-0.2496 0-0.38344 0.20257-0.13203 0.20076-0.13203 0.57697 0 0.37801 0.13384 0.58059t0.38163 0.20257z"/>
   <path d="m10.145 1.7886h0.30205l0.03256 0.3961q0.08501-0.21523 0.25502-0.32918 0.17182-0.11576 0.41057-0.11576 0.2496 0 0.43408 0.12661v0.34003q-0.19534-0.15916-0.46302-0.15916-0.30748 0-0.47206 0.19715-0.16459 0.19534-0.16459 0.5625v1.0074h-0.33461z"/>
   <path d="m13.288 3.8215q-0.37259 0-0.52813-0.15012-0.15374-0.15193-0.15374-0.51728v-1.1069h-0.54079v-0.25864h0.54079v-0.52994l0.3328-0.14469v0.67464h0.75603v0.25864h-0.75603v1.1069q0 0.22247 0.08501 0.3129 0.08501 0.088625 0.29662 0.088625h0.3744v0.26588z"/>
  </g>
  <g fill="#008080">
   <path d="m16.9 1.1139h0.31471v1.0038h-0.31471zm0.69272 0h0.31471v1.0038h-0.31471z"/>
   <path d="m19.602 4.6101q-0.1465 0-0.29482-0.02713-0.1465-0.02713-0.28939-0.072347v-0.32918q0.13746 0.065112 0.28939 0.11395 0.15374 0.048834 0.3129 0.048834 0.19534 0 0.30386-0.077773 0.10852-0.077773 0.15193-0.21704 0.04522-0.13746 0.04522-0.31652v-0.24055q-0.08139 0.17363-0.22066 0.25502-0.13927 0.08139-0.32737 0.08139-0.21523 0-0.36535-0.092242-0.15012-0.092243-0.24236-0.24417-0.09043-0.15374-0.13203-0.33822-0.0416-0.18629-0.0416-0.37078 0-0.18449 0.0416-0.36897t0.13384-0.33641q0.09224-0.15374 0.24236-0.24598 0.15193-0.092243 0.36897-0.092243 0.18268 0 0.31833 0.075964t0.22428 0.24236l0.03256-0.26226h0.30024v1.8883q0 0.42504-0.20257 0.67464-0.20076 0.25141-0.64932 0.25141zm0.03798-1.0581q0.23694 0 0.35812-0.19715 0.12299-0.19715 0.12299-0.57335 0-0.12118-0.01809-0.25321t-0.06873-0.24598q-0.04884-0.11576-0.1447-0.1881-0.09586-0.072347-0.25141-0.072347-0.24055 0-0.36897 0.19172-0.12661 0.19172-0.12661 0.56431 0 0.3762 0.13022 0.57516 0.13022 0.19895 0.36716 0.19895z"/>
   <path d="m21.749 1.4214q-0.05426 0-0.05426-0.05426v-0.3129q0-0.05426 0.05426-0.05426h0.26045q0.05426 0 0.05426 0.05426v0.3129q0 0.05426-0.05426 0.05426zm-0.53718 0.36716h0.85189v1.7671h0.66017v0.25864h-1.6531v-0.25864h0.66017v-1.5084h-0.51909z"/>
   <path d="m24.439 3.8215q-0.37259 0-0.52813-0.15012-0.15374-0.15193-0.15374-0.51728v-1.1069h-0.54079v-0.25864h0.54079v-0.52994l0.3328-0.14469v0.67464h0.75603v0.25864h-0.75603v1.1069q0 0.22247 0.08501 0.3129 0.08501 0.088625 0.29662 0.088625h0.3744v0.26588z"/>
   <path d="m25.562 1h0.3328v1.0924q0.18268-0.35269 0.59867-0.35269 0.2496 0 0.38163 0.11576 0.13384 0.11576 0.18448 0.30205 0.05064 0.18629 0.05064 0.40153v1.2552h-0.3346v-1.2552q0-0.27311-0.09586-0.40153-0.09586-0.12842-0.29843-0.12842-0.1881 0-0.29481 0.094051-0.1049 0.092243-0.14831 0.23875-0.04341 0.1465-0.04341 0.30748v1.1449h-0.3328z"/>
   <path d="m28.409 3.8668q-0.61676 0-0.61676-0.81933v-1.2552h0.3328v1.2552q0 0.52994 0.3961 0.52994 0.23151 0 0.35812-0.1664 0.12661-0.16821 0.12661-0.47387v-1.1449h0.33461v2.0221h-0.30205l-0.032557-0.30386q-0.18087 0.35631-0.59686 0.35631z"/>
   <path d="m30.908 3.8668q-0.38344 0-0.55707-0.30748l-0.032556 0.25502h-0.30024v-2.8143h0.3328v1.0472q0.0832-0.15735 0.2297-0.23151 0.1465-0.075964 0.32918-0.075964 0.21704 0 0.36535 0.094051 0.14831 0.092243 0.23694 0.24779 0.09043 0.15374 0.12842 0.34184 0.03979 0.1881 0.03979 0.3762 0 0.18991-0.03979 0.37982-0.03979 0.1881-0.13022 0.34365-0.08863 0.15555-0.23694 0.2496-0.14831 0.094051-0.36535 0.094051zm-0.06692-0.28215q0.15916 0 0.25502-0.074156 0.09767-0.074156 0.1465-0.19353 0.05064-0.11937 0.06873-0.25502 0.01809-0.13565 0.01809-0.25864t-0.01809-0.25864q-0.01809-0.13746-0.06873-0.25502-0.04883-0.11937-0.1465-0.19353-0.09586-0.074156-0.25502-0.074156-0.15736 0-0.25502 0.074156-0.09586 0.074156-0.14831 0.19172-0.05064 0.11756-0.06873 0.25502-0.01809 0.13565-0.01809 0.25864 0 0.1248 0.01809 0.26226 0.01809 0.13565 0.06873 0.25502 0.05245 0.11756 0.14831 0.19172 0.09767 0.074156 0.25502 0.074156z"/>
   <path d="m33.008 3.8631q-0.12299 0-0.208-0.085008-0.08501-0.085008-0.08501-0.22066 0-0.13565 0.08501-0.22066 0.08501-0.085008 0.208-0.085008 0.12299 0 0.208 0.085008 0.08501 0.085008 0.08501 0.22066 0 0.13565-0.08501 0.22066-0.08501 0.085008-0.208 0.085008z"/>
   <path d="m35.405 3.8668q-0.32014 0-0.53899-0.13384-0.21704-0.13565-0.32918-0.3762-0.11033-0.24055-0.11033-0.55346 0-0.31471 0.11214-0.55346 0.11214-0.24055 0.33099-0.3744 0.21885-0.13565 0.5426-0.13565 0.16821 0 0.30386 0.039791 0.13565 0.037982 0.27673 0.11576v0.34907q-0.12842-0.11395-0.25864-0.16821-0.12842-0.05426-0.29301-0.05426-0.24417 0-0.39067 0.1049-0.14469 0.1049-0.20981 0.28215-0.0633 0.17725-0.0633 0.39429 0 0.21523 0.06511 0.39429 0.06511 0.17725 0.20981 0.28215 0.14469 0.1049 0.38706 0.1049 0.15916 0 0.29662-0.052452 0.13746-0.052452 0.25683-0.1664v0.34546q-0.25864 0.15555-0.58782 0.15555z"/>
   <path d="m37.477 3.8668q-0.42323 0-0.64751-0.27311-0.22247-0.27492-0.22247-0.78858 0-0.51547 0.22428-0.79039 0.22428-0.27492 0.64389-0.27492t0.64208 0.27492q0.22428 0.27311 0.22428 0.7922 0 0.51547-0.22247 0.78858-0.22247 0.2713-0.64208 0.2713zm-0.0018-0.28215q0.24779 0 0.37982-0.20257 0.13384-0.20257 0.13384-0.58059 0-0.3762-0.13384-0.57697-0.13203-0.20257-0.37982-0.20257-0.2496 0-0.38344 0.20257-0.13203 0.20076-0.13203 0.57697 0 0.37801 0.13384 0.58059t0.38163 0.20257z"/>
   <path d="m38.787 1.7886h0.27311l0.02894 0.17363q0.12299-0.22247 0.36354-0.22247 0.25864 0 0.35993 0.25502 0.12299-0.25502 0.38706-0.25502 0.24598 0 0.34365 0.18448 0.09948 0.18991 0.09948 0.71624v1.1738h-0.30386v-1.1594q0-0.22789-0.01266-0.35269-0.01085-0.1248-0.03617-0.18448-0.04522-0.099477-0.17906-0.099477-0.13746 0-0.18991 0.10852-0.03075 0.063304-0.04341 0.18448-0.01266 0.12118-0.01266 0.34365v1.1594h-0.30386v-1.1594q0-0.21885-0.01266-0.34727-0.01266-0.12842-0.03979-0.1881-0.04883-0.10129-0.18268-0.10129-0.13384 0-0.18268 0.10671-0.02894 0.061495-0.0416 0.1881-0.01266 0.1248-0.01266 0.34184v1.1594h-0.30205z"/>
   <path d="m42.428 1.1139h0.34365l-1.4216 3.044h-0.34546z"/>
   <path d="m43.893 2.0472h-0.5408v-0.25864h0.5408v-0.14108q0-0.3328 0.15193-0.49015 0.15374-0.15735 0.47749-0.15735h0.39972v0.27673h-0.37801q-0.17725 0-0.24779 0.074156-0.07054 0.072347-0.07054 0.25864v0.17906h0.69634v0.25864h-0.69634v1.7671h-0.3328z"/>
   <path d="m46.213 2.758-0.72528-0.96945h0.36897l0.53718 0.73251 0.53356-0.73251h0.3744l-0.72528 0.96945 0.79582 1.0563h-0.38525l-0.59325-0.8121-0.59144 0.8121h-0.38525z"/>
   <path d="m48.431 3.8668q-0.293 0-0.48472-0.16821-0.18991-0.17002-0.18991-0.48653 0-0.26226 0.12661-0.40876 0.12661-0.14831 0.33099-0.208 0.20438-0.059686 0.43589-0.059686h0.44674v-0.052452q0-0.25864-0.13203-0.35993-0.13022-0.10129-0.36716-0.10129-0.18448 0-0.36174 0.050643-0.17725 0.050643-0.33099 0.14108v-0.3328q0.1664-0.061495 0.33641-0.10129 0.17002-0.039791 0.34727-0.039791 0.18087 0 0.35088 0.050643 0.17182 0.048834 0.29662 0.16278 0.1248 0.11214 0.1664 0.30205 0.02894 0.13384 0.02894 0.40333v0.41419q0 0.17002 0.01809 0.3762 0.0199 0.20619 0.08863 0.36535h-0.33461q-0.03075-0.070538-0.04883-0.15012-0.01809-0.08139-0.02894-0.15735-0.10671 0.18268-0.29662 0.2713-0.1881 0.088625-0.39791 0.088625zm0.08139-0.27854q0.20619 0 0.3346-0.10129 0.13022-0.10129 0.18991-0.26407 0.05969-0.16459 0.05969-0.35269v-0.074156h-0.42142q-0.14108 0-0.27673 0.032556-0.13384 0.030747-0.22247 0.11937-0.08682 0.088625-0.08682 0.25864 0 0.19172 0.11756 0.28758 0.11756 0.094051 0.30567 0.094051z"/>
   <path d="m49.937 1.7886h0.27311l0.02894 0.17363q0.12299-0.22247 0.36354-0.22247 0.25864 0 0.35993 0.25502 0.12299-0.25502 0.38706-0.25502 0.24598 0 0.34365 0.18448 0.09948 0.18991 0.09948 0.71624v1.1738h-0.30386v-1.1594q0-0.22789-0.01266-0.35269-0.01085-0.1248-0.03617-0.18448-0.04522-0.099477-0.17906-0.099477-0.13746 0-0.18991 0.10852-0.03075 0.063304-0.04341 0.18448-0.01266 0.12118-0.01266 0.34365v1.1594h-0.30386v-1.1594q0-0.21885-0.01266-0.34727-0.01266-0.12842-0.03979-0.1881-0.04883-0.10129-0.18268-0.10129-0.13384 0-0.18268 0.10671-0.02894 0.061495-0.0416 0.1881-0.01266 0.1248-0.01266 0.34184v1.1594h-0.30205z"/>
   <path d="m52.891 3.8668q-0.29301 0-0.48473-0.16821-0.18991-0.17002-0.18991-0.48653 0-0.26226 0.12661-0.40876 0.12661-0.14831 0.33099-0.208 0.20438-0.059686 0.43589-0.059686h0.44674v-0.052452q0-0.25864-0.13203-0.35993-0.13022-0.10129-0.36716-0.10129-0.18448 0-0.36174 0.050643-0.17725 0.050643-0.33099 0.14108v-0.3328q0.1664-0.061495 0.33641-0.10129 0.17002-0.039791 0.34727-0.039791 0.18087 0 0.35088 0.050643 0.17182 0.048834 0.29662 0.16278 0.1248 0.11214 0.1664 0.30205 0.02894 0.13384 0.02894 0.40333v0.41419q0 0.17002 0.01809 0.3762 0.01989 0.20619 0.08863 0.36535h-0.3346q-0.03075-0.070538-0.04883-0.15012-0.01809-0.08139-0.02894-0.15735-0.10671 0.18268-0.29662 0.2713-0.1881 0.088625-0.39791 0.088625zm0.08139-0.27854q0.20619 0 0.3346-0.10129 0.13022-0.10129 0.18991-0.26407 0.05969-0.16459 0.05969-0.35269v-0.074156h-0.42143q-0.14108 0-0.27673 0.032556-0.13384 0.030747-0.22247 0.11937-0.08682 0.088625-0.08682 0.25864 0 0.19172 0.11756 0.28758 0.11756 0.094051 0.30567 0.094051z"/>
   <path d="m55.476 3.8668q-0.32014 0-0.53898-0.13384-0.21704-0.13565-0.32918-0.3762-0.11033-0.24055-0.11033-0.55346 0-0.31471 0.11214-0.55346 0.11214-0.24055 0.33099-0.3744 0.21885-0.13565 0.5426-0.13565 0.16821 0 0.30386 0.039791 0.13565 0.037982 0.27673 0.11576v0.34907q-0.12842-0.11395-0.25864-0.16821-0.12842-0.05426-0.29301-0.05426-0.24417 0-0.39067 0.1049-0.14469 0.1049-0.20981 0.28215-0.0633 0.17725-0.0633 0.39429 0 0.21523 0.06511 0.39429 0.06511 0.17725 0.20981 0.28215 0.1447 0.1049 0.38706 0.1049 0.15916 0 0.29662-0.052452 0.13746-0.052452 0.25683-0.1664v0.34546q-0.25864 0.15555-0.58782 0.15555z"/>
   <path d="m56.839 1h0.34365v1.6296l0.87359-0.84103h0.40514l-0.79763 0.76326 0.92242 1.2625h-0.40695l-0.74879-1.0454-0.24779 0.23332v0.8121h-0.34365z"/>
   <path d="m59.887 3.8668q-0.46845 0-0.73613-0.28034-0.26588-0.28215-0.26588-0.76869 0-0.30205 0.1049-0.54622 0.10671-0.24417 0.31471-0.38706 0.20981-0.14469 0.51728-0.14469 0.40514 0 0.62761 0.26045 0.22428 0.25864 0.22428 0.71804v0.16278h-1.4415v0.010852q0 0.31652 0.1664 0.50462t0.49196 0.1881q0.1881 0 0.36354-0.059686 0.17725-0.059686 0.34184-0.14469v0.33099q-0.17182 0.070538-0.34908 0.11214-0.17544 0.043408-0.35993 0.043408zm0.45398-1.2462q0-0.16821-0.05064-0.30386-0.05064-0.13565-0.16278-0.21523-0.11033-0.079582-0.29301-0.079582-0.18448 0-0.30928 0.08139-0.12299 0.079582-0.19353 0.21523-0.06873 0.13565-0.08682 0.30205z"/>
   <path d="m61.437 1.7886h0.30205l0.03256 0.3961q0.08501-0.21523 0.25502-0.32918 0.17182-0.11576 0.41057-0.11576 0.2496 0 0.43408 0.12661v0.34003q-0.19534-0.15916-0.46302-0.15916-0.30748 0-0.47206 0.19715-0.16459 0.19534-0.16459 0.5625v1.0074h-0.3346z"/>
   <path d="m64.729 1.1139h0.34365l-1.4216 3.044h-0.34546z"/>
   <path d="m66.626 3.8668q-0.32014 0-0.53899-0.13384-0.21704-0.13565-0.32918-0.3762-0.11033-0.24055-0.11033-0.55346 0-0.31471 0.11214-0.55346 0.11214-0.24055 0.33099-0.3744 0.21885-0.13565 0.5426-0.13565 0.16821 0 0.30386 0.039791 0.13565 0.037982 0.27673 0.11576v0.34907q-0.12842-0.11395-0.25864-0.16821-0.12842-0.05426-0.29301-0.05426-0.24417 0-0.39067 0.1049-0.14469 0.1049-0.20981 0.28215-0.0633 0.17725-0.0633 0.39429 0 0.21523 0.06511 0.39429 0.06511 0.17725 0.20981 0.28215 0.14469 0.1049 0.38706 0.1049 0.15916 0 0.29662-0.052452 0.13746-0.052452 0.25683-0.1664v0.34546q-0.25864 0.15555-0.58782 0.15555z"/>
   <path d="m68.82 3.8668q-0.38344 0-0.55707-0.30748l-0.032556 0.25502h-0.30024v-2.8143h0.3328v1.0472q0.0832-0.15735 0.2297-0.23151 0.1465-0.075964 0.32918-0.075964 0.21704 0 0.36535 0.094051 0.14831 0.092243 0.23694 0.24779 0.09043 0.15374 0.12842 0.34184 0.03979 0.1881 0.03979 0.3762 0 0.18991-0.03979 0.37982-0.03979 0.1881-0.13022 0.34365-0.08863 0.15555-0.23694 0.2496-0.14831 0.094051-0.36535 0.094051zm-0.06692-0.28215q0.15916 0 0.25502-0.074156 0.09767-0.074156 0.1465-0.19353 0.05064-0.11937 0.06873-0.25502 0.01809-0.13565 0.01809-0.25864t-0.01809-0.25864q-0.01809-0.13746-0.06873-0.25502-0.04883-0.11937-0.1465-0.19353-0.09586-0.074156-0.25502-0.074156-0.15736 0-0.25502 0.074156-0.09586 0.074156-0.14831 0.19172-0.05064 0.11756-0.06873 0.25502-0.01809 0.13565-0.01809 0.25864 0 0.1248 0.01809 0.26226 0.01809 0.13565 0.06873 0.25502 0.05245 0.11756 0.14831 0.19172 0.09767 0.074156 0.25502 0.074156z"/>
   <path d="m70.929 3.8668q-0.42323 0-0.64751-0.27311-0.22247-0.27492-0.22247-0.78858 0-0.51547 0.22428-0.79039 0.22428-0.27492 0.64389-0.27492t0.64208 0.27492q0.22428 0.27311 0.22428 0.7922 0 0.51547-0.22247 0.78858-0.22247 0.2713-0.64208 0.2713zm-0.0018-0.28215q0.24779 0 0.37982-0.20257 0.13384-0.20257 0.13384-0.58059 0-0.3762-0.13384-0.57697-0.13203-0.20257-0.37982-0.20257-0.2496 0-0.38344 0.20257-0.13203 0.20076-0.13203 0.57697 0 0.37801 0.13384 0.58059t0.38163 0.20257z"/>
   <path d="m72.587 1.7886h0.30205l0.03256 0.3961q0.08501-0.21523 0.25502-0.32918 0.17182-0.11576 0.41057-0.11576 0.2496 0 0.43408 0.12661v0.34003q-0.19534-0.15916-0.46302-0.15916-0.30748 0-0.47206 0.19715-0.16459 0.19534-0.16459 0.5625v1.0074h-0.33461z"/>
   <path d="m75.879 1.1139h0.34365l-1.4216 3.044h-0.34546z"/>
   <path d="m76.682 1.7886h0.34546l0.58782 1.7002 0.58963-1.7002h0.34546l-0.71985 2.0257h-0.42866z"/>
   <path d="m79.006 3.5719q0-0.066921 0.04522-0.11214 0.1031-0.10852 0.24417-0.25683 0.14108-0.15012 0.30205-0.32556 0.12299-0.13384 0.18448-0.20076 0.0633-0.06873 0.09586-0.10671 0.03436-0.037982 0.06692-0.077773 0.09586-0.11576 0.15193-0.19715 0.05788-0.08139 0.09405-0.16097 0.0633-0.14108 0.0633-0.28215 0-0.22428-0.13203-0.35088-0.13384-0.12842-0.36716-0.12842-0.32375 0-0.72709 0.24055v-0.36897q0.18448-0.088625 0.36716-0.13384 0.17906-0.045217 0.3545-0.045217 0.1881 0 0.35269 0.050643 0.16459 0.050643 0.28758 0.15916 0.10852 0.09586 0.17363 0.23513 0.06511 0.13746 0.06511 0.31109 0 0.17725-0.07958 0.35631-0.03979 0.090434-0.1031 0.17725-0.06149 0.085008-0.15916 0.20257-0.05245 0.061495-0.1248 0.14289-0.07235 0.08139-0.16821 0.18449-0.06873 0.074156-0.12842 0.13384-0.05788 0.059686-0.12299 0.1248-0.06511 0.063304-0.15012 0.15012-0.0832 0.085008-0.20438 0.21342h1.2588v0.30748h-1.6405z"/>
   <path d="m81.573 1.1139h0.31471v1.0038h-0.31471zm0.69272 0h0.31471v1.0038h-0.31471z"/>
  </g>
 </g>
</svg>
