<?xml version="1.0" encoding="UTF-8"?>
<svg width="320" height="20" version="1.1" viewBox="0 0 84.667 5.2917" xmlns="http://www.w3.org/2000/svg">
 <g transform="translate(.063304 -.45863)" stroke-width=".26458" aria-label='import "github.com/fxamacker/cbor/v2" '>
  <g fill="#ff4500">
   <path d="m2.7678 2.6647q-0.05426 0-0.05426-0.05426v-0.51005q0-0.05426 0.05426-0.05426h0.42142q0.05426 0 0.05426 0.05426v0.51005q0 0.05426-0.05426 0.05426zm-0.57335 0.24055h1.049v1.6188h0.65836v0.40695h-1.8485v-0.40695h0.66017v-1.2118h-0.51909z"/>
   <path d="m4.1731 2.9052h0.3328l0.052452 0.20981q0.047026-0.12118 0.14289-0.18991 0.097669-0.06873 0.21885-0.06873 0.12842 0 0.2297 0.072347t0.12299 0.17906q0.11756-0.25141 0.38706-0.25141 0.25502 0 0.3545 0.17906 0.099477 0.18087 0.099477 0.75422v1.1413h-0.43408v-1.3004q0-0.22066-0.034365-0.30024-0.034365-0.077773-0.12661-0.077773-0.088625 0-0.12299 0.075964-0.037982 0.083199-0.037982 0.30205v1.3004h-0.42866v-1.3004q0-0.21342-0.036174-0.30024-0.034365-0.077773-0.1248-0.077773-0.092242 0-0.1248 0.072347-0.036174 0.072347-0.036174 0.30567v1.3004h-0.43408z"/>
   <path d="m6.5262 2.9052h0.47568l0.052452 0.30386q0.16821-0.35269 0.53899-0.35269 0.34184 0 0.53537 0.28396 0.19353 0.28215 0.19353 0.78135t-0.19353 0.78135q-0.19353 0.28034-0.53175 0.28034-0.35631 0-0.5426-0.33822v1.0563h-0.52813zm0.89891 1.6369q0.1664 0 0.26588-0.17182 0.10129-0.17363 0.10129-0.46483 0-0.28577-0.097669-0.45036-0.095859-0.16459-0.26407-0.16459-0.17182 0-0.27492 0.17182-0.10129 0.17002-0.10129 0.45398 0 0.28396 0.10129 0.45579 0.10129 0.17002 0.26949 0.17002z"/>
   <path d="m9.5992 4.9834q-0.28758 0-0.49919-0.13022-0.20981-0.13022-0.32375-0.36716-0.11395-0.23875-0.11395-0.56431 0-0.32737 0.11395-0.56612 0.11576-0.23875 0.32737-0.36897 0.21342-0.13022 0.50462-0.13022 0.28758 0 0.49558 0.12842 0.20981 0.12661 0.32194 0.36354 0.11214 0.23513 0.11214 0.5625 0 0.33099-0.11576 0.57154-0.11395 0.24055-0.32375 0.37078-0.20981 0.13022-0.49919 0.13022zm0.00181-0.43046q0.1881 0 0.29662-0.17002 0.11033-0.17182 0.11033-0.46302 0-0.29301-0.11033-0.46302-0.10852-0.17002-0.29662-0.17002t-0.29843 0.17182q-0.11033 0.17002-0.11033 0.46121 0 0.28939 0.11033 0.46121t0.29843 0.17182z"/>
   <path d="m11.151 2.9052h0.47749l0.05245 0.31471q0.07777-0.17182 0.23694-0.26768 0.16097-0.09586 0.3762-0.09586 0.22247 0 0.41238 0.10309v0.50462q-0.17544-0.15916-0.4594-0.15916-0.2297 0-0.37259 0.1049-0.14289 0.1049-0.17725 0.30205-0.0072 0.045217-0.01266 0.11395-0.0036 0.066921-0.0036 0.17182v0.93328h-0.52994z"/>
   <path d="m14.441 4.9382q-0.29843 0-0.46845-0.061495-0.16821-0.061495-0.23874-0.21162-0.070538-0.15012-0.070538-0.41238v-0.94051h-0.51728v-0.40695h0.51728v-0.55346l0.52994-0.23513v0.78858h0.69272v0.40695h-0.69272v0.96583q0 0.13384 0.06692 0.19353 0.06873 0.059686 0.21885 0.059686h0.40695v0.40695z"/>
  </g>
  <g fill="#00a0a0">
   <path d="m17.823 2.2306h0.46302v1.0038h-0.46302zm0.92604 0h0.46302v1.0038h-0.46302z"/>
   <path d="m20.69 5.6978q-0.34365 0-0.66559-0.099477v-0.48653q0.293 0.16278 0.61133 0.16278 0.23694 0 0.34365-0.1049 0.10852-0.1049 0.10852-0.33099v-0.21885q-0.15555 0.28577-0.51366 0.28577-0.21342 0-0.35993-0.086817-0.14469-0.088625-0.23332-0.23332-0.08863-0.1465-0.12842-0.32375-0.03979-0.17725-0.03979-0.35812 0-0.17725 0.03798-0.35993 0.03798-0.18448 0.12299-0.34184 0.08682-0.15735 0.22789-0.25321 0.14288-0.09586 0.35088-0.09586 0.37259 0 0.53537 0.31109l0.05245-0.25864h0.47749v1.8738q0 0.48653-0.21885 0.70177-0.21885 0.21704-0.709 0.21704zm0.02351-1.2118q0.16459 0 0.26949-0.16821 0.1049-0.16821 0.1049-0.43227 0-0.26407-0.1049-0.43046-0.10309-0.16821-0.26768-0.16821-0.16459 0-0.26949 0.16821-0.10309 0.1664-0.10309 0.43046 0 0.26407 0.10309 0.43227 0.1031 0.16821 0.26768 0.16821z"/>
   <path d="m22.839 2.6647q-0.05426 0-0.05426-0.05426v-0.51005q0-0.05426 0.05426-0.05426h0.42142q0.05426 0 0.05426 0.05426v0.51005q0 0.05426-0.05426 0.05426zm-0.57335 0.24055h1.049v1.6188h0.65836v0.40695h-1.8485v-0.40695h0.66017v-1.2118h-0.51909z"/>
   <path d="m25.591 4.9382q-0.29843 0-0.46845-0.061495-0.16821-0.061495-0.23874-0.21162-0.070539-0.15012-0.070539-0.41238v-0.94051h-0.51728v-0.40695h0.51728v-0.55346l0.52994-0.23513v0.78858h0.69272v0.40695h-0.69272v0.96583q0 0.13384 0.06692 0.19353 0.06873 0.059686 0.21885 0.059686h0.40695v0.40695z"/>
   <path d="m26.637 2.1167h0.52632v1.0924q0.05788-0.17002 0.19353-0.26045 0.13565-0.092242 0.33099-0.092242 0.28215 0 0.42866 0.19353t0.1465 0.56612v1.3149h-0.52632v-1.2335q0-0.21162-0.0615-0.30928-0.0615-0.097669-0.1881-0.097669-0.15374 0-0.23875 0.12842-0.08501 0.12842-0.08501 0.35269v1.1594h-0.52632z"/>
   <path d="m29.424 4.9834q-0.28215 0-0.43046-0.19353-0.14831-0.19534-0.14831-0.56612v-1.3185h0.52994v1.2371q0 0.40695 0.2496 0.40695 0.15193 0 0.23513-0.12661 0.08501-0.12661 0.08501-0.3545v-1.163h0.52994v2.0257h-0.47749l-0.05245-0.30024q-0.12118 0.35269-0.5209 0.35269z"/>
   <path d="m32.124 4.9834q-0.37078 0-0.53899-0.35269l-0.05245 0.30024h-0.47568v-2.8143h0.52813v1.0762q0.19172-0.33641 0.53899-0.33641 0.34003 0 0.53356 0.28215 0.19534 0.28034 0.19534 0.77954t-0.19353 0.78316q-0.19353 0.28215-0.53537 0.28215zm-0.16821-0.43408q0.1664 0 0.26588-0.17182 0.10129-0.17363 0.10129-0.46483 0-0.28577-0.09767-0.45036-0.09586-0.16459-0.26407-0.16459-0.17182 0-0.27492 0.17182-0.10129 0.17002-0.10129 0.45398 0 0.28396 0.10129 0.45579 0.10129 0.17002 0.26949 0.17002z"/>
   <path d="m34.123 5.0069q-0.07054 0-0.1248-0.025321-0.05426-0.023513-0.09948-0.06873-0.09405-0.094051-0.09405-0.23694 0-0.14831 0.09405-0.24236 0.09224-0.092243 0.22608-0.092243 0.13565 0 0.22789 0.092243 0.09224 0.092242 0.09224 0.24236 0 0.14469-0.09224 0.23694-0.09405 0.094051-0.2297 0.094051z"/>
   <path d="m36.529 4.9834q-0.48111 0-0.74879-0.28034-0.26588-0.28034-0.26588-0.78135 0-0.50281 0.26407-0.78497 0.26588-0.28396 0.73432-0.28396 0.32194 0 0.61676 0.15555v0.48473q-0.23513-0.20619-0.52994-0.20619-0.26588 0-0.40695 0.16459t-0.14108 0.46845q0 0.30205 0.13927 0.46664 0.14108 0.16278 0.40153 0.16278 0.30928 0 0.53718-0.208v0.48653q-0.26949 0.15555-0.60048 0.15555z"/>
   <path d="m38.59 4.9834q-0.28758 0-0.4992-0.13022-0.20981-0.13022-0.32375-0.36716-0.11395-0.23875-0.11395-0.56431 0-0.32737 0.11395-0.56612 0.11576-0.23875 0.32737-0.36897 0.21342-0.13022 0.50462-0.13022 0.28758 0 0.49558 0.12842 0.20981 0.12661 0.32194 0.36354 0.11214 0.23513 0.11214 0.5625 0 0.33099-0.11576 0.57154-0.11395 0.24055-0.32375 0.37078-0.20981 0.13022-0.4992 0.13022zm0.0018-0.43046q0.1881 0 0.29662-0.17002 0.11033-0.17182 0.11033-0.46302 0-0.29301-0.11033-0.46302-0.10852-0.17002-0.29662-0.17002-0.1881 0-0.29843 0.17182-0.11033 0.17002-0.11033 0.46121 0 0.28939 0.11033 0.46121t0.29843 0.17182z"/>
   <path d="m39.855 2.9052h0.3328l0.05245 0.20981q0.04703-0.12118 0.14289-0.18991 0.09767-0.06873 0.21885-0.06873 0.12842 0 0.2297 0.072347t0.12299 0.17906q0.11756-0.25141 0.38706-0.25141 0.25502 0 0.3545 0.17906 0.09948 0.18087 0.09948 0.75422v1.1413h-0.43408v-1.3004q0-0.22066-0.03437-0.30024-0.03437-0.077773-0.12661-0.077773-0.08863 0-0.12299 0.075964-0.03798 0.083199-0.03798 0.30205v1.3004h-0.42865v-1.3004q0-0.21342-0.03617-0.30024-0.03437-0.077773-0.1248-0.077773-0.09224 0-0.1248 0.072347-0.03617 0.072347-0.03617 0.30567v1.3004h-0.43408z"/>
   <path d="m43.562 2.2306h0.39972l-1.4216 3.044h-0.39972z"/>
   <path d="m44.937 3.3122h-0.49196v-0.40695h0.49196v-0.14108q0-0.24417 0.06511-0.38525 0.06692-0.14289 0.22428-0.20257 0.15736-0.059686 0.42685-0.059686h0.43589v0.40695h-0.41419q-0.11576 0-0.16278 0.045217-0.04522 0.045217-0.04522 0.15916v0.17725h0.62218v0.40695h-0.62218v1.6188h-0.52994z"/>
   <path d="m47.245 3.8747-0.68911-0.96945h0.61857l0.33641 0.6041 0.33822-0.6041h0.61857l-0.68187 0.96945 0.74156 1.0563h-0.61857l-0.39791-0.68187-0.3961 0.68187h-0.61857z"/>
   <path d="m49.502 4.9834q-0.31471 0-0.51005-0.17906-0.19353-0.18087-0.19353-0.51909 0-0.21342 0.07596-0.34727 0.07777-0.13565 0.20981-0.20981 0.13384-0.074156 0.30205-0.10129 0.16821-0.028939 0.35269-0.028939h0.36716v-0.088625q0-0.11033-0.05788-0.16459-0.05607-0.056069-0.1447-0.075964-0.08863-0.019896-0.18448-0.019896-0.19172 0-0.36897 0.052452-0.17544 0.052452-0.35088 0.14831v-0.45217q0.1881-0.075964 0.37259-0.10852 0.18629-0.034365 0.3762-0.034365 0.3328 0 0.52632 0.09586 0.19353 0.094051 0.27492 0.2912 0.0832 0.19715 0.0832 0.50462 0 0.070538-0.0036 0.18087-0.0018 0.11033-0.0018 0.22066 0 0.097669-0.0018 0.18448-0.0018 0.086817-0.0018 0.1465 0 0.052452 0.0054 0.13746 0.0054 0.083199 0.02532 0.17002 0.0199 0.086817 0.06149 0.14469h-0.52452q-0.03437-0.057878-0.05064-0.10852-0.01447-0.050643-0.02351-0.11756-0.10671 0.14289-0.26768 0.21162-0.15916 0.066921-0.34727 0.066921zm0.17363-0.36716q0.1664 0 0.25864-0.090434 0.09405-0.092242 0.13203-0.2297 0.03979-0.13927 0.03979-0.28034v-0.036174h-0.21162q-0.1248 0-0.24779 0.018087-0.12118 0.016278-0.20257 0.085008-0.08139 0.066921-0.08139 0.22247 0 0.14831 0.08139 0.2297 0.0832 0.08139 0.23151 0.08139z"/>
   <path d="m51.005 2.9052h0.3328l0.05245 0.20981q0.04703-0.12118 0.14288-0.18991 0.09767-0.06873 0.21885-0.06873 0.12842 0 0.2297 0.072347t0.12299 0.17906q0.11756-0.25141 0.38706-0.25141 0.25502 0 0.3545 0.17906 0.09948 0.18087 0.09948 0.75422v1.1413h-0.43408v-1.3004q0-0.22066-0.03437-0.30024-0.03437-0.077773-0.12661-0.077773-0.08863 0-0.12299 0.075964-0.03798 0.083199-0.03798 0.30205v1.3004h-0.42865v-1.3004q0-0.21342-0.03617-0.30024-0.03437-0.077773-0.1248-0.077773-0.09224 0-0.1248 0.072347-0.03617 0.072347-0.03617 0.30567v1.3004h-0.43408z"/>
   <path d="m53.962 4.9834q-0.31471 0-0.51005-0.17906-0.19353-0.18087-0.19353-0.51909 0-0.21342 0.07596-0.34727 0.07777-0.13565 0.20981-0.20981 0.13384-0.074156 0.30205-0.10129 0.16821-0.028939 0.35269-0.028939h0.36716v-0.088625q0-0.11033-0.05788-0.16459-0.05607-0.056069-0.14469-0.075964-0.08863-0.019896-0.18448-0.019896-0.19172 0-0.36897 0.052452-0.17544 0.052452-0.35088 0.14831v-0.45217q0.1881-0.075964 0.37259-0.10852 0.18629-0.034365 0.3762-0.034365 0.3328 0 0.52632 0.09586 0.19353 0.094051 0.27492 0.2912 0.0832 0.19715 0.0832 0.50462 0 0.070538-0.0036 0.18087-0.0018 0.11033-0.0018 0.22066 0 0.097669-0.0018 0.18448-0.0018 0.086817-0.0018 0.1465 0 0.052452 0.0054 0.13746 0.0054 0.083199 0.02532 0.17002 0.01989 0.086817 0.0615 0.14469h-0.52452q-0.03436-0.057878-0.05064-0.10852-0.01447-0.050643-0.02351-0.11756-0.10671 0.14289-0.26768 0.21162-0.15916 0.066921-0.34727 0.066921zm0.17363-0.36716q0.1664 0 0.25864-0.090434 0.09405-0.092242 0.13203-0.2297 0.03979-0.13927 0.03979-0.28034v-0.036174h-0.21162q-0.1248 0-0.24779 0.018087-0.12118 0.016278-0.20257 0.085008-0.08139 0.066921-0.08139 0.22247 0 0.14831 0.08139 0.2297 0.0832 0.08139 0.23151 0.08139z"/>
   <path d="m56.599 4.9834q-0.48111 0-0.74879-0.28034-0.26588-0.28034-0.26588-0.78135 0-0.50281 0.26407-0.78497 0.26588-0.28396 0.73432-0.28396 0.32194 0 0.61676 0.15555v0.48473q-0.23513-0.20619-0.52994-0.20619-0.26588 0-0.40695 0.16459t-0.14108 0.46845q0 0.30205 0.13927 0.46664 0.14108 0.16278 0.40153 0.16278 0.30928 0 0.53718-0.208v0.48653q-0.26949 0.15555-0.60048 0.15555z"/>
   <path d="m57.862 2.1167h0.52994v1.4777l0.63665-0.68911h0.64208l-0.76688 0.75603 0.81029 1.2697h-0.58601l-0.55526-0.94775-0.18087 0.17363v0.77411h-0.52994z"/>
   <path d="m60.993 4.9834q-0.52271 0-0.79582-0.26949-0.2713-0.2713-0.2713-0.78316 0-0.32375 0.11214-0.56431 0.11214-0.24236 0.3346-0.3762 0.22428-0.13384 0.56069-0.13384 0.27673 0 0.4793 0.12842 0.20257 0.12842 0.3129 0.35812 0.11214 0.22789 0.11214 0.53175v0.21523h-1.3728q0 0.47387 0.55346 0.47387 0.36354 0 0.73432-0.21885v0.48653q-0.36897 0.15193-0.75964 0.15193zm0.31109-1.2914q0-0.20981-0.1031-0.31652-0.1031-0.10852-0.29481-0.10852-0.19534 0-0.30567 0.11033-0.11033 0.11033-0.13022 0.31471z"/>
   <path d="m62.443 2.9052h0.47749l0.05245 0.31471q0.07777-0.17182 0.23694-0.26768 0.16097-0.09586 0.3762-0.09586 0.22247 0 0.41238 0.10309v0.50462q-0.17544-0.15916-0.4594-0.15916-0.2297 0-0.37259 0.1049-0.14289 0.1049-0.17725 0.30205-0.0072 0.045217-0.01266 0.11395-0.0036 0.066921-0.0036 0.17182v0.93328h-0.52994z"/>
   <path d="m65.863 2.2306h0.39972l-1.4216 3.044h-0.39972z"/>
   <path d="m67.75 4.9834q-0.48111 0-0.74879-0.28034-0.26588-0.28034-0.26588-0.78135 0-0.50281 0.26407-0.78497 0.26588-0.28396 0.73432-0.28396 0.32194 0 0.61676 0.15555v0.48473q-0.23513-0.20619-0.52994-0.20619-0.26588 0-0.40695 0.16459-0.14108 0.16459-0.14108 0.46845 0 0.30205 0.13927 0.46664 0.14108 0.16278 0.40153 0.16278 0.30928 0 0.53718-0.208v0.48653q-0.26949 0.15555-0.60048 0.15555z"/>
   <path d="m70.036 4.9834q-0.37078 0-0.53899-0.35269l-0.05245 0.30024h-0.47568v-2.8143h0.52813v1.0762q0.19172-0.33641 0.53899-0.33641 0.34003 0 0.53356 0.28215 0.19534 0.28034 0.19534 0.77954t-0.19353 0.78316q-0.19353 0.28215-0.53537 0.28215zm-0.16821-0.43408q0.1664 0 0.26588-0.17182 0.10129-0.17363 0.10129-0.46483 0-0.28577-0.09767-0.45036-0.09586-0.16459-0.26407-0.16459-0.17182 0-0.27492 0.17182-0.10129 0.17002-0.10129 0.45398 0 0.28396 0.10129 0.45579 0.10129 0.17002 0.26949 0.17002z"/>
   <path d="m72.042 4.9834q-0.28758 0-0.4992-0.13022-0.20981-0.13022-0.32375-0.36716-0.11395-0.23875-0.11395-0.56431 0-0.32737 0.11395-0.56612 0.11576-0.23875 0.32737-0.36897 0.21342-0.13022 0.50462-0.13022 0.28758 0 0.49558 0.12842 0.20981 0.12661 0.32194 0.36354 0.11214 0.23513 0.11214 0.5625 0 0.33099-0.11576 0.57154-0.11395 0.24055-0.32375 0.37078-0.20981 0.13022-0.4992 0.13022zm0.0018-0.43046q0.1881 0 0.29662-0.17002 0.11033-0.17182 0.11033-0.46302 0-0.29301-0.11033-0.46302-0.10852-0.17002-0.29662-0.17002-0.1881 0-0.29843 0.17182-0.11033 0.17002-0.11033 0.46121 0 0.28939 0.11033 0.46121 0.11033 0.17182 0.29843 0.17182z"/>
   <path d="m73.594 2.9052h0.47749l0.05245 0.31471q0.07777-0.17182 0.23694-0.26768 0.16097-0.09586 0.3762-0.09586 0.22247 0 0.41238 0.10309v0.50462q-0.17544-0.15916-0.4594-0.15916-0.2297 0-0.37259 0.1049-0.14289 0.1049-0.17725 0.30205-0.0072 0.045217-0.01266 0.11395-0.0036 0.066921-0.0036 0.17182v0.93328h-0.52994z"/>
   <path d="m77.014 2.2306h0.39972l-1.4216 3.044h-0.39972z"/>
   <path d="m77.763 2.9052h0.53718l0.43227 1.5808 0.43408-1.5808h0.53718l-0.64389 2.0257h-0.65293z"/>
   <path d="m80.056 4.5403q0-0.061495 0.04522-0.11214l0.24417-0.26045q0.20257-0.21704 0.31833-0.34184 0.11756-0.1248 0.18448-0.19895 0.06873-0.074156 0.12299-0.13565 0.06692-0.077773 0.11576-0.14108 0.04883-0.065112 0.07958-0.13203 0.05969-0.12299 0.05969-0.24417 0-0.17363-0.11033-0.27311-0.11033-0.099477-0.30928-0.099477-0.15012 0-0.32014 0.056069-0.08862 0.028939-0.18268 0.070538-0.09224 0.039791-0.18991 0.09586v-0.49739q0.10852-0.039791 0.20619-0.066921 0.09767-0.02713 0.17363-0.041599 0.18629-0.036174 0.36174-0.036174 0.19715 0 0.36716 0.048834 0.17182 0.047026 0.30024 0.15012 0.11576 0.094051 0.17906 0.2297 0.06511 0.13565 0.06511 0.32375 0 0.14831-0.05426 0.2912-0.06692 0.16097-0.18268 0.30928-0.0633 0.077773-0.18448 0.20619-0.12118 0.12661-0.34184 0.34727-0.13203 0.13384-0.208 0.19715-0.07596 0.061495-0.12299 0.094051t-0.09405 0.08139h1.1919v0.47026h-1.7146z"/>
   <path d="m82.496 2.2306h0.46302v1.0038h-0.46302zm0.92604 0h0.46302v1.0038h-0.46302z"/>
  </g>
 </g>
</svg>
